<?xml version="1.0" encoding="UTF-8"?>
<svg width="550px" height="520px" viewBox="0 0 550 520" version="1.1" xmlns="http://www.w3.org/2000/svg" xmlns:xlink="http://www.w3.org/1999/xlink">
    <title>Artboard</title>
    <g id="Artboard" stroke="none" stroke-width="1" fill="none" fill-rule="evenodd">
        <g id="importance-of-insurance-accident" transform="translate(95.986317, 105.400064)">
            <g id="Group-2" transform="translate(0.000000, 0.000000)">
                <path d="M10.6304,5.23763562 C9.1334,5.06663562 8.1444,3.60163562 8.1254,3.15163562 C8.2024,3.82063562 7.4634,6.39963562 9.3774,7.32363562 C9.3774,7.32363562 7.5734,7.82463562 7.5274,9.49363562 C7.4814,11.1626356 5.1184,11.2986356 5.1184,11.2986356 C5.1184,11.2986356 7.8474,11.8016356 10.0574,9.82763562 C12.1124,8.44663562 11.5994,5.17663562 10.6304,5.23763562" id="Fill-4" fill="#F6F9EA"></path>
                <path d="M10.268,7.70143562 C9.733,7.70143562 9.316,7.43343562 9.309,7.42943562 L9.446,7.22043562 C9.485,7.24543562 10.406,7.83143562 11.188,7.05343562 L11.365,7.23043562 C11.002,7.59143562 10.611,7.70143562 10.268,7.70143562" id="Fill-6" fill="#929497"></path>
                <path d="M14.9375,29.8618356 C14.9375,29.8618356 12.6555,36.6788356 18.6515,36.8378356 C24.6465,36.9978356 22.8125,29.8618356 22.8125,29.8618356 C22.8385,29.8698356 22.2915,27.2748356 22.1855,26.5718356 C21.3355,26.5248356 16.0115,26.5718356 16.0115,26.5718356 C16.0115,26.5718356 15.8775,28.9028356 14.9375,29.8618356" id="Fill-8" fill="#E2B38C"></path>
                <path d="M22.1454,26.9976356 C22.1454,26.9976356 19.4284,29.2346356 15.8964,26.9976356 L15.8964,25.1336356 L21.9644,25.1106356 L22.1454,26.9976356 Z" id="Fill-10" fill="#844E39"></path>
                <path d="M10.9842,8.45963562 C10.9842,8.45963562 10.9432,9.84463562 11.0692,11.8436356 C11.3902,16.9086356 12.7842,25.9156356 18.6392,26.3036356 C25.0422,26.7276356 27.0522,17.2866356 27.6212,11.8016356 C26.9212,6.80063562 17.1642,-3.90136438 10.9842,8.45963562" id="Fill-12" fill="#E2B38C"></path>
                <path d="M13.2746,9.88763562 C13.3676,8.88363562 12.9986,3.37963562 19.4376,7.32463562 C20.5256,8.75763562 23.6556,4.65963562 25.5026,9.26863562 C26.2776,10.6226356 25.6196,14.7396356 25.8266,15.0896356 C26.2826,15.8606356 27.7846,12.8956356 27.8366,11.2486356 C27.9576,7.43763562 25.4686,0.976635617 22.7196,1.08963562 C20.5706,1.17863562 18.8476,-0.601364383 16.7096,0.214635617 C15.4226,0.706635617 14.5346,1.93163562 13.5586,3.05563562 C12.6126,4.14563562 11.7306,5.18263562 11.2316,6.88763562 C9.2796,13.9096356 12.5156,18.1206356 13.2746,9.88763562" id="Fill-14" fill="#844E39"></path>
                <path d="M12.1991,16.2058356 C11.7491,16.4088356 11.2351,16.5118356 10.7581,16.1678356 C10.3961,15.9068356 10.0941,15.4018356 9.9381,14.8368356 C9.7811,14.2718356 9.7681,13.6568356 9.8801,13.1388356 C9.9941,12.6158356 10.2411,12.1838356 10.5801,12.0138356 C10.9191,11.8438356 11.3501,11.9608356 11.6681,12.3648356 C11.7891,12.5178356 11.8921,12.7078356 11.9781,12.9088356 C12.2991,13.6548356 12.2891,15.9828356 12.1991,16.2058356" id="Fill-16" fill="#E2B38C"></path>
                <path d="M27.9495,11.5346356 C27.9495,11.5346356 29.0585,4.52463562 25.4925,3.94063562 C21.9265,3.35563562 12.2585,3.94063562 12.2585,3.94063562 C10.4115,5.66063562 10.0465,8.15163562 10.5945,11.1176356 C10.5945,11.1176356 17.8855,8.27963562 27.9495,11.5346356" id="Fill-18" fill="#F6F9EA"></path>
                <path d="M11.2616,6.50323562 C11.0006,6.50323562 10.8066,6.49023562 10.6966,6.46323562 L10.7556,6.22123562 C12.2306,6.58023562 25.5726,4.67723562 25.9496,4.05823562 L26.1826,4.14723562 C25.9826,4.69823562 21.4606,5.39623562 18.7826,5.76323562 C15.9226,6.15423562 12.6446,6.50323562 11.2616,6.50323562" id="Fill-20" fill="#929497"></path>
                <path d="M10.3642,8.63403562 L10.3582,8.38403562 C22.1932,8.12103562 26.0172,6.51003562 27.1412,5.20403562 C27.1642,5.17703562 27.1842,5.15503562 27.2012,5.13703562 L27.3832,5.30903562 C27.3682,5.32403562 27.3512,5.34403562 27.3312,5.36703562 C25.2342,7.80203562 16.9472,8.48803562 10.3642,8.63403562" id="Fill-22" fill="#929497"></path>
                <path d="M10.5707,10.8440356 L10.5017,10.6040356 C10.5957,10.5760356 20.0337,7.87503562 25.6657,8.47203562 L25.6397,8.72003562 C20.0527,8.12803562 10.6657,10.8170356 10.5707,10.8440356" id="Fill-24" fill="#929497"></path>
                <path d="M39.9548,84.0611356 L34.0428,79.3811356 C34.0428,79.3811356 32.3048,79.4571356 32.4488,80.5601356 C32.5938,81.6641356 39.9548,86.8321356 39.9548,86.8321356 L39.9548,84.0611356 Z" id="Fill-26" fill="#195151"></path>
                <path d="M20.014,134.824036 C20.014,134.824036 19.524,126.952036 18.612,121.798036 L9.204,124.345036 C11.306,129.170036 15.476,134.621036 16.749,136.126036 L20.014,134.824036 Z" id="Fill-28" fill="#195151"></path>
                <polygon id="Fill-30" fill="#003E3E" points="5.0814 83.0327356 6.5654 73.3767356 24.1404 74.3047356 20.5954 85.0957356"></polygon>
                <polygon id="Fill-32" fill="#D3D4D5" points="5.0479 83.1062356 2.1579 109.848236 9.5269 125.372236 18.8179 122.409236 14.0549 108.748236 19.0899 84.9662356"></polygon>
                <polygon id="Fill-34" fill="#FCFCFC" points="5.0479 83.1062356 18.2419 88.9692356 17.3529 93.1702356 16.9839 94.9102356 4.4219 88.9002356"></polygon>
                <polygon id="Fill-36" fill="#EEEEEE" points="3.6433 96.1043356 17.3523 93.1703356 16.3093 98.0993356 3.0653 101.450336"></polygon>
                <polygon id="Fill-38" fill="#FCFCFC" points="3.4593 97.8075356 15.3323 102.713536 14.2963 107.605536 2.9173 102.823536"></polygon>
                <polygon id="Fill-40" fill="#EEEEEE" points="14.8646 104.921936 2.3816 107.777936 2.1576 109.847936 2.9306 111.474936 14.3716 109.657936 14.0546 108.747936"></polygon>
                <polygon id="Fill-42" fill="#FCFCFC" points="2.6568 110.898636 14.6448 110.440636 15.4768 112.825636 5.0918 116.027636"></polygon>
                <polygon id="Fill-44" fill="#EEEEEE" points="15.2054 112.048336 6.2974 118.569336 7.3844 120.857336 16.1784 114.839336"></polygon>
                <path d="M17.3649,118.242236 C17.3599,118.228236 7.3839,120.857236 7.3839,120.857236 L8.3199,122.829236 L18.0219,120.127236 L17.3649,118.242236 Z" id="Fill-46" fill="#EEEEEE"></path>
                <path d="M17.5477,33.8888356 C14.7117,33.8888356 11.4407,34.3848356 10.3507,35.6068356 C9.4797,36.5838356 10.3507,43.3388356 10.3507,43.3388356 L13.2917,46.4778356 L19.1067,45.4208356 L20.2967,43.8018356 C20.2967,43.8018356 20.1307,37.4238356 20.1307,36.4658356 C20.1307,35.2108356 19.4037,33.8888356 17.5477,33.8888356" id="Fill-48" fill="#E2B38C"></path>
                <path d="M14.5706,133.270136 C3.0716,133.270136 1.3736,138.390136 1.3736,139.267136 C2.5126,139.267136 20.7506,138.498136 20.7506,138.498136 L20.0116,134.683136 C20.0116,134.683136 15.4846,135.582136 14.5706,133.270136" id="Fill-50" fill="#50001E"></path>
                <path d="M44.7542,138.088136 L49.7542,136.064136 C49.7542,136.064136 40.3092,113.478136 39.0972,109.028136 C37.8862,104.578136 29.6992,70.3901356 29.6992,70.3901356 L10.6662,71.9241356 C10.6662,71.9241356 23.1522,106.076136 26.0942,110.816136 C30.3982,117.749136 44.1712,134.804136 44.1712,134.804136 L44.7542,138.088136 Z" id="Fill-52" fill="#306262"></path>
                <path d="M44.1358,134.726436 C36.8008,134.726436 31.1638,137.665436 31.1638,140.605436 C32.3028,140.605436 50.4568,139.801436 50.4568,139.801436 L49.7178,135.986436 C49.7178,135.986436 45.0498,137.038436 44.1358,134.726436" id="Fill-54" fill="#50001E"></path>
                <path d="M0,46.3287356 C0,46.3287356 1.316,39.5827356 8.321,32.7257356 C10.204,30.8817356 15.149,29.2477356 15.149,29.2477356 C15.149,29.2477356 15.293,31.7877356 18.234,31.7877356 C21.175,31.7877356 23.182,28.9747356 23.182,28.9747356 C35.813,29.6237356 41.55,48.6437356 41.55,48.6437356 L31.641,52.5237356 L28.939,45.3207356 L29.428,43.8627356 C29.428,43.8627356 30.785,54.0217356 30.785,68.6377356 C30.785,70.7097356 30.944,74.3047356 30.944,74.3047356 L5.479,73.3557356 L6.338,44.8877356 L8.718,45.3407356 L6.074,48.1867356 L0,46.3287356 Z" id="Fill-56" fill="#65BEA2"></path>
                <path d="M0.3783,45.7181356 C0.3783,45.7181356 -0.3427,49.0001356 0.2063,58.3511356 C0.8353,69.0831356 7.1473,73.6081356 11.5473,74.3041356 L12.5093,69.3741356 C9.3123,67.6741356 8.4833,66.4841356 8.4833,66.4841356 L11.5223,67.9891356 L11.9163,66.8301356 C11.9163,66.8301356 8.0733,64.7681356 6.6203,63.1131356 C4.0953,60.2361356 5.1493,52.7471356 4.8243,47.2061356 L0.3783,45.7181356 Z" id="Fill-58" fill="#E2B28C"></path>
                <path d="M32.526,51.6671356 L39.095,48.5841356 C39.095,48.5841356 43.714,60.0691356 43.896,68.2131356 C44.006,73.0861356 42.631,78.5421356 37.814,84.2641356 C34.87,87.5611356 33.737,88.1121356 31.993,88.7901356 L28.493,84.2611356 C32.251,81.4611356 34.6,79.9711356 34.812,79.1291356 C32.108,80.4811356 30.239,81.0361356 30.239,81.0361356 C30.239,81.0351356 29.851,79.9071356 29.851,79.9071356 C29.851,79.9071356 37.602,78.0501356 37.361,67.3251356 C37.199,60.0911356 32.526,51.6671356 32.526,51.6671356" id="Fill-60" fill="#E2B38C"></path>
                <path d="M45.1891,69.5279356 L37.2911,67.9829356 C36.2531,68.6759356 36.1151,69.5009356 36.4031,70.3899356 L43.9961,72.3629356 C43.9961,72.3629356 45.9181,71.4829356 45.1891,69.5279356" id="Fill-62" fill="#7CA3C6"></path>
                <polygon id="Fill-64" fill="#929497" points="46.0424 68.6196356 39.0594 85.1186356 38.2214 142.148636 39.3394 142.148636 40.3504 85.1186356 47.3454 69.0626356"></polygon>
                <path d="M41.7306,81.9505356 L40.3506,85.1185356 L40.3506,88.6145356 L39.0086,88.6145356 L39.0596,85.1185356 C39.4796,83.6185356 40.5606,81.5715356 40.5606,81.5715356 L41.7306,81.9505356 Z" id="Fill-66" fill="#195151"></path>
                <path d="M46.0424,68.6196356 C46.0424,68.6196356 47.5484,66.8276356 47.3454,69.0626356" id="Fill-68" fill="#195151"></path>
                <polygon id="Fill-70" fill="#195151" points="38.2217 142.148336 38.2217 140.411336 39.3707 140.362336 39.3387 142.148336"></polygon>
                <path d="M26.1229,17.2556356 C26.5729,17.4586356 27.0869,17.5616356 27.5639,17.2176356 C27.9259,16.9566356 28.2279,16.4516356 28.3839,15.8866356 C28.5409,15.3216356 28.5539,14.7066356 28.4419,14.1886356 C28.3279,13.6656356 28.0809,13.2336356 27.7419,13.0636356 C27.4029,12.8936356 26.9719,13.0106356 26.6539,13.4146356 C26.5329,13.5676356 26.4299,13.7576356 26.3439,13.9586356 C26.0229,14.7046356 26.0329,17.0326356 26.1229,17.2556356" id="Fill-72" fill="#E2B38C"></path>
                <path d="M11.5135,18.3126356 C10.9295,18.9036356 10.9395,19.8826356 11.0705,20.7516356 C11.2015,21.6206356 11.6725,22.4776356 12.0785,22.7756356 C11.1645,23.7276356 11.5855,25.5416356 12.5255,26.4616356 C13.4655,27.3826356 15.1045,27.1656356 15.8275,26.0256356 C15.4705,26.9396356 15.7915,28.0396356 16.3715,28.7956356 C16.8885,29.4686356 17.6325,29.9556356 18.4255,29.9796356 C19.2175,30.0046356 20.0365,29.5036356 20.3375,28.6836356 C21.0035,29.4986356 22.0555,29.6146356 23.0415,29.5666356 C24.2115,29.5086356 25.9875,27.3686356 25.1725,25.0726356 C26.8855,25.3116356 27.9815,22.7676356 27.4785,21.0586356 C27.2085,20.1436356 26.6195,19.2656356 25.7615,19.2006356 C27.2385,18.8696356 26.4475,17.3406356 26.4475,17.3406356 C26.4475,17.3406356 25.5505,15.9216356 24.8675,17.9276356 C23.8325,16.5326356 22.0445,17.9236356 22.1935,18.9296356 C21.6415,18.2906356 20.8205,17.9556356 20.0315,18.0486356 C19.2415,18.1406356 18.5005,18.6586356 18.0785,19.4116356 C17.9485,18.5316356 17.3415,18.0236356 16.5635,17.8336356 C15.7845,17.6436356 14.9185,18.0326356 14.4735,18.7716356 C14.5985,18.2996356 14.4275,17.7476356 14.0675,17.4636356 C13.7085,17.1796356 13.1865,17.1836356 12.8305,17.4736356 C12.8785,16.2706356 12.0095,16.3966356 12.0095,16.3966356 C12.0095,16.3966356 11.1685,16.9346356 11.5135,18.3126356" id="Fill-74" fill="#844E39"></path>
            </g>
        </g>
    </g>
</svg>