<?xml version="1.0" encoding="UTF-8"?>
<svg width="550px" height="520px" viewBox="0 0 550 520" version="1.1" xmlns="http://www.w3.org/2000/svg" xmlns:xlink="http://www.w3.org/1999/xlink">
    <title>Artboard</title>
    <defs>
        <path d="M-2.84217094e-14,2.859 L5.527,18.565 C22.599,18.984 32.472,26.776 32.472,26.776 L32.472,26.776 L32.085,0 L-2.84217094e-14,2.859 Z" id="path-1"></path>
        <path d="M-2.84217094e-14,2.859 L5.527,18.565 C22.599,18.984 32.472,26.776 32.472,26.776 L32.472,26.776 L32.085,0 L-2.84217094e-14,2.859 Z" id="path-3"></path>
    </defs>
    <g id="Artboard" stroke="none" stroke-width="1" fill="none" fill-rule="evenodd">
        <g id="Group-12" transform="translate(386.709037, 315.540749)">
            <g id="Group-7" transform="translate(20.516174, 15.733200)">
                <path d="M1.38832637,4.6282 C1.38832637,4.6282 3.92332637,-2.3128 20.9553264,1.0792 C37.9873264,4.4722 39.5933264,3.2302 39.5933264,3.2302 L43.6513264,17.5332 C43.6513264,17.5332 10.1163264,25.3832 6.28832637,22.0492 C2.46032637,18.7162 -2.43967363,10.2202 1.38832637,4.6282" id="Fill-3" fill="#CE9874"></path>
                <path d="M65.1208264,26.775 C65.1208264,26.775 55.2478264,18.984 38.1758264,18.565 L32.6488264,2.859 L64.7348264,0 L65.1208264,26.775 Z" id="Fill-5" fill="#862677"></path>
            </g>
            <g id="Group-14" transform="translate(53.165300, 15.732900)">
                <g id="Group-10">
                    <mask id="mask-2" fill="white">
                        <use xlink:href="#path-1"></use>
                    </mask>
                    <g id="Clip-9"></g>
                    <polygon id="Fill-8" fill="#862677" mask="url(#mask-2)" points="174.7521 135.1559 138.9591 -73.3911 -128.1409 -19.6771 -92.3479 188.8699"></polygon>
                </g>
                <g id="Group-13">
                    <mask id="mask-4" fill="white">
                        <use xlink:href="#path-3"></use>
                    </mask>
                    <g id="Clip-12"></g>
                    <polygon id="Fill-11" fill="#862677" mask="url(#mask-4)" points="21.8528 135.7751 -1.1172 1.9421 93.8908 -17.1639 116.8598 116.6691"></polygon>
                </g>
            </g>
            <g id="Group-31">
                <path d="M44.2762,39.5582 C44.2762,39.5582 62.0882,40.9452 62.3012,64.0552 C62.5142,87.1652 37.7202,85.3162 37.7202,85.3162 C37.7202,85.3162 7.1302,90.8982 8.0962,62.4552 C9.0622,34.0122 28.4472,39.5582 28.4472,39.5582 L44.2762,39.5582 Z" id="Fill-15" fill="#195151"></path>
                <path d="M44.0481,38.973 C43.2441,18.134 47.6321,13.664 56.2421,8.739 C56.2421,8.739 44.7111,5.132 38.0951,14.149 C29.8991,13.634 21.3791,0 21.3791,0 C26.3561,14.938 28.6561,26.187 27.3551,38.779 L44.0481,38.973 Z" id="Fill-17" fill="#195151"></path>
                <path d="M38.8475,62.4633 L40.2255,59.7673 C40.2255,59.7673 38.0925,57.9933 36.1565,57.9223 L36.1565,55.2283 L33.7275,55.2283 L33.7275,57.9223 C33.7275,57.9223 29.4285,58.6313 29.4285,62.9953 C29.4285,67.3593 35.7625,68.5653 36.3865,69.1333 C37.0095,69.7003 38.1915,70.8003 36.8455,72.2553 C35.5005,73.7093 32.8415,72.7513 30.8725,70.9773 L29.1985,73.2833 C29.1985,73.2833 30.4455,75.2353 33.7275,75.8383 L33.7275,78.5073 L36.1895,78.5073 L36.1565,75.8383 C36.1565,75.8383 40.5215,74.8443 40.4885,70.8713 C40.4555,66.8983 36.5835,65.8693 36.5835,65.8693 C36.5835,65.8693 31.0035,64.2723 33.0385,61.6473 C35.0735,59.0223 38.8475,62.4633 38.8475,62.4633" id="Fill-19" fill="#F6F9EA"></path>
                <path d="M33.6507,40.1361 C29.0217,40.1361 24.5897,39.6491 23.2467,37.9441 C22.2267,36.6491 22.3607,35.6931 22.6537,35.1181 C23.5097,33.4431 26.6027,33.4361 27.5287,33.4751 L27.4477,35.4731 C26.0017,35.4241 24.6197,35.7311 24.4357,36.0291 C24.4417,36.0291 24.4517,36.2411 24.8177,36.7051 C26.5407,38.8951 40.6707,38.0951 46.0667,37.2861 C47.2277,37.1131 48.7007,36.3151 49.1647,35.8301 C48.7567,35.6351 47.5467,35.2661 44.2167,35.2661 L44.2167,33.2661 C49.0447,33.2661 51.1567,33.9681 51.2797,35.6131 C51.4307,37.6371 47.8247,39.0451 46.3637,39.2651 C46.2517,39.2821 39.7777,40.1361 33.6507,40.1361" id="Fill-21" fill="#F8E3A2"></path>
                <path d="M33.6507,36.6078 C29.0217,36.6078 24.5897,36.1208 23.2467,34.4158 C22.2267,33.1208 22.3607,32.1648 22.6537,31.5898 C23.5097,29.9148 26.6027,29.9088 27.5287,29.9468 L27.4477,31.9448 C26.0017,31.8978 24.6197,32.2028 24.4357,32.5008 C24.4417,32.5008 24.4517,32.7128 24.8177,33.1768 C26.5407,35.3668 40.6707,34.5678 46.0667,33.7578 C47.2277,33.5848 48.7007,32.7868 49.1647,32.3018 C48.7567,32.1068 47.5467,31.7378 44.2167,31.7378 L44.2167,29.7378 C49.0447,29.7378 51.1567,30.4398 51.2797,32.0848 C51.4307,34.1088 47.8247,35.5168 46.3637,35.7368 C46.2517,35.7538 39.7777,36.6078 33.6507,36.6078" id="Fill-23" fill="#FDC50E"></path>
                <path d="M23.72,17.18 C26.97,13.752 47.676,15.153 48.352,19.727 C49.379,23.013 29.35,20.934 28.833,22.621 C28.096,22.499 47.853,21.149 48,24.225 C47.821,27.243 29.882,27.939 29.882,27.939 C29.882,27.939 47.82,26.777 48.146,28.731 C48.749,31.425 27.273,33.265 22.394,28.924 C16.188,23.042 23.72,17.18 23.72,17.18" id="Fill-25" fill="#E8B995"></path>
                <polygon id="Fill-27" fill="#E34B4B" points="72.0756 82.1833 67.9936 86.0413 1.7066 15.9173 5.7886 12.0583"></polygon>
                <polygon id="Fill-29" fill="#E34B4B" points="3.601 81.6566 -1.42108547e-14 77.8476 70.125 11.5606 73.726 15.3696"></polygon>
            </g>
        </g>
    </g>
</svg>