<?xml version="1.0" encoding="UTF-8"?>
<svg width="550px" height="520px" viewBox="0 0 550 520" version="1.1" xmlns="http://www.w3.org/2000/svg" xmlns:xlink="http://www.w3.org/1999/xlink">
    <title>Artboard</title>
    <defs>
        <polygon id="path-1" points="0 154.713 165.24 154.713 165.24 0 0 0"></polygon>
    </defs>
    <g id="Artboard" stroke="none" stroke-width="1" fill="none" fill-rule="evenodd">
        <g id="Group-6" transform="translate(337.000000, 129.000000)">
            <polygon id="Fill-4" fill="#003E3E" points="35.7113 91.7491 33.7113 91.7161 34.1083 67.4041 36.1083 67.4371"></polygon>
            <path d="M70.3217,30.1115 C68.4037,30.1115 66.3367,30.3245 64.1237,30.7515 C38.3927,35.7165 36.1037,59.8575 35.9257,65.5415 L87.8007,56.8085 C88.1277,53.6595 88.9627,40.9015 82.0337,34.2675 C79.1437,31.5015 75.2187,30.1115 70.3217,30.1115 L70.3217,30.1115 Z M33.9427,67.9035 L33.9147,66.7505 C33.9067,66.4295 33.4757,34.6295 63.7447,28.7885 C72.2847,27.1395 78.9037,28.4985 83.4217,32.8275 C92.0707,41.1155 89.7957,57.1395 89.6947,57.8175 L89.5877,58.5355 L33.9427,67.9035 Z" id="Fill-6" fill="#003E3E"></path>
            <polygon id="Fill-8" fill="#003E3E" points="54.5746 62.2833 52.5766 62.1933 53.9436 31.7853 55.9416 31.8753"></polygon>
            <polygon id="Fill-10" fill="#003E3E" points="76.0316 60.0236 74.0336 59.9196 75.5956 29.5026 77.5936 29.6066"></polygon>
            <mask id="mask-2" fill="white">
                <use xlink:href="#path-1"></use>
            </mask>
            <g id="Clip-13"></g>
            <polygon id="Fill-12" fill="#003E3E" mask="url(#mask-2)" points="133.052 105.93 135.052 105.93 135.052 89.701 133.052 89.701"></polygon>
            <path d="M102.0051,87.9883 C102.0051,87.9883 109.0441,81.3153 116.0831,87.9883 C109.4921,90.3203 102.0051,87.9883 102.0051,87.9883" id="Fill-14" fill="#021014" mask="url(#mask-2)"></path>
            <path d="M103.0746,87.7531 C105.1316,88.2421 110.2916,89.1851 115.0976,87.7811 C109.9136,83.4651 104.9086,86.3781 103.0746,87.7531 M109.4816,89.5321 C105.3516,89.5321 102.0616,88.5291 101.8566,88.4661 L101.0426,88.2121 L101.6616,87.6251 C101.7346,87.5561 109.1316,80.7071 116.4276,87.6251 L117.0196,88.1881 L116.2506,88.4601 C113.9766,89.2641 111.6166,89.5321 109.4816,89.5321" id="Fill-15" fill="#021014" mask="url(#mask-2)"></path>
            <polygon id="Fill-16" fill="#021014" mask="url(#mask-2)" points="107.977 86.087 109.044 86.087 109.044 23.295 107.977 23.295"></polygon>
            <path d="M108.353,85.713 L108.669,85.713 L108.669,23.67 L108.353,23.67 L108.353,85.713 Z M107.603,86.463 L109.419,86.463 L109.419,22.92 L107.603,22.92 L107.603,86.463 Z" id="Fill-17" fill="#021014" mask="url(#mask-2)"></path>
            <path d="M101.143,31.1954 C100.925,31.1954 100.718,31.1534 100.52,31.0694 C98.348,30.1504 98.83,24.3884 98.949,23.2434 L98.995,22.7954 L109.044,22.7954 L109.044,23.7954 L99.902,23.7954 C99.699,26.3134 99.871,29.7094 100.91,30.1484 C101.182,30.2634 102.012,30.2994 103.862,28.0934 L104.627,28.7364 C103.247,30.3834 102.099,31.1954 101.143,31.1954" id="Fill-18" fill="#021014" mask="url(#mask-2)"></path>
            <path d="M100.9916,32.2413 L100.2456,32.1613 C100.4996,29.8123 100.8556,29.2883 101.3116,29.2243 C101.6796,29.1683 101.9546,29.4973 102.0866,29.8193 L101.4026,30.0973 L101.7386,29.9613 L101.4016,30.0993 C101.3006,30.3403 101.1356,30.9103 100.9916,32.2413" id="Fill-19" fill="#003E3E" mask="url(#mask-2)"></path>
            <path d="M104.1887,32.2467 C104.1887,32.2467 100.5117,31.0737 96.8857,32.2467 C93.2597,33.4197 95.3927,53.5167 95.3927,53.5167 C95.3927,53.5167 100.3997,55.4827 104.1887,53.5167 C107.9777,51.5517 104.1887,32.2467 104.1887,32.2467" id="Fill-20" fill="#F6F9EA" mask="url(#mask-2)"></path>
            <path d="M94.7693,42.0667 C94.7693,42.0667 94.8713,53.0257 95.3923,53.5167 C96.2953,54.3677 102.2223,56.0697 104.8143,52.9517 C107.2383,50.0367 105.6023,42.0667 105.6023,42.0667 L94.7693,42.0667 Z" id="Fill-21" fill="#7CA3C6" mask="url(#mask-2)"></path>
            <polygon id="Fill-22" fill="#89D5C6" mask="url(#mask-2)" points="35.3816 66.729 90.6906 107.983 135.3226 89.357 90.2256 58.992"></polygon>
            <polygon id="Fill-23" fill="#003E3E" mask="url(#mask-2)" points="91.64 126.4152 89.64 126.4092 89.691 109.3792 91.691 109.3852"></polygon>
            <path d="M47.5653,43.113 C47.5653,43.113 85.8943,38.272 86.7513,40.274 C87.6083,42.277 90.4573,62.58 88.1693,63.011 C85.8803,63.441 48.4533,70.936 47.5513,68.568 C46.6493,66.2 45.2763,43.395 47.5653,43.113" id="Fill-24" fill="#F6F9EA" mask="url(#mask-2)"></path>
            <polygon id="Fill-25" fill="#D9DDC7" mask="url(#mask-2)" points="91.0332 108.3197 135.6652 89.6427 135.6652 96.1407 91.0332 114.4127"></polygon>
            <path d="M70.7484,59.406 C75.4914,58.461 73.0624,54.163 73.0624,54.163 C73.0834,54.164 72.2924,52.566 72.1114,52.126 C71.4344,52.238 67.2424,53.164 67.2424,53.164 C67.2434,53.934 67.4014,55.46 67.4014,55.46 C67.4014,55.46 67.8364,60.027 70.7484,59.406" id="Fill-26" fill="#E2B38C" mask="url(#mask-2)"></path>
            <path d="M72.3134,52.5825 C72.3134,52.5825 70.4354,54.5055 67.2794,53.6555 L67.0204,52.4415 L71.9054,51.3845 L72.3134,52.5825 Z" id="Fill-27" fill="#844E39" mask="url(#mask-2)"></path>
            <path d="M61.0573,42.3231 C61.0573,42.3231 63.0773,53.6731 69.2413,52.7281 C75.4043,51.7831 74.0153,41.5261 73.6143,39.6481 C73.2143,37.7701 60.2963,33.7721 61.0573,42.3231" id="Fill-28" fill="#E2B38C" mask="url(#mask-2)"></path>
            <path d="M61.6511,45.0306 C61.6511,45.0306 58.8771,37.7526 63.9721,36.2536 C69.0671,34.7546 72.1851,35.8276 73.1501,37.6916 C74.1151,39.5546 74.2751,42.7476 74.2751,42.7476 C74.2751,42.7476 72.8941,39.1736 70.5461,39.1666 C68.1981,39.1596 63.7641,39.5466 63.0371,40.7666 C62.3091,41.9866 61.6511,45.0306 61.6511,45.0306" id="Fill-29" fill="#192529" mask="url(#mask-2)"></path>
            <path d="M63.3452,32.6497 C61.6402,34.4117 62.7552,36.6937 62.9042,36.7897 L69.8562,35.5397 C69.7222,35.5227 71.0302,32.4717 69.0342,31.5537 C67.3282,30.9817 64.8752,31.0687 63.3452,32.6497" id="Fill-30" fill="#192529" mask="url(#mask-2)"></path>
            <path d="M62.8197,36.9171 L62.4897,35.9741 C62.7507,35.8821 63.0097,35.7861 63.2727,35.6881 C64.9397,35.0691 66.8297,34.3701 69.9807,34.6561 L69.8887,35.6521 C66.9657,35.3831 65.2647,36.0151 63.6207,36.6261 C63.3517,36.7261 63.0867,36.8241 62.8197,36.9171" id="Fill-31" fill="#05D2FD" mask="url(#mask-2)"></path>
            <path d="M59.747,58.2853 C59.747,58.2853 60.62,56.8453 63.029,56.2823 C64.089,56.3443 65.599,56.3103 67.16,53.6753 C67.742,57.1693 68.436,57.1163 68.979,57.9333 C70.856,60.7593 73.569,57.7173 72.911,55.2473 C72.152,53.4453 72.504,53.0713 72.504,53.0713 C74.303,53.5413 76.196,54.0913 77.265,53.9483 C78.387,53.7483 80.213,53.6333 80.213,53.6333 C80.065,61.4243 80.747,68.5213 83.431,73.9463 C84.864,77.0793 64.976,79.1663 65.595,77.5973 C65.946,76.7093 62.986,66.5273 61.606,65.6883 C61.087,65.0413 59.747,58.2853 59.747,58.2853" id="Fill-32" fill="#4F4F99" mask="url(#mask-2)"></path>
            <path d="M67.1598,53.6757 C67.1598,53.6757 66.0298,54.4317 65.4998,55.2627 C64.3888,57.0027 66.2038,58.7657 69.8858,59.2207 C73.3558,59.6487 76.3658,55.1097 74.9758,53.8197 C74.4618,53.3417 72.5048,53.0717 72.5048,53.0717 C72.8048,53.2037 71.4628,59.3347 70.6988,59.1277 C69.8428,58.8957 67.1748,54.8387 67.1598,53.6757" id="Fill-33" fill="#04036D" mask="url(#mask-2)"></path>
            <path d="M69.7928,58.783 C69.7928,58.783 71.8378,64.56 71.6308,66.289" id="Fill-34" fill="#04036D" mask="url(#mask-2)"></path>
            <path d="M72.1975,58.2707 C72.1975,58.2707 71.8785,63.3997 73.2155,65.6227" id="Fill-35" fill="#04036D" mask="url(#mask-2)"></path>
            <polyline id="Fill-36" fill="#F6F9EA" mask="url(#mask-2)" points="93.8223 61.3887 41.4563 71.0117 91.0333 108.2387 135.6653 89.5617"></polyline>
            <polygon id="Fill-37" fill="#65BEA2" mask="url(#mask-2)" points="75.2444 100.9568 35.3814 70.3608 35.3814 66.7258 75.2444 96.5468"></polygon>
            <polyline id="Fill-38" fill="#E1E5D3" mask="url(#mask-2)" points="41.4567 76.1764 41.4567 71.0924 91.0337 108.3194 91.0337 114.4124"></polyline>
            <path d="M66.8818,85.8656 C68.4658,86.9956 70.1088,87.8856 71.8228,88.4906 C72.8178,87.8826 73.4358,87.0006 73.2438,85.5266 C73.1828,85.6196 70.8508,83.6556 69.6908,82.8836 L66.8818,85.8656 Z" id="Fill-39" fill="#A17869" mask="url(#mask-2)"></path>
            <path d="M59.9879,57.9718 C59.9879,57.9718 53.1989,65.8408 59.2369,75.3728 L67.5699,86.7538 L69.7959,82.9378 C66.3829,79.4578 61.4679,70.5308 61.6999,65.3788 L59.9879,57.9718 Z" id="Fill-40" fill="#4F4F99" mask="url(#mask-2)"></path>
            <path d="M79.2036,80.3728 C78.3596,82.1258 77.7616,83.8968 77.4576,85.6888 C78.2256,86.5648 79.2006,87.0238 80.6196,86.5848 C80.5186,86.5398 82.0566,83.9078 82.6196,82.6328 L79.2036,80.3728 Z" id="Fill-41" fill="#A17869" mask="url(#mask-2)"></path>
            <path d="M80.21,53.6636 C80.21,53.6636 89.199,58.8796 86.611,69.8616 L82.459,83.3416 L79.107,80.4646 C80.986,76.4976 82.572,67.9606 81.479,62.8016 C79.241,59.1306 79.561,56.4496 80.21,53.6636" id="Fill-42" fill="#4F4F99" mask="url(#mask-2)"></path>
        </g>
    </g>
</svg>