<?xml version="1.0" encoding="UTF-8"?>
<svg width="550px" height="520px" viewBox="0 0 550 520" version="1.1" xmlns="http://www.w3.org/2000/svg" xmlns:xlink="http://www.w3.org/1999/xlink">
    <title>Artboard</title>
    <g id="Artboard" stroke="none" stroke-width="1" fill="none" fill-rule="evenodd">
        <rect id="Bg---blue-grey" fill="#E2F8FE" x="0" y="0" width="550" height="452"></rect>
        <path d="M61.5421166,168.5673 C45.0561166,173.5373 38.8211166,182.9523 52.4901166,199.9043 C39.0051166,214.5483 60.9131166,245.9803 78.1551166,239.6533 C82.8651166,250.5573 95.2691166,264.8923 113.225117,253.9093 C120.726117,265.1173 130.705117,274.9243 150.856117,248.6543 C171.109117,252.8273 184.286117,226.0763 181.262117,210.9493 C195.366117,202.1983 201.552117,188.2383 187.057117,176.0803 C197.279117,159.6233 186.127117,134.5223 169.661117,137.3733 C174.575117,122.7023 162.836117,100.6193 139.714117,109.2203 C132.571117,86.2623 96.5261166,94.5723 94.0531166,109.7853 C72.2651166,110.4493 81.4361166,133.5693 81.4361166,133.5693 C81.4361166,133.5693 53.3521166,134.3463 61.5421166,168.5673" id="Fill-1" fill="#FFFFFF"></path>
        <path d="M299.479,176.840391 C313.237,187.195391 324.516,186.655391 330.102,165.607391 C349.886,167.819391 362.275,131.565391 346.976,121.403391 C352.983,111.157391 357.207,92.6773912 337.731,84.6923912 C342.333,72.0153912 344.34,58.1693912 311.238,57.4553912 C302.625,38.6563912 273.261,43.8523912 262.852,55.2363912 C247.455,49.0383912 232.538,52.3063912 231.308,71.1843912 C211.991,72.6753912 198.346,96.5123912 210.383,108.104391 C195.646,112.818391 184.781,135.344391 205.392,148.902391 C191.103,168.240391 219.122,192.391391 232.851,185.387391 C246.273,202.564391 259.493,181.496391 259.493,181.496391 C259.493,181.496391 276.728,203.683391 299.479,176.840391" id="Fill-13" fill="#FFFFFF"></path>
        <path d="M409.560037,301.049449 C396.894037,289.384449 385.617037,288.805449 377.976037,309.197449 C358.508037,305.037449 342.592037,339.888449 356.810037,351.514449 C349.819037,361.116449 343.787037,379.087449 362.378037,388.959449 C356.544037,401.119449 353.177037,414.699449 386.045037,418.684449 C392.755037,438.244449 422.489037,435.979449 433.975037,425.680449 C448.683037,433.372449 463.849037,431.596449 466.942037,412.932449 C486.311037,413.360449 502.249037,390.990449 491.417037,378.264449 C506.548037,375.032449 519.589037,353.691449 500.421037,338.160449 C516.553037,320.331449 491.062037,293.526449 476.706037,299.136449 C465.051037,280.716449 449.811037,300.372449 449.811037,300.372449 C449.811037,300.372449 434.856037,276.589449 409.560037,301.049449" id="Fill-1" fill="#FFFFFF"></path>
        <path d="M386.7558,253.9965 C385.3228,271.1555 391.7888,280.4135 412.5768,273.9265 C421.2448,291.8475 458.5258,283.0165 458.9748,264.6565 C470.8458,264.2805 488.7358,258.0095 485.1158,237.2745 C498.2958,234.4145 511.0828,228.7355 494.0508,200.3435 C505.3718,183.0385 485.3308,160.9575 470.1498,158.2135 C467.1928,141.8815 456.4798,130.9995 439.8478,140.0155 C428.2958,124.4625 400.8528,125.6155 397.4568,141.9775 C385.6168,132.0175 360.7648,134.8245 360.2718,159.4895 C336.2948,157.7005 330.7838,194.2785 344.0258,202.1665 C336.6398,222.6755 361.5118,222.6385 361.5118,222.6385 C361.5118,222.6385 351.9178,249.0445 386.7558,253.9965" id="Fill-1" fill="#FFFFFF"></path>
        <path d="M73.5538,335.9324 C56.4228,337.6684 48.5068,345.7224 58.6928,364.9694 C42.6648,376.7744 58.1778,411.8054 76.3098,408.8824 C78.8548,420.4834 88.2978,436.9204 108.0188,429.5624 C113.2458,441.9944 121.1718,453.5244 145.9618,431.5774 C165.0478,439.5354 183.0828,415.7864 182.9978,400.3604 C198.5118,394.4594 207.2458,381.9344 195.3338,367.2364 C208.5068,353.0294 202.3438,326.2624 185.6368,325.9224 C193.2578,312.4574 185.9438,288.5414 161.6058,292.5774 C158.9708,268.6774 122.0028,269.9644 116.6748,284.4264 C95.1598,280.9254 99.7548,305.3694 99.7548,305.3694 C99.7548,305.3694 72.0378,300.7774 73.5538,335.9324" id="Fill-1" fill="#FFFFFF"></path>
        <g id="Group-61" transform="translate(146.000000, 238.999247)">
            <path d="M91.4526226,89.3248661 L84.9481698,89.3248661 L84.9481698,36.389567 C84.9481698,24.406963 94.3334528,0 124.762849,0 C153.157094,0 169.019226,21.4200969 169.019226,42.995812 L169.019226,75.8387892 L163.310264,89.3248661 L91.4526226,89.3248661 Z" id="Fill-24" fill="#021014"></path>
            <path d="M95.7611015,84.3789672 C95.773617,78.1316481 92.0621642,73.0615057 87.4724094,73.0514509 C82.8826547,73.0414259 80.2101075,78.1015285 80.197516,84.3463376 C80.1850132,90.5936567 82.8349755,95.6637991 87.4272396,95.6738474 C92.0169943,95.6813689 95.7485226,90.6262863 95.7611015,84.3789672" id="Fill-27" fill="#E2B38C"></path>
            <path d="M87.8857132,92.6199567 L87.8781849,92.6199567 C86.0337509,92.6174467 84.646034,91.7891561 83.7602038,90.1601846 C82.952166,88.6717715 82.5606943,86.5533556 82.5682226,83.6844581 C82.5732415,81.2648456 83.1453925,79.1740393 84.2269585,77.6379368 C85.2759019,76.1470137 86.716317,75.323743 88.2822038,75.323743 L88.2922415,75.323743 C90.9296566,75.328763 92.0614113,78.0822017 92.2922792,79.5379852 L91.5269019,79.6609738 C91.5018075,79.5153954 90.9246377,76.1068541 88.2922415,76.1018342 L88.2847132,76.1018342 C86.9772981,76.1018342 85.7627321,76.8046262 84.8618453,78.0847117 C83.8856755,79.470216 83.3461472,81.4606234 83.3411283,83.6869681 C83.3386189,86.3826775 83.7100151,88.4358342 84.4427698,89.7887088 C85.1930906,91.1666832 86.317317,91.8393556 87.8781849,91.8418655 L87.8857132,91.8418655 C89.2684113,91.8418655 90.1216189,90.8730165 90.5933925,90.0572758 C91.7126,88.1245977 91.8782226,85.0047031 90.9447132,83.3782416 C90.5758264,82.7407088 90.0915057,82.4194325 89.4992792,82.4169225 L89.4917509,82.4169225 C88.8292604,82.4169225 88.3223547,82.6202302 87.9409208,83.0343755 C87.0274868,84.0358541 87.1855811,85.9057829 87.1880906,85.9233527 L86.4126755,85.9936319 C86.4051472,85.9032729 86.2244679,83.7622672 87.3712792,82.5097915 C87.8982604,81.932498 88.6109396,81.6388313 89.4917509,81.6388313 L89.4992792,81.6388313 C90.3775811,81.6413413 91.1103358,82.110706 91.6147321,82.991706 C92.6887698,84.8566148 92.528166,88.272686 91.2659208,90.4463214 C90.4428264,91.8694752 89.2734302,92.6199567 87.8857132,92.6199567" id="Fill-29" fill="#021014"></path>
            <path d="M159.561923,99.7362279 C159.561923,99.7362279 153.376168,140.829481 118.47747,140.829481 C98.1736396,140.829481 90.085734,136.228704 90.085734,92.9141254 C90.085734,60.8642991 91.8448472,42.4335783 91.8448472,36.7233932 C91.8448472,28.7843533 95.5663377,27.5469373 100.502394,27.5469373 C104.519998,27.5469373 100.675545,30.7521709 104.412092,34.4895185 C107.61413,31.2867949 127.850206,27.5469373 137.403621,27.5469373 C147.714885,27.5469373 156.307187,34.2485613 156.307187,51.3841368 C156.307187,68.5197123 159.561923,99.7362279 159.561923,99.7362279" id="Fill-31" fill="#E2B38C"></path>
            <polygon id="Fill-33" fill="#E2B38C" points="98.4918358 114.015456 98.4918358 224.441652 153.355591 224.441652 154.668025 99.7362279"></polygon>
            <path d="M123.724445,50.3836348 L123.385672,56.176649 C123.385672,56.176649 128.151087,59.346743 135.440992,59.0731561 C139.333125,58.9250678 143.569049,59.2363043 145.975596,60.6494182 L146.996936,59.4446319 L123.724445,50.3836348 Z" id="Fill-37" fill="#021014" transform="translate(135.191304, 55.516526) rotate(-15.000000) translate(-135.191304, -55.516526) "></path>
            <path d="M109.257809,50.3836348 L109.596583,56.176649 C109.596583,56.176649 104.831168,59.346743 97.5412623,59.0731561 C93.6491302,58.9250678 89.4132057,59.2363043 87.0066585,60.6494182 L85.9853189,59.4446319 L109.257809,50.3836348 Z" id="Fill-39" fill="#021014" transform="translate(97.790951, 55.516526) rotate(14.000000) translate(-97.790951, -55.516526) "></path>
            <polygon id="Fill-41" fill="#021014" points="109.181523 104.22481 109.214145 103.680146 112.067372 56.4926818 112.832749 56.5378613 110.009636 103.180662 121.226806 99.8449097 121.442617 100.577821"></polygon>
            <path d="M131.769691,66.8221365 L131.769691,66.8221365 C130.836181,66.8221365 130.080842,67.5776379 130.080842,68.5113473 L130.080842,74.9092647 C130.080842,75.8404641 130.836181,76.5984755 131.769691,76.5984755 C132.7032,76.5984755 133.45854,75.8404641 133.45854,74.9092647 L133.45854,68.5113473 C133.45854,67.5776379 132.7032,66.8221365 131.769691,66.8221365" id="Fill-43" fill="#021014" transform="translate(131.769691, 71.710306) rotate(28.000000) translate(-131.769691, -71.710306) "></path>
            <path d="M101.793981,65.8221365 L101.793981,65.8221365 C100.860472,65.8221365 100.105132,66.5776379 100.105132,67.5113473 L100.105132,73.9092647 C100.105132,74.8404641 100.860472,75.5984755 101.793981,75.5984755 C102.727491,75.5984755 103.48283,74.8404641 103.48283,73.9092647 L103.48283,67.5113473 C103.48283,66.5776379 102.727491,65.8221365 101.793981,65.8221365" id="Fill-45" fill="#021014" transform="translate(101.793981, 70.710306) rotate(21.000000) translate(-101.793981, -70.710306) "></path>
            <polygon id="Fill-47" fill="#021014" points="156.232406 48.7017302 154.666519 73.5027587 162.004104 80.7239467"></polygon>
            <path d="M153.786419,85.5157333 C153.771404,78.6409214 157.856762,73.0612547 162.908253,73.0512013 C167.959743,73.0411749 170.898291,78.6082917 170.913387,85.4805937 C170.925894,92.3554057 168.009932,97.9325624 162.958442,97.9451258 C157.906951,97.9551521 153.801517,92.3905453 153.786419,85.5157333" id="Fill-49" fill="#E2B38C"></path>
            <path d="M162.453042,94.5466108 C159.31123,94.5466108 157.607325,90.919702 157.602272,87.5011208 C157.594777,84.5393544 158.834438,82.5439271 160.678872,82.5414171 L160.6864,82.5414171 C161.645004,82.5414171 162.417909,82.8601835 162.99257,83.4876764 C164.242268,84.8505909 164.041513,87.1898843 164.033985,87.2902832 L163.25857,87.220004 C163.261079,87.1974142 163.43674,85.1191578 162.417909,84.0097504 C161.991306,83.5428957 161.426683,83.3169983 160.6864,83.3169983 L160.678872,83.3169983 C159.085381,83.3220182 158.375211,85.4203544 158.38023,87.5011208 C158.385249,90.5406963 159.815626,93.7685197 162.453042,93.7685197 L162.46057,93.7685197 C165.853325,93.7634997 167.502023,90.8142832 167.489475,84.755212 C167.484457,82.2603003 166.902268,80.1192946 165.810664,78.5656222 C164.811909,77.1474883 163.464343,76.3668872 162.011381,76.3668872 L162.003853,76.3668872 C159.075343,76.3744171 158.432928,80.1569442 158.407834,80.3175823 L157.642457,80.1945937 C157.647475,80.1494142 158.412853,75.5988359 162.003853,75.591306 L162.011381,75.591306 C163.725325,75.591306 165.29874,76.4898758 166.445551,78.1188473 C167.630004,79.8030382 168.257362,82.0996621 168.262468,84.752702 C168.277438,91.2434883 166.325098,94.5390809 162.46057,94.5466108 L162.453042,94.5466108 Z" id="Fill-51" fill="#021014"></path>
            <path d="M124.698858,136.636574 C135.752915,136.636574 145.976349,131.147266 152.04416,121.950731 L152.598745,122.314677 C146.405462,131.69946 135.976255,137.301717 124.698858,137.301717 L124.698858,136.636574 Z" id="Fill-53" fill="#021014"></path>
            <path d="M0.528301887,294.709309 C0.528301887,294.709309 8.90479245,222.670617 53.497434,178.068423 C65.4875094,166.075779 96.9633396,155.45107 96.9633396,155.45107 C96.9633396,155.45107 97.879283,171.966682 116.59966,171.966682 C146.145736,171.966682 155.643943,153.66899 155.643943,153.66899 C225.514113,153.66899 253.291038,286.300904 253.291038,286.300904 L190.213906,311.536158 L184.745849,259.991383 L187.857547,250.503691 C187.857547,250.503691 196.497528,316.583711 196.497528,411.646372 C196.497528,425.124919 197.51134,471.976047 197.51134,471.976047 L37.7557547,475.19132 L39.607717,305.652785 L39.6102264,305.524776 L39.1936604,306.794822 L0.528301887,294.709309 Z" id="Fill-55" fill="#FFFFFF"></path>
            <path d="M111.976105,112.158422 C116.1722,112.284327 120.090423,113.037338 123.730775,114.417455" id="Path" stroke="#000000" transform="translate(117.853440, 113.287939) rotate(4.000000) translate(-117.853440, -113.287939) "></path>
            <path d="M0,286.250609 C0,286.250609 8.3907321,214.104892 53.0591891,169.436435 C65.0696498,157.425974 96.5989945,146.78548 96.5989945,146.78548 C96.5989945,146.78548 97.5164952,163.325629 116.268701,163.325629 C145.86501,163.325629 155.379366,145.000753 155.379366,145.000753 C225.368327,145.000753 253.192478,277.829712 253.192478,277.829712 L190.008103,303.102456 L184.53075,251.481104 L187.647738,241.979316 C187.647738,241.979316 196.302409,308.157508 196.302409,403.361399 C196.302409,416.85997 197.317944,463.780703 197.317944,463.780703 L37.2907461,467.000753 L39.1458571,297.210343 L39.1483708,297.082144 L38.7310965,298.354076 L0,286.250609 Z" id="Fill-55" fill="#FFFFFF"></path>
            <path d="M121.585725,189.839966 C121.585725,189.839966 121.624218,169.837713 123.137218,150.443713 C124.436952,146.175193 126.758332,139.492344 126.758332,139.492344 L123.736332,136.221344 L116.438218,146.843713 L100.00575,120.831823 L96.8132635,123.934839 L101.220218,131.070713 L91.6182185,148.488713 L95.8812185,164.830713 L101.528294,184.400438 L121.585725,189.839966 Z" id="Fill-1" fill="#F2C9A8" transform="translate(109.188275, 155.335894) scale(-1, 1) rotate(-26.000000) translate(-109.188275, -155.335894) "></path>
            <line x1="119.916399" y1="129.268619" x2="130.115654" y2="149.117692" id="Stroke-4" stroke="#021014" stroke-width="0.727" transform="translate(125.095654, 139.135692) scale(-1, 1) rotate(-26.000000) translate(-125.095654, -139.135692) "></line>
            <line x1="119.834868" y1="141.847132" x2="125.776868" y2="154.040132" id="Stroke-6" stroke="#021014" stroke-width="0.727" transform="translate(122.805868, 147.943632) scale(-1, 1) rotate(-26.000000) translate(-122.805868, -147.943632) "></line>
            <line x1="121.396341" y1="148.040715" x2="126.868341" y2="159.268715" id="Stroke-8" stroke="#021014" stroke-width="0.727" transform="translate(124.132341, 153.654715) scale(-1, 1) rotate(-26.000000) translate(-124.132341, -153.654715) "></line>
            <polygon id="Path-2" fill="#F9F9F9" points="83.4309445 174.3747 109.129028 178.403509 96.3268244 212.000753 54.418335 212.000753"></polygon>
        </g>
    </g>
</svg>