<?xml version="1.0" encoding="UTF-8"?>
<svg width="550px" height="520px" viewBox="0 0 550 520" version="1.1" xmlns="http://www.w3.org/2000/svg" xmlns:xlink="http://www.w3.org/1999/xlink">
    <title>Artboard</title>
    <defs>
        <path d="M8.27,5.898 L0,42.818 L20.533,47.255 C20.533,47.255 25.603,30.499 25.095,20.944 L25.095,20.944 C24.329,6.53 18.477,1.619 15.676,-1.42108547e-14 L15.676,-1.42108547e-14 L8.27,5.898 Z" id="path-1"></path>
        <polygon id="path-3" points="0 169.935 150.46 169.935 150.46 0 0 0"></polygon>
    </defs>
    <g id="Artboard" stroke="none" stroke-width="1" fill="none" fill-rule="evenodd">
        <g id="Group-9" transform="translate(52.000000, 274.000000)">
            <g id="Group-34" transform="translate(29.110500, 20.958098)">
                <path d="M25.5179,94.4182021 C25.5179,94.4182021 20.5649,100.566202 20.1129,101.127202 L4.8639,88.8432021 C6.5379,86.7652021 11.9399,90.6362021 15.3589,91.3682021 C16.4059,91.5932021 17.5869,91.0202021 18.7179,90.1242021 C21.2219,88.1392021 25.5179,94.4182021 25.5179,94.4182021" id="Fill-4" fill="#4E585B"></path>
                <path d="M18.3962,102.048902 L4.3292,90.7159021 C4.0032,90.4539021 3.9512,89.9759021 4.2142,89.6499021 L4.8642,88.8429021 L20.1132,101.126902 L19.4632,101.933902 C19.2002,102.259902 18.7222,102.311902 18.3962,102.048902" id="Fill-6" fill="#003E3E"></path>
                <polygon id="Fill-8" fill="#021014" points="18.25 105.270202 0 90.4252021 1.893 88.0972021 20.143 102.942202"></polygon>
                <path d="M22.8808,97.3969021 C22.8808,97.3969021 17.9278,103.544902 17.4758,104.105902 L2.2268,91.8219021 C3.9008,89.7439021 9.3028,93.6149021 12.7218,94.3469021 C13.7688,94.5719021 14.9498,93.9989021 16.0808,93.1029021 C18.5848,91.1179021 22.8808,97.3969021 22.8808,97.3969021" id="Fill-10" fill="#818284"></path>
                <path d="M36.3414,51.0655021 C36.3414,51.0655021 30.9994,53.0925021 29.6834,56.1365021 C28.3684,59.1795021 38.6354,56.7475021 38.6354,56.7475021 L36.3414,51.0655021 Z" id="Fill-12" fill="#A17869"></path>
                <path d="M33.7159,52.2026021 C33.7159,52.2026021 28.3739,54.2296021 27.0579,57.2736021 C25.7429,60.3166021 36.0099,57.8846021 36.0099,57.8846021 L33.7159,52.2026021 Z" id="Fill-14" fill="#A17869"></path>
                <path d="M63.4197,54.3408021 C63.4197,54.3408021 64.7137,72.8848021 56.5587,72.8848021 C48.3407,72.8848021 37.3297,72.2558021 31.4367,72.1338021 C26.0497,89.6208021 25.5507,94.6478021 25.5507,94.6478021 L18.9597,91.3288021 C18.9597,91.3288021 20.4237,66.0588021 24.3397,63.3628021 C28.3727,60.2158021 46.3547,59.7598021 46.7247,59.6488021 C47.1397,59.0408021 48.1027,54.3408021 48.1027,54.3408021 L63.4197,54.3408021 Z" id="Fill-16" fill="#45769B"></path>
                <path d="M59.8983,4.84360205 C58.2683,2.33760205 54.1863,0.667602052 50.8083,2.86360205 C49.1683,3.93060205 48.6223,5.30960205 48.1093,6.61260205 C46.8793,9.73360205 45.4183,13.1006021 45.4183,13.1006021 L48.3643,12.9106021 C48.3643,12.9106021 48.3573,13.1886021 48.3623,13.6316021 C48.3703,14.3966021 48.4133,15.6546021 48.5853,16.8266021 L51.1203,17.6576021 C51.1203,17.6576021 50.7123,18.3416021 48.9823,18.5306021 C49.0703,18.7696021 49.1703,18.9836021 49.2843,19.1586021 C49.8863,20.0846021 51.4603,20.6886021 53.2223,20.7556021 C54.7073,20.8146021 56.3223,20.4916021 57.6013,19.6606021 C60.8193,17.5686021 63.5643,10.4846021 59.8983,4.84360205" id="Fill-18" fill="#A17869"></path>
                <path d="M15.7591,105.027602 L1.6921,93.6946021 C1.3661,93.4326021 1.3141,92.9546021 1.5771,92.6286021 L2.2271,91.8216021 L17.4761,104.105602 L16.8261,104.912602 C16.5631,105.238602 16.0851,105.290602 15.7591,105.027602" id="Fill-20" fill="#003E3E"></path>
                <path d="M70.1559,50.5746021 C70.1559,50.5746021 71.7689,72.1586021 61.6019,72.1586021 C51.3579,72.1586021 37.6319,71.4256021 30.2859,71.2846021 C24.5159,92.0096021 22.9479,97.4896021 22.9479,97.4896021 L14.7309,93.6266021 C14.7309,93.6266021 16.5569,64.2136021 21.4379,61.0756021 C26.4659,57.4126021 48.8819,56.8816021 49.3429,56.7526021 C49.8609,56.0446021 51.0619,50.5746021 51.0619,50.5746021 L70.1559,50.5746021 Z" id="Fill-22" fill="#89ACCC"></path>
                <path d="M59.8289,14.3118021 C60.5479,22.3228021 63.4819,24.5868021 63.4819,24.5868021 L55.1849,31.0978021 C55.1849,31.0978021 54.1759,30.8988021 54.4499,29.5808021 C54.9399,27.2328021 54.6929,21.5948021 51.8919,18.9598021 C51.8919,18.9598021 59.5309,10.9898021 59.8289,14.3118021" id="Fill-24" fill="#A17869"></path>
                <path d="M51.1915,4.58600205 C52.0385,4.59900205 52.2355,5.89100205 52.9895,6.27800205 C53.5155,6.54800205 54.0615,6.61500205 55.0405,6.90900205 C56.2925,7.28400205 54.6505,7.65700205 55.9875,9.71300205 C57.4685,11.9910021 59.2975,10.5380021 58.9965,14.9830021 C58.9145,16.2050021 60.2265,17.0340021 60.2265,17.0340021 C61.3415,16.3090021 65.1335,8.12500205 62.3755,4.86400205 C61.0485,3.29400205 60.7715,1.35100205 58.7935,0.543002052 C57.6025,0.0570020522 56.8435,-0.116997948 55.6115,0.253002052 C54.3795,0.623002052 52.5145,0 51.2275,0 C45.8365,-0.0029979478 45.0185,3.28400205 46.8015,4.29500205 C46.0405,5.76200205 48.2485,6.25900205 49.0275,5.76800205 C49.5985,5.40700205 49.5855,4.56100205 51.1915,4.58600205" id="Fill-26" fill="#021014"></path>
                <path d="M56.6327,9.96810205 C56.9737,8.91610205 57.9487,8.29010205 58.8087,8.56910205 C59.6697,8.84810205 60.0907,9.92710205 59.7497,10.9791021 C59.4077,12.0311021 58.4337,12.6581021 57.5727,12.3781021 C56.7127,12.0991021 56.2917,11.0201021 56.6327,9.96810205" id="Fill-28" fill="#A17869"></path>
                <path d="M54.5094,26.6631021 L61.4654,21.1151021 C64.2664,22.7331021 70.1174,27.6451021 70.8844,42.0591021 C71.3924,51.6141021 66.3234,68.3701021 66.3234,68.3701021 L45.7894,63.9331021 L54.5094,26.6631021 Z" id="Fill-30" fill="#611A35"></path>
                <path d="M59.3745,46.1209021 C59.3745,46.1209021 57.1435,56.0159021 54.7255,56.3069021 C49.9905,56.8759021 36.0105,56.4869021 36.0105,56.4869021 L36.3175,50.7969021 C36.3175,50.7969021 46.4255,50.6159021 50.2315,50.1579021 C51.4095,47.3169021 53.8245,40.2279021 53.8245,40.2279021 L59.3745,46.1209021 Z" id="Fill-32" fill="#021014"></path>
            </g>
            <g id="Group-37" transform="translate(74.900000, 42.073000)">
                <mask id="mask-2" fill="white">
                    <use xlink:href="#path-1"></use>
                </mask>
                <g id="Clip-36"></g>
                <polygon id="Fill-35" fill="#F8E3A2" mask="url(#mask-2)" points="17.3552 1.0647 10.2772 7.0367 3.0522 41.0707 22.9632 45.3047 22.0662 49.4557 -2.6118 44.1227 5.7292 5.5237 15.8272 -1.4093"></polygon>
            </g>
            <g id="Group-78">
                <path d="M94.2201,59.2817 C94.2201,59.2817 86.7271,79.6297 84.5601,80.0517 C80.3181,80.8777 62.8861,79.2217 62.8861,79.2217 L62.8261,73.1607 C62.8261,73.1607 75.7451,71.9697 79.1551,71.3057 C80.0501,68.2317 90.5031,44.6087 90.5031,44.6087 L94.2201,59.2817 Z" id="Fill-38" fill="#611A35"></path>
                <path d="M63.4311,96.1654 C63.4311,96.1654 61.5471,91.1404 68.4941,91.1404 C75.4401,91.1404 72.5031,96.0684 72.5031,96.0684 L63.4311,96.1654 Z" id="Fill-40" fill="#195151"></path>
                <polygon id="Fill-42" fill="#021014" points="44.7228 129.2068 26.4738 114.3618 28.3668 112.0338 46.6158 126.8788"></polygon>
                <polygon id="Fill-44" fill="#021014" points="97.8957 78.2314 69.3817 78.2314 69.3817 95.9214 94.9737 95.2474"></polygon>
                <path d="M56.8586,110.5525 L56.8526,108.5525 L92.1486,108.4575 C93.4156,102.0635 101.8086,59.7015 102.7836,55.0435 C103.0826,53.6125 103.8356,52.5015 105.0206,51.7425 C107.9096,49.8965 112.3916,50.8995 112.5816,50.9415 L112.1336,52.8905 C112.0946,52.8825 108.2726,52.0345 106.0946,53.4305 C105.3716,53.8945 104.9276,54.5565 104.7406,55.4535 C103.6946,60.4575 94.0476,109.1585 93.9506,109.6505 L93.7926,110.4535 L56.8586,110.5525 Z" id="Fill-46" fill="#929497"></path>
                <path d="M55.967,128.8162 L55.856,82.7182 C55.971,80.5012 57.389,76.3762 61.937,76.2502 C66.725,76.1192 98.033,76.2442 99.363,76.2502 L99.356,78.2502 C99.03,78.2492 66.748,78.1162 61.991,78.2502 C58.16,78.3552 57.864,82.5922 57.854,82.7722 L57.967,128.8122 L55.967,128.8162 Z" id="Fill-48" fill="#929497"></path>
                <path d="M60.4933,109.5818 C60.2513,101.2158 61.2363,96.4928 63.5073,95.1438 C64.4313,94.5928 65.2683,94.7618 65.7023,94.9208 L95.6523,94.9208 L95.6523,96.9208 L65.2263,96.9208 L64.9933,96.7848 C64.9693,96.7758 64.7653,96.7058 64.4933,96.8848 C63.9483,97.2428 62.1933,99.2128 62.4933,109.5228 L60.4933,109.5818 Z" id="Fill-50" fill="#929497"></path>
                <polygon id="Fill-52" fill="#929497" points="45.0529 125.617 43.3189 124.619 56.3259 102.003 60.7869 102.003 60.7869 104.003 57.4829 104.003"></polygon>
                <path d="M92.9699,107.824 C92.1249,107.824 91.4389,108.618 91.4389,109.595 C91.4389,110.571 92.1249,111.365 92.9699,111.365 C93.8149,111.365 94.5009,110.571 94.5009,109.595 C94.5009,108.618 93.8149,107.824 92.9699,107.824 M92.9699,113.365 C91.0229,113.365 89.4389,111.674 89.4389,109.595 C89.4389,107.515 91.0229,105.824 92.9699,105.824 C94.9169,105.824 96.5009,107.515 96.5009,109.595 C96.5009,111.674 94.9169,113.365 92.9699,113.365" id="Fill-54" fill="#003E3E"></path>
                <mask id="mask-4" fill="white">
                    <use xlink:href="#path-3"></use>
                </mask>
                <g id="Clip-57"></g>
                <polygon id="Fill-56" fill="#003E3E" mask="url(#mask-4)" points="91.585 106.824 93.585 106.824 93.585 83.889 91.585 83.889"></polygon>
                <polygon id="Fill-58" fill="#003E3E" mask="url(#mask-4)" points="91.585 135.486 93.585 135.486 93.585 112.365 91.585 112.365"></polygon>
                <polygon id="Fill-59" fill="#003E3E" mask="url(#mask-4)" points="69.396 110.595 90.353 110.595 90.353 108.595 69.396 108.595"></polygon>
                <polygon id="Fill-60" fill="#003E3E" mask="url(#mask-4)" points="95.416 110.595 116.544 110.595 116.544 108.595 95.416 108.595"></polygon>
                <polygon id="Fill-61" fill="#003E3E" mask="url(#mask-4)" points="89.9728 108.3953 74.8478 92.5203 76.2948 91.1413 91.4198 107.0163"></polygon>
                <polygon id="Fill-62" fill="#003E3E" mask="url(#mask-4)" points="108.8752 128.2342 93.6262 112.2302 95.0732 110.8512 110.3222 126.8552"></polygon>
                <polygon id="Fill-63" fill="#003E3E" mask="url(#mask-4)" points="95.1965 108.3953 93.7495 107.0163 108.8755 91.1413 110.3225 92.5203"></polygon>
                <polygon id="Fill-64" fill="#003E3E" mask="url(#mask-4)" points="76.2951 128.2342 74.8481 126.8552 90.0961 110.8512 91.5431 112.2302"></polygon>
                <path d="M92.5851,84.9578 C80.2201,84.9578 70.1591,96.0518 70.1591,109.6878 C70.1591,123.3248 80.2201,134.4188 92.5851,134.4188 C104.9501,134.4188 115.0111,123.3248 115.0111,109.6878 C115.0111,96.0518 104.9501,84.9578 92.5851,84.9578 M92.5851,138.4188 C78.0141,138.4188 66.1591,125.5298 66.1591,109.6878 C66.1591,93.8468 78.0141,80.9578 92.5851,80.9578 C107.1561,80.9578 119.0111,93.8468 119.0111,109.6878 C119.0111,125.5298 107.1561,138.4188 92.5851,138.4188" id="Fill-65" fill="#079276" mask="url(#mask-4)"></path>
                <polygon id="Fill-66" fill="#079276" mask="url(#mask-4)" points="56.352 127.602 57.352 127.602 57.352 120.987 56.352 120.987"></polygon>
                <path d="M55.4323,129.1563 C55.4323,130.0143 56.0683,130.7103 56.8523,130.7103 C57.6363,130.7103 58.2723,130.0143 58.2723,129.1563 C58.2723,128.2983 57.6363,127.6023 56.8523,127.6023 C56.0683,127.6023 55.4323,128.2983 55.4323,129.1563" id="Fill-67" fill="#195151" mask="url(#mask-4)"></path>
                <path d="M56.8517,128.1023 C56.3447,128.1023 55.9317,128.5753 55.9317,129.1563 C55.9317,129.7373 56.3447,130.2093 56.8517,130.2093 C57.3587,130.2093 57.7717,129.7373 57.7717,129.1563 C57.7717,128.5753 57.3587,128.1023 56.8517,128.1023 M56.8517,131.2093 C55.7927,131.2093 54.9317,130.2893 54.9317,129.1563 C54.9317,128.0233 55.7927,127.1023 56.8517,127.1023 C57.9107,127.1023 58.7717,128.0233 58.7717,129.1563 C58.7717,130.2893 57.9107,131.2093 56.8517,131.2093" id="Fill-68" fill="#079276" mask="url(#mask-4)"></path>
                <polygon id="Fill-69" fill="#079276" mask="url(#mask-4)" points="56.352 137.683 57.352 137.683 57.352 130.709 56.352 130.709"></polygon>
                <polygon id="Fill-70" fill="#079276" mask="url(#mask-4)" points="49.348 129.656 55.394 129.656 55.394 128.656 49.348 128.656"></polygon>
                <polygon id="Fill-71" fill="#079276" mask="url(#mask-4)" points="58.234 129.656 64.606 129.656 64.606 128.656 58.234 128.656"></polygon>
                <polygon id="Fill-72" fill="#079276" mask="url(#mask-4)" points="55.301 128.5896 50.669 124.3386 51.345 123.6026 55.977 127.8536"></polygon>
                <polygon id="Fill-73" fill="#079276" mask="url(#mask-4)" points="62.3596 135.0682 57.4766 130.5872 58.1526 129.8502 63.0356 134.3322"></polygon>
                <polygon id="Fill-74" fill="#079276" mask="url(#mask-4)" points="58.4035 128.4109 57.7275 127.6749 62.3595 123.4239 63.0355 124.1599"></polygon>
                <polygon id="Fill-75" fill="#079276" mask="url(#mask-4)" points="51.3449 134.8895 50.6689 134.1535 55.5519 129.6715 56.2279 130.4085"></polygon>
                <path d="M56.9767,121.9871 C53.3217,121.9871 50.3477,125.2831 50.3477,129.3351 C50.3477,133.3861 53.3217,136.6831 56.9767,136.6831 C60.6317,136.6831 63.6057,133.3861 63.6057,129.3351 C63.6057,125.2831 60.6317,121.9871 56.9767,121.9871 M56.9767,138.6831 C52.2187,138.6831 48.3477,134.4901 48.3477,129.3351 C48.3477,124.1801 52.2187,119.9871 56.9767,119.9871 C61.7347,119.9871 65.6057,124.1801 65.6057,129.3351 C65.6057,134.4901 61.7347,138.6831 56.9767,138.6831" id="Fill-76" fill="#079276" mask="url(#mask-4)"></path>
                <path d="M111.6538,49.5465 L111.3288,53.9475 C111.3288,53.9475 119.8068,55.8575 120.2978,52.3965 C120.7898,48.9355 111.6538,49.5465 111.6538,49.5465" id="Fill-77" fill="#021014" mask="url(#mask-4)"></path>
            </g>
        </g>
    </g>
</svg>