<?xml version="1.0" encoding="UTF-8"?>
<svg width="550px" height="520px" viewBox="0 0 550 520" version="1.1" xmlns="http://www.w3.org/2000/svg" xmlns:xlink="http://www.w3.org/1999/xlink">
    <title>Artboard</title>
    <g id="Artboard" stroke="none" stroke-width="1" fill="none" fill-rule="evenodd">
        <g id="Group-4" transform="translate(235.155400, 64.631014)">
            <path d="M10.2227,44.1687769 C11.2627,44.9537769 11.3917,46.6907769 11.3917,46.6907769 C11.3917,46.6907769 9.8347,47.1557769 8.7947,46.3707769 C7.7547,45.5857769 7.6257,43.8477769 7.6257,43.8477769 C7.6257,43.8477769 9.1827,43.3837769 10.2227,44.1687769" id="Fill-1" fill="#079276"></path>
            <path d="M2.572,59.4206769 C3.778,59.8476769 4.367,61.4706769 4.367,61.4706769 C4.367,61.4706769 3.001,62.4006769 1.795,61.9736769 C0.589,61.5466769 0,59.9236769 0,59.9236769 C0,59.9236769 1.366,58.9936769 2.572,59.4206769" id="Fill-3" fill="#079276"></path>
            <path d="M11.6708,53.2017769 C12.3618,52.7947769 13.2928,53.1957769 13.2928,53.1957769 C13.2928,53.1957769 13.1028,54.2577769 12.4118,54.6647769 C11.7208,55.0727769 10.7898,54.6717769 10.7898,54.6717769 C10.7898,54.6717769 10.9798,53.6087769 11.6708,53.2017769" id="Fill-5" fill="#079276"></path>
            <path d="M9.9541,58.1230769 C10.5261,58.7070769 10.4581,59.7860769 10.4581,59.7860769 C10.4581,59.7860769 9.4631,59.9180769 8.8911,59.3340769 C8.3191,58.7500769 8.3871,57.6710769 8.3871,57.6710769 C8.3871,57.6710769 9.3821,57.5390769 9.9541,58.1230769" id="Fill-7" fill="#079276"></path>
            <path d="M2.671,63.1618769 C3.424,62.9108769 4.262,63.5038769 4.262,63.5038769 C4.262,63.5038769 3.88,64.5038769 3.128,64.7548769 C2.375,65.0058769 1.537,64.4128769 1.537,64.4128769 C1.537,64.4128769 1.918,63.4128769 2.671,63.1618769" id="Fill-9" fill="#079276"></path>
            <path d="M9.0481,61.8666769 C9.6421,61.6686769 10.3041,62.1366769 10.3041,62.1366769 C10.3041,62.1366769 10.0021,62.9266769 9.4081,63.1246769 C8.8141,63.3226769 8.1531,62.8546769 8.1531,62.8546769 C8.1531,62.8546769 8.4541,62.0646769 9.0481,61.8666769" id="Fill-11" fill="#079276"></path>
            <path d="M1.7991,95.7483769 C2.2281,103.050377 20.9311,107.323377 43.5731,105.292377 C66.2151,103.260377 84.2231,95.6943769 83.7931,88.3913769 C83.3641,81.0893769 64.6621,76.8163769 42.0191,78.8483769 C19.3771,80.8793769 1.3701,88.4463769 1.7991,95.7483769" id="Fill-16" fill="#929497"></path>
            <path d="M79.8374,86.5813769 C79.8374,86.5813769 88.2434,1.91637692 46.7064,1.91637692 C5.1694,1.91637692 13.5754,95.1623769 13.5754,95.1623769 L79.8374,86.5813769 Z" id="Fill-18" fill="#89D5C6"></path>
            <path d="M53.6029,3.34037692 C53.6029,3.34037692 33.1939,-4.94762308 21.4079,4.58637692 C2.8639,17.5533769 4.5929,83.3393769 4.5929,83.3393769 L13.7069,95.1623769 C13.7069,95.1623769 12.2929,30.1433769 26.4369,15.4553769 C40.5809,0.767376924 53.6029,3.34037692 53.6029,3.34037692" id="Fill-20" fill="#195151"></path>
            <path d="M31.6829,62.7111769 C31.5709,55.4381769 31.7289,48.1711769 31.9299,40.9041769 C33.6359,41.4081769 35.2929,42.0431769 36.7069,43.1601769 C41.5579,46.7141769 38.5299,52.3971769 34.1389,54.6951769 C34.1389,54.6951769 34.2629,54.2491769 34.2629,54.2491769 C35.8019,57.0461769 37.2989,59.8671769 38.7579,62.7111769 C36.9749,59.9341769 35.2349,57.1331769 33.5379,54.3071769 C35.9329,52.8181769 38.5159,50.3121769 38.2719,47.3031769 C37.9339,44.4341769 34.7529,42.8541769 32.2629,42.0031769 C32.2629,42.0031769 32.8649,41.5611769 32.8649,41.5611769 C32.5929,48.6171769 32.2599,55.6701769 31.6829,62.7111769" id="Fill-22" fill="#003E3E"></path>
            <polygon id="Fill-24" fill="#003E3E" points="52.5152 43.5835769 40.3612 42.3425769 52.5762 42.5855769"></polygon>
            <path d="M47.8303,42.6698769 C47.8533,45.8288769 47.8483,48.9868769 47.8153,52.1438769 C47.7823,55.2378769 47.9153,58.7398769 47.0013,61.5868769 C46.5843,58.4218769 46.7213,55.2708769 47.0163,52.1128769 C47.3203,49.0338769 47.2933,45.5478769 47.8303,42.6698769" id="Fill-26" fill="#003E3E"></path>
            <polygon id="Fill-28" fill="#003E3E" points="43.0209 61.1692769 52.8859 60.5742769 43.1319 62.1632769"></polygon>
            <path d="M56.8379,63.8797769 C56.6629,56.8147769 56.8019,49.7557769 57.0519,42.6967769 C57.0519,42.6967769 57.0769,42.0467769 57.0769,42.0467769 L57.6769,42.2387769 C65.7329,44.6217769 66.5269,51.5867769 59.1359,55.5797769 C61.4319,53.9607769 63.8309,51.4307769 63.5209,48.4627769 C63.1029,45.5687769 59.9469,44.0107769 57.4129,43.1887769 C57.4129,43.1887769 58.0379,42.7297769 58.0379,42.7297769 C57.8159,49.7897769 57.4839,56.8427769 56.8379,63.8797769" id="Fill-30" fill="#003E3E"></path>
            <polygon id="Fill-32" fill="#079276" points="8.6856 98.9957769 8.1866 98.9687769 11.5426 34.8967769 12.0416 34.9247769"></polygon>
            <polygon id="Fill-34" fill="#079276" points="9.1202 93.2760769 8.6342 93.1590769 19.0972 50.0010769 19.5832 50.1180769"></polygon>
            <polygon id="Fill-36" fill="#079276" points="8.7735 97.3453769 8.2785 97.2733769 17.3955 34.8763769 17.8905 34.9493769"></polygon>
            <path d="M17.9586,63.2492769 C19.2256,63.1772769 20.3186,64.4612769 20.3186,64.4612769 C20.3186,64.4612769 19.3566,65.8612769 18.0896,65.9332769 C16.8216,66.0042769 15.7286,64.7212769 15.7286,64.7212769 C15.7286,64.7212769 16.6916,63.3212769 17.9586,63.2492769" id="Fill-38" fill="#079276"></path>
            <path d="M14.7943,58.8012769 C15.4693,58.3632769 16.4153,58.7232769 16.4153,58.7232769 C16.4153,58.7232769 16.2663,59.7932769 15.5913,60.2302769 C14.9153,60.6682769 13.9703,60.3082769 13.9703,60.3082769 C13.9703,60.3082769 14.1193,59.2392769 14.7943,58.8012769" id="Fill-40" fill="#079276"></path>
            <path d="M15.5876,69.5347769 C16.3406,69.2837769 17.1786,69.8767769 17.1786,69.8767769 C17.1786,69.8767769 16.7966,70.8767769 16.0446,71.1277769 C15.2916,71.3787769 14.4536,70.7857769 14.4536,70.7857769 C14.4536,70.7857769 14.8346,69.7857769 15.5876,69.5347769" id="Fill-42" fill="#079276"></path>
            <path d="M25.64,37.3487769 C25.615,40.5187769 23.213,43.0677769 20.274,43.0407769 C17.335,43.0147769 14.973,40.4227769 14.998,37.2517769 C15.022,34.0817769 17.425,31.5327769 20.364,31.5597769 C23.302,31.5867769 25.665,34.1787769 25.64,37.3487769" id="Fill-44" fill="#E34B4B"></path>
            <path d="M22.5338,37.3205769 C22.5238,38.6405769 21.5238,39.7015769 20.2998,39.6895769 C19.0768,39.6785769 18.0938,38.5995769 18.1038,37.2805769 C18.1138,35.9605769 19.1138,34.8995769 20.3378,34.9105769 C21.5608,34.9215769 22.5438,36.0005769 22.5338,37.3205769" id="Fill-46" fill="#FDC50E"></path>
            <path d="M17.8915,38.8357769 C17.8695,41.6997769 15.6985,44.0017769 13.0445,43.9777769 C10.3895,43.9537769 8.2555,41.6127769 8.2775,38.7487769 C8.3005,35.8847769 10.4705,33.5827769 13.1255,33.6067769 C15.7795,33.6307769 17.9135,35.9717769 17.8915,38.8357769" id="Fill-48" fill="#E34B4B"></path>
            <path d="M15.0855,38.8102769 C15.0765,40.0022769 14.1725,40.9602769 13.0675,40.9502769 C11.9625,40.9402769 11.0745,39.9662769 11.0835,38.7742769 C11.0925,37.5812769 11.9965,36.6232769 13.1015,36.6332769 C14.2065,36.6432769 15.0945,37.6182769 15.0855,38.8102769" id="Fill-50" fill="#FDC50E"></path>
            <path d="M25.7615,48.8343769 C25.7365,52.0773769 23.2785,54.6843769 20.2725,54.6563769 C17.2665,54.6293769 14.8505,51.9783769 14.8755,48.7353769 C14.9015,45.4923769 17.3585,42.8863769 20.3645,42.9133769 C23.3705,42.9403769 25.7865,45.5913769 25.7615,48.8343769" id="Fill-52" fill="#E34B4B"></path>
            <path d="M22.5844,48.8054769 C22.5734,50.1554769 21.5514,51.2404769 20.2994,51.2294769 C19.0484,51.2174769 18.0424,50.1144769 18.0534,48.7644769 C18.0634,47.4144769 19.0864,46.3294769 20.3374,46.3404769 C21.5894,46.3524769 22.5954,47.4554769 22.5844,48.8054769" id="Fill-54" fill="#FDC50E"></path>
            <path d="M26.7282,56.9772769 C26.7052,59.9532769 24.4502,62.3452769 21.6912,62.3202769 C18.9332,62.2952769 16.7162,59.8622769 16.7392,56.8862769 C16.7622,53.9102769 19.0172,51.5182769 21.7752,51.5432769 C24.5342,51.5682769 26.7512,54.0012769 26.7282,56.9772769" id="Fill-56" fill="#E34B4B"></path>
            <path d="M23.8127,56.9507769 C23.8027,58.1897769 22.8647,59.1847769 21.7157,59.1747769 C20.5677,59.1647769 19.6447,58.1517769 19.6547,56.9127769 C19.6637,55.6737769 20.6027,54.6787769 21.7507,54.6887769 C22.8997,54.6997769 23.8227,55.7117769 23.8127,56.9507769" id="Fill-58" fill="#FDC50E"></path>
            <path d="M15.7846,51.3264769 C15.7616,54.3024769 13.5066,56.6944769 10.7476,56.6694769 C7.9896,56.6444769 5.7726,54.2114769 5.7956,51.2354769 C5.8186,48.2594769 8.0736,45.8674769 10.8316,45.8924769 C13.5906,45.9174769 15.8076,48.3504769 15.7846,51.3264769" id="Fill-60" fill="#E34B4B"></path>
            <path d="M12.8691,51.2999769 C12.8591,52.5389769 11.9211,53.5339769 10.7721,53.5239769 C9.6241,53.5139769 8.7011,52.5009769 8.7111,51.2619769 C8.7211,50.0229769 9.6591,49.0279769 10.8071,49.0379769 C11.9561,49.0489769 12.8791,50.0609769 12.8691,51.2999769" id="Fill-62" fill="#FDC50E"></path>
            <path d="M11.7011,98.9493769 L6.0531,98.9493769 C4.2361,98.9493769 2.7631,97.4763769 2.7631,95.6593769 L2.7631,78.3423769 L14.9911,78.3423769 L14.9911,95.6593769 C14.9911,97.4763769 13.5181,98.9493769 11.7011,98.9493769" id="Fill-64" fill="#862677"></path>
        </g>
    </g>
</svg>