<?xml version="1.0" encoding="UTF-8"?>
<svg width="550px" height="520px" viewBox="0 0 550 520" version="1.1" xmlns="http://www.w3.org/2000/svg" xmlns:xlink="http://www.w3.org/1999/xlink">
    <title>family-picture-LRG</title>
    <defs>
        <polygon id="path-1" points="0 -2.68757587e-14 35.759441 -2.68757587e-14 35.759441 38.4929063 0 38.4929063"></polygon>
    </defs>
    <g id="family-picture-LRG" stroke="none" stroke-width="1" fill="none" fill-rule="evenodd">
        <g id="Group" transform="translate(374.803171, 225.918164)">
            <g id="family-picture-kid-4-older" transform="translate(36.405858, 113.000000) scale(-1, 1) translate(-36.405858, -113.000000) ">
                <g id="Group-48" transform="translate(1.891213, 6.619247)">
                    <path d="M22.7310611,194.630916 C22.1873372,193.88105 21.2956301,193.464038 20.3698812,193.499025 L10.9062494,193.859301 C10.113831,193.87254 9.46798159,194.498531 9.43204854,195.290004 C9.27318661,198.800096 8.87981423,207.795653 8.91101925,209.742657 L45.6478393,209.151653 C45.5825925,205.102565 38.137831,202.052983 32.0311029,200.4029 C26.5324,198.916406 23.8657891,196.195895 22.7310611,194.630916" id="Fill-1" fill="#36358A"></path>
                    <polygon id="Fill-3" fill="#4F4F99" points="8.95470628 212.466477 45.6915264 211.875473 45.6480285 209.15118 8.91120837 209.74313"></polygon>
                    <path d="M22.3428895,176.630158 L21.0672661,193.753204 L9.83440418,195.270903 C9.83440418,195.270903 8.60700669,180.010702 8.51150042,178.498677 C14.4489649,177.696803 22.3428895,176.630158 22.3428895,176.630158" id="Fill-5" fill="#B78665"></path>
                    <path d="M9.83393138,195.271281 C9.90579749,195.800821 12.4778477,195.890654 15.5803833,195.47175 C18.6819732,195.0519 21.1386594,194.283122 21.0667933,193.753582 C20.9949272,193.224043 18.422877,193.13421 15.321287,193.553114 C12.2187515,193.972963 9.76206527,194.741741 9.83393138,195.271281" id="Fill-7" fill="#B78665"></path>
                    <path d="M43.6111916,95.4823523 C43.6111916,95.4823523 37.4373255,143.126746 37.5006812,146.412729 C37.5961874,151.307189 21.851836,188.717281 21.851836,188.717281 L7.9268318,187.542838 C7.9268318,187.542838 5.7803046,170.359273 11.6629238,146.759767 C-0.878657741,116.699875 8.13297406,104.23867 8.27103264,97.704528 L43.6111916,95.4823523 Z" id="Fill-9" fill="#079276"></path>
                    <path d="M50.6089649,94.8141866 C50.6089649,94.8141866 55.0504795,99.3010904 58.1416678,103.025835 C60.004513,105.270705 60.5255423,106.879182 59.5279272,107.578931 C58.8064293,108.084831 57.6168561,106.303308 57.3322285,105.786061 L57.2367222,105.816321 C57.2367222,105.816321 58.6210904,108.693802 57.013559,109.258329 C55.6452661,109.738697 54.5256678,106.531199 54.5256678,106.531199 L54.2523874,106.589827 C54.2523874,106.589827 55.6897096,109.779358 53.9516845,110.146254 C52.830195,110.383601 51.5129649,107.680111 51.1394502,106.811099 L50.9446552,106.884856 C50.9446552,106.884856 51.5413331,109.207266 50.543718,109.487166 C49.3305046,109.826638 48.6903289,108.503735 47.7135172,106.166195 C46.3707556,102.95586 44.1826218,100.276011 44.1826218,100.276011 L50.6089649,94.8141866 Z" id="Fill-11" fill="#B78665"></path>
                    <path d="M32.2686393,36.852835 C40.3564134,36.7320921 41.8986979,73.9369874 41.8986979,73.9369874 L50.7751079,95.2358326 L44.1823381,100.275916 C44.1823381,100.275916 28.8947146,80.0938326 26.7198192,71.6136318 C24.5449238,63.1343766 18.9819197,37.0517071 32.2686393,36.852835" id="Fill-13" fill="#B78665"></path>
                    <path d="M30.778836,37.8078142 C34.4364427,36.8773372 37.0784678,37.5770862 39.1200326,40.3524418 C43.6854218,46.5603498 43.0849615,56.0977389 42.8041163,66.0530862 C37.0898151,69.2303247 31.7263339,69.5716887 25.3841498,68.0927598 C22.0471038,52.9999314 24.7411372,39.3434795 30.778836,37.8078142" id="Fill-15" fill="#C5B9B9"></path>
                    <path d="M32.187128,195.576523 C31.6434042,194.826657 30.7516971,194.409644 29.8259481,194.444632 L20.3623163,194.804908 C19.5698979,194.818146 18.9240485,195.444138 18.8881155,196.235611 C18.7292536,199.745703 18.3358812,208.741259 18.3670862,210.688264 L55.1039063,210.097259 C55.0386594,206.048172 47.5938979,202.99859 41.4871699,201.348506 C35.9884669,199.862013 33.3218561,197.141502 32.187128,195.576523" id="Fill-17" fill="#36358A"></path>
                    <polygon id="Fill-19" fill="#4F4F99" points="18.4107732 213.412084 55.1475933 212.821079 55.1040954 210.096787 18.3672753 210.688736"></polygon>
                    <path d="M31.7989565,177.575765 L30.5233331,194.698811 L19.2904711,196.21651 C19.2904711,196.21651 18.0630736,180.956309 17.9675674,179.444284 C23.9050318,178.642409 31.7989565,177.575765 31.7989565,177.575765" id="Fill-21" fill="#E2B38C"></path>
                    <path d="M19.2899983,196.216888 C19.3618644,196.746428 21.9339146,196.83626 25.0364502,196.417356 C28.1380402,195.997507 30.5947264,195.228729 30.5228603,194.699189 C30.4509941,194.169649 27.8789439,194.079817 24.777354,194.498721 C21.6748184,194.91857 19.2181322,195.687348 19.2899983,196.216888" id="Fill-23" fill="#E2B38C"></path>
                    <path d="M39.1041464,94.2364209 C39.1041464,94.2364209 40.345728,142.262839 40.9149833,145.500597 C41.7631925,150.322245 31.9714351,189.710546 31.9714351,189.710546 L18.0322469,190.696814 C18.0322469,190.696814 13.2626067,174.048463 15.4393933,149.82391 C-1.58436402,122.05617 5.39894142,108.354329 4.52898326,101.876923 L39.1041464,94.2364209 Z" id="Fill-25" fill="#39A891"></path>
                    <path d="M13.2561766,33.9830243 C9.35554895,38.1522042 5.43979163,43.7946393 6.96883766,72.2961707 C7.8794569,89.2735933 0.607741423,101.677116 2.79209289,115.097167 C2.79209289,115.097167 11.372528,114.32366 23.9320762,112.442849 C37.8457331,110.359677 45.7093983,110.146915 45.7093983,110.146915 C47.2885615,97.530631 45.2555071,74.7679866 42.3373649,55.9324469 C39.7794987,39.4202628 28.0927456,25.1945556 28.0927456,25.1945556 C28.0927456,25.1945556 15.8991473,31.1584971 13.2561766,33.9830243" id="Fill-27" fill="#CFC8C8"></path>
                    <path d="M29.6318151,5.4545431 C38.8562084,12.3461247 40.5374971,23.4447105 40.3218987,27.7141247 C39.9947188,34.1773464 32.7995975,41.1067523 25.4181916,40.133723 C16.8595054,39.0046686 4.54297824,31.3291791 4.60796694,16.1985264 C4.63659331,9.47337155 10.3225264,1.3449364 19.3861665,1.38356812 C23.7870201,1.40261841 27.1089364,3.56994895 29.6318151,5.4545431" id="Fill-29" fill="#C6946F"></path>
                    <path d="M21.8475808,42.7557958 C27.4323339,45.0271431 27.5902502,54.3650092 26.5292795,60.5984485 C26.5292795,60.5984485 23.0938904,79.050072 23.2376226,86.9629088 C27.4049113,89.0092017 38.2094134,97.5451933 46.7576979,103.37675 C46.7576979,103.37675 53.1963339,105.803177 54.2431205,106.093478 C55.5348192,106.450917 60.4150954,107.184708 60.1125013,108.605009 C59.8099071,110.02531 57.8638485,109.504281 57.2841916,109.3927 L57.2454218,109.485369 C57.2454218,109.485369 60.3432293,110.260767 59.7493883,111.856951 C59.2444343,113.216733 56.0624678,112.02716 56.0624678,112.02716 L56.001949,112.141578 C56.001949,112.141578 59.0931372,112.947235 58.2061582,114.753344 C57.7012042,115.781218 55.0194636,115.077687 54.1126268,114.81008 L54.0445431,115.005821 C54.0445431,115.005821 56.2118736,116.03275 55.7891874,116.978356 C55.2738318,118.128214 53.7022335,118.14429 51.4252126,117.03131 C49.3184008,116.001545 43.1048192,113.816248 42.1932544,113.496633 L42.1923088,113.497578 C42.1743423,113.490959 42.1554301,113.483394 42.136518,113.476775 C42.0996393,113.464482 42.0769448,113.455972 42.0769448,113.455972 L42.0769448,113.455026 C32.3315222,109.955336 11.7589029,94.7887498 11.7589029,94.7887498 C1.60970628,86.5525155 10.0369531,53.6558042 10.0369531,53.6558042 C12.6846519,44.503277 17.8202418,41.118005 21.8475808,42.7557958" id="Fill-31" fill="#C6946F"></path>
                    <path d="M21.0750201,40.7711565 C24.72979,41.7139264 27.9221582,43.323349 28.8412879,46.6443197 C30.8951456,54.0711146 31.6544678,65.3626042 27.9391791,72.4319598 C21.4683925,73.3652736 9.26722929,68.7913741 1.54918745,66.5417757 C5.48102008,51.1841774 14.5257481,39.0813573 21.0750201,40.7711565" id="Fill-33" fill="#C5B9B9"></path>
                    <path d="M36.0985356,16.8584653 L36.0985356,16.8584653 C35.7562259,17.0891933 35.2919331,16.9984151 35.061205,16.6561054 L33.4773138,14.3072184 C33.2465858,13.9639632 33.337364,13.4996703 33.6796736,13.2689423 C34.0219833,13.0382142 34.4872218,13.1289925 34.7179498,13.4713021 L36.3008954,15.8211347 C36.5316234,16.1634444 36.4408452,16.6277372 36.0985356,16.8584653" id="Fill-35" fill="#021014"></path>
                    <path d="M31.0419038,20.2656753 L31.0419038,20.2656753 C30.6995941,20.4964033 30.2353013,20.4056251 30.0045732,20.0633155 L28.420682,17.7144285 C28.189954,17.3711732 28.2807322,16.9068803 28.6230418,16.6761523 L28.6230418,16.6761523 C28.9653515,16.4454243 29.43059,16.5362025 29.661318,16.8785121 L31.2442636,19.2283448 C31.4749916,19.5706544 31.3842134,20.0349473 31.0419038,20.2656753" id="Fill-37" fill="#021014"></path>
                    <g id="Group-41">
                        <mask id="mask-2" fill="white">
                            <use xlink:href="#path-1"></use>
                        </mask>
                        <g id="Clip-40"></g>
                        <path d="M18.6761105,14.9766134 C25.0665205,16.3628728 34.4403197,6.42454644 35.759441,3.07709874 C25.558236,-0.0112527197 9.09711464,-4.63337824 1.74975063,11.4182954 C-3.05487699,21.9154753 1.76582594,33.9738519 19.549851,38.4929063 C20.6429724,33.509559 18.9872151,31.4528644 21.2831481,23.9570402 C22.3573573,20.4478937 20.3611816,16.7335506 18.6761105,14.9766134" id="Fill-39" fill="#90604D" mask="url(#mask-2)"></path>
                    </g>
                    <path d="M21.691272,23.8610611 C19.9589205,21.9112201 17.2620502,21.4800234 15.6668117,22.8974879 C14.0715732,24.3149523 14.1831548,27.0439732 15.9155063,28.9938142 C17.6478577,30.9427096 20.344728,31.3739063 21.9399665,29.9573874 C23.535205,28.539923 23.4236234,25.8109021 21.691272,23.8610611" id="Fill-42" fill="#C6946F"></path>
                    <polyline id="Stroke-44" stroke="#021014" stroke-width="0.381" points="32.5441891 15.2878126 35.5880971 19.5515531 33.4765573 20.8243397"></polyline>
                    <path d="M37.4713674,21.4087247 L33.2246477,24.1850259 C33.2246477,24.1850259 35.1461205,25.7679715 36.5843883,24.5604318 C37.7872,23.5514695 37.4713674,21.4087247 37.4713674,21.4087247" id="Fill-46" fill="#021014"></path>
                </g>
            </g>
        </g>
    </g>
</svg>