<?xml version="1.0" encoding="UTF-8"?>
<svg width="550px" height="520px" viewBox="0 0 550 520" version="1.1" xmlns="http://www.w3.org/2000/svg" xmlns:xlink="http://www.w3.org/1999/xlink">
    <title>family-picture-LRG</title>
    <defs>
        <polygon id="path-1" points="0 0 39.4409378 0 39.4409378 109.905848 0 109.905848"></polygon>
    </defs>
    <g id="family-picture-LRG" stroke="none" stroke-width="1" fill="none" fill-rule="evenodd">
        <g id="family-picture-male-1-left" transform="translate(174.000000, 73.000000)">
            <polygon id="Fill-1" fill="#021014" points="44 198 98 198 98 105 44 105"></polygon>
            <polygon id="Fill-2" fill="#B3B4B6" points="67.7541702 198.453106 70 217.15356 67.7435164 293.967294 67.7541702 344 36.4542494 342.283077 35.454919 287.749019 35 198"></polygon>
            <polygon id="Fill-3" fill="#B3B4B6" points="59 197 68.3207877 219.564916 77.653297 344 109 342.236217 105.34926 270.729526 101.573846 197.457987"></polygon>
            <polygon id="Fill-4" fill="#BF8168" points="77 62.496175 77 105 54.5372462 105 54 57"></polygon>
            <g id="Group-66">
                <path d="M62.1894426,96.0613923 L62.1894426,78.7356093 C62.1894426,76.2408923 60.7409067,73.9738381 58.4771039,72.9259506 L51.728268,71.0227315 L50.6043489,91.417708 L62.1894426,96.0613923 Z" id="Fill-5" fill="#668E8E"></path>
                <polygon id="Fill-7" fill="#709FA0" points="51.3886443 75.2242818 33.7912223 83.7031281 35.0673388 109.613078 32.7471271 206.575122 65.5238422 207.385772 65.5238422 86.7052993 54.1728983 86.7052993"></polygon>
                <path d="M138.069624,180.051227 L144,202.494105 C144,202.494105 139.529867,203.476034 138.626262,197.123814" id="Fill-9" fill="#844E39"></path>
                <path d="M73.4281009,96.0613923 L73.4281009,78.7356093 C73.4281009,76.2408923 74.8766368,73.9738381 77.1404396,72.9259506 L83.8892755,71.0227315 L85.0131946,85.4474087 L73.4281009,96.0613923 Z" id="Fill-11" fill="#668E8E"></path>
                <polygon id="Fill-13" fill="#709FA0" points="84.2288992 75.2242818 101.826321 83.7031281 100.550205 109.613078 103.713356 206.575122 70.0937013 207.385772 70.0937013 86.7052993 81.4446452 86.7052993"></polygon>
                <path d="M39.406241,342.208151 L27.5391033,367 L42.7599048,367 C49.2384041,367 62.7935491,343.793281 62.7935491,343.793281 L39.406241,342.208151 Z" id="Fill-15" fill="#021014"></path>
                <path d="M106.345093,342.208151 L118.212231,367 C118.212231,367 109.468864,367 102.991429,367 C96.51293,367 82.957785,343.793281 82.957785,343.793281 L106.345093,342.208151 Z" id="Fill-17" fill="#021014"></path>
                <polygon id="Fill-19" fill="#BF8168" points="139.278476 181.349543 138.815498 205.943517 125.270996 208.624407 123.101917 184.53044"></polygon>
                <path d="M101.67274,83.6644041 C101.67274,83.6644041 144.090041,125.089473 139.105843,192.084061 L120.287649,190.685104 C120.287649,190.685104 111.805041,132.961927 98.0806693,131.9417 L101.67274,83.6644041 Z" id="Fill-21" fill="#709FA0"></path>
                <line x1="132.886399" y1="184.131179" x2="119.288681" y2="184.899276" id="Stroke-23" stroke="#003E3E" stroke-width="0.48"></line>
                <path d="M64.9090925,3.89888633 C54.622466,2.37971538 49.4754276,6.40530564 48.3610874,14.4501031 C47.4330027,21.1416894 50.6429836,47.7048404 51.0665819,58.3443563 C51.0889326,63.3923018 58.379506,66.7114988 64.5759612,66.7364309 C77.1859924,66.785968 79.5051398,62.7944208 80.2352614,53.4368384 C81.6390959,39.6962137 81.7827788,39.5706799 81.7827788,39.5706799 C81.7827788,39.5706799 81.2240122,27.7864666 81.6614466,21.9129772 C82.3979541,12.0309191 78.5429969,5.91168146 64.9090925,3.89888633" id="Fill-25" fill="#BF8168"></path>
                <polyline id="Stroke-27" stroke="#021014" stroke-width="0.304" points="62.2002986 28.8000983 59.4820323 47.0195113 65.8753862 46.5812071"></polyline>
                <path d="M82.3765614,32.6582393 C83.5579536,32.5124925 84.7946902,32.8965407 85.6855238,33.6869776 C86.0974146,34.0529404 86.4401248,34.5082661 86.6189301,35.0306141 C86.8488226,35.7019005 86.7945424,36.4391452 86.6540525,37.1359638 C86.3347574,38.7210932 85.4386022,40.3402656 83.9102426,40.8700605 C82.975772,41.1934694 81.9508345,41.0636803 80.9801771,40.8775074 C80.5352925,40.7913359 80.0797647,40.6892068 79.7115109,40.426437 C78.7898121,39.7679168 78.7685258,38.4242803 78.9036941,37.299796 C79.1857381,34.9455065 79.6157223,32.9997336 82.3765614,32.6582393" id="Fill-29" fill="#BF8168"></path>
                <path d="M52.6536919,36.4007404 C52.5025588,37.9124644 52.1098257,39.5061045 50.9901639,40.5327152 C50.1419031,41.310386 48.9392245,41.6635826 47.7972121,41.5337935 C46.6541353,41.4040044 45.5823678,40.8082511 44.818188,39.9486641 C44.0476223,39.0816303 43.5782584,37.9209752 43.6634037,36.7645754 C43.7474848,35.6071119 44.4275836,34.4815636 45.4716788,33.9762372 C45.8707978,33.7836812 46.3092965,33.6826159 46.7499239,33.6400621 C48.3868439,33.4804853 50.0823013,34.169857 51.1444899,35.4241305 C51.6936777,35.5656219 52.3705835,35.9103077 52.6536919,36.4007404" id="Fill-31" fill="#BF8168"></path>
                <path d="M53.0705849,14.2206317 C56.3710328,17.2951443 59.8343213,18.7983576 63.8169966,20.9164734 C67.5069846,22.8792678 71.0820263,23.6218318 75.0168073,25.0346182 C75.324395,25.1441942 75.6436902,25.2622811 75.8693255,25.4973909 C76.0960251,25.7346283 76.1981995,26.060165 76.2865379,26.376127 C76.7218436,27.929341 76.9740868,29.5336196 77.0390102,31.1453451 C77.3849133,30.636827 77.9404869,30.2761835 78.5460835,30.1666075 C78.6333575,32.1091888 78.7578826,36.3337181 78.8440923,38.2762995 C81.0823515,36.1858436 83.3035817,31.7879076 85.0064894,29.2431898 C86.7104614,26.6974083 87.8322518,23.6452364 87.527857,20.5973198 C87.3192508,18.5089917 86.4582182,16.5355588 85.4013511,14.7227666 C79.8732871,5.24816121 68.6617688,-0.264684652 57.6918506,0.00978741119 C54.5180564,0.0885119564 51.2750817,0.634264547 48.5429792,2.25024542 C45.8108767,3.86622628 43.6609558,6.69711838 43.4832148,9.86631325 C43.2884448,13.3184909 45.3702494,16.6004534 45.1605789,20.0515672 C45.0222176,22.3335152 43.8844624,24.4963125 43.9461928,26.781452 C44.0611391,31.0208752 48.9676418,35.901797 49.1145176,40.1401563 C50.8259398,33.7464466 47.9278038,25.702713 48.6110955,19.1196388 C48.7920294,17.3759966 48.1502461,15.3408607 49.3050304,14.0216926 C50.4608789,12.7014607 53.0705849,14.2206317 53.0705849,14.2206317" id="Fill-33" fill="#50001E"></path>
                <path d="M69.0593978,34.9177402 L69.0593978,34.9177402 C68.711366,34.8730587 68.4655087,34.5549689 68.5102101,34.2070916 L68.8177978,31.8187591 C68.8635634,31.4708817 69.1817943,31.2251334 69.529826,31.2708788 C69.8778578,31.3155603 70.1237151,31.63365 70.0790137,31.9815274 L69.771426,34.368796 C69.7256604,34.7166734 69.4074295,34.9624217 69.0593978,34.9177402" id="Fill-35" fill="#021014"></path>
                <path d="M57.0186699,34.8598789 L57.0186699,34.8598789 C56.6674452,34.8619947 56.3811438,34.5800757 56.3779509,34.2290068 L56.3609218,31.8225889 C56.3577289,31.47152 56.6408373,31.1853456 56.9909976,31.1821421 L56.9909976,31.1821421 C57.3422224,31.1800264 57.6285237,31.4619454 57.6317167,31.8130143 L57.649822,34.2194322 C57.6519387,34.5705011 57.3698946,34.8577393 57.0186699,34.8598789" id="Fill-37" fill="#021014"></path>
                <path d="M62.4505196,55.736127 C62.4909637,55.7042116 66.7216249,54.1446146 67.8976955,53.6818419 C68.2255052,56.2297512 67.4219456,57.7393475 65.6839155,58.196801 C63.6819347,58.7234043 62.4505196,55.736127 62.4505196,55.736127" id="Fill-39" fill="#F6F9EA"></path>
                <polygon id="Fill-41" fill="#BF8168" points="138.815285 205.94373 133.791707 197.469139 121.334938 200.727697 125.270783 208.624619"></polygon>
                <line x1="130.519783" y1="198.231277" x2="135.329433" y2="206.633527" id="Stroke-43" stroke="#021014" stroke-width="0.25"></line>
                <line x1="126.945593" y1="199.306718" x2="131.565794" y2="207.378112" id="Stroke-45" stroke="#021014" stroke-width="0.25"></line>
                <line x1="123.595228" y1="200.135667" x2="128.032367" y2="207.885779" id="Stroke-47" stroke="#021014" stroke-width="0.25"></line>
                <line x1="32.7470207" y1="203.085709" x2="65.5237358" y2="204.099554" id="Stroke-49" stroke="#003E3E" stroke-width="0.48"></line>
                <line x1="70.515171" y1="204.254024" x2="103.607988" y2="203.342309" id="Stroke-51" stroke="#003E3E" stroke-width="0.48"></line>
                <path d="M22.7234933,206.072668 C22.7234933,206.072668 18.3661784,192.880987 17.0815474,187.421333 C11.8727786,185.395772 3.03788083,188.387305 3.03788083,188.387305 C3.03788083,188.387305 3.37101214,195.70656 3.62325533,200.006622 C3.82228266,207.555668 5.93282384,210.312091 7.68894736,213.372773 L18.790841,212.988725 C16.7239368,204.910949 15.0987243,200.151305 15.8629041,198.938522 C18.2012092,204.015191 20.3053645,207.103534 20.3053645,207.10247 C20.3053645,207.10247 22.3424677,206.366289 22.3424677,206.366289" id="Fill-53" fill="#BF8168"></path>
                <line x1="13.2527724" y1="204.600625" x2="15.0429541" y2="213.11777" id="Stroke-55" stroke="#021014" stroke-width="0.25"></line>
                <line x1="10.410726" y1="204.879459" x2="11.9625006" y2="213.224261" id="Stroke-57" stroke="#021014" stroke-width="0.25"></line>
                <line x1="7.15391506" y1="205.375211" x2="9.15802451" y2="213.251921" id="Stroke-59" stroke="#021014" stroke-width="0.25"></line>
                <g id="Group-63" transform="translate(0.000000, 83.830577)">
                    <mask id="mask-2" fill="white">
                        <use xlink:href="#path-1"></use>
                    </mask>
                    <g id="Clip-62"></g>
                    <path d="M33.8075064,0 C33.8075064,0 -6.81854869,43.1825408 0.998861772,109.905848 L19.7414892,107.712199 C19.7414892,107.712199 25.7719109,49.6815711 39.4409378,48.0815479 L33.8075064,0 Z" id="Fill-61" fill="#709FA0" mask="url(#mask-2)"></path>
                </g>
                <line x1="6.58865615" y1="185.523753" x2="20.2065958" y2="185.716309" id="Stroke-64" stroke="#003E3E" stroke-width="0.48"></line>
            </g>
        </g>
    </g>
</svg>