<?xml version="1.0" encoding="UTF-8"?>
<svg width="550px" height="520px" viewBox="0 0 550 520" version="1.1" xmlns="http://www.w3.org/2000/svg" xmlns:xlink="http://www.w3.org/1999/xlink">
    <title>family-picture-LRG</title>
    <defs>
        <polygon id="path-1" points="0 0 37.2768415 0 37.2768415 31.7229493 0 31.7229493"></polygon>
        <polygon id="path-3" points="7.11550264e-15 -7.12384829e-15 53.5505093 -7.12384829e-15 53.5505093 34.3052068 7.11550264e-15 34.3052068"></polygon>
    </defs>
    <g id="family-picture-LRG" stroke="none" stroke-width="1" fill="none" fill-rule="evenodd">
        <g id="Group" transform="translate(365.073852, 368.774451)">
            <g id="Group-31" transform="translate(12.972468, 4.010370)">
                <path d="M46.2789295,21.606459 C39.5083426,26.9352382 29.0755702,35.1805591 26.9445527,43.4088359 C24.8135353,51.63611 28.3054797,64.8613079 40.9714142,68.1498114 C53.6383501,71.4373122 61.4584231,67.4369681 65.4080155,52.1855307 C69.5428703,36.2192449 59.5777601,38.6776018 46.2789295,21.606459" id="Fill-1" fill="#C6946F"></path>
                <g id="Group-5" transform="translate(0.045965, 29.551908)">
                    <mask id="mask-2" fill="white">
                        <use xlink:href="#path-1"></use>
                    </mask>
                    <g id="Clip-4"></g>
                    <path d="M37.1537082,4.76832622 C34.9515901,19.6778795 15.0624278,23.1568756 15.0624278,23.1568756 L8.5351855,24.6577566 C8.5351855,24.6577566 10.3467506,26.7521723 8.41301251,30.2081087 C6.97397489,32.7807611 2.96830301,31.5084712 1.48420157,30.5239254 C-0.461553542,29.2325862 -0.641808777,27.0499423 1.82969077,24.1584655 C3.04340935,22.7538334 8.65535566,17.4090127 8.72845917,17.287699 C14.3524225,11.2701387 25.8787433,4.76231066 27.9316502,3.23536226 C34.4278485,-1.5921207 38.0009079,-0.965500382 37.1537082,4.76832622" id="Fill-3" fill="#C6946F" mask="url(#mask-2)"></path>
                </g>
                <path d="M53.315762,56.8918897 C53.315762,56.8918897 40.364448,51.8576976 28.2580746,55.4662248 C21.2362579,57.5590703 10.2435019,56.3815048 6.35908506,49.5674289 C3.18429208,43.9991095 1.92899342,47.4038934 2.43869873,50.1964955 C3.9548245,58.4971188 0.578401932,61.3954995 5.45064439,62.3880099 C10.447072,63.4045302 12.1968783,63.2364359 16.5872561,64.509819 C19.2941886,65.2946711 30.0439907,70.4921224 36.3814215,69.2014986 C42.719854,67.9108744 61.4941178,73.3798464 53.315762,56.8918897" id="Fill-6" fill="#B78665" transform="translate(28.836538, 57.992313) rotate(-21.000000) translate(-28.836538, -57.992313) "></path>
                <path d="M36.3186261,1.87974943 C28.6808112,5.80389654 24.8714172,15.2443077 28.8119969,22.9321871 C33.7359691,32.5410338 41.4579031,31.8903512 47.7448051,30.3483639 C53.6341442,28.9036281 64.0839407,20.3545217 57.6127778,7.72887417 C54.3161098,1.29624058 44.8256717,-2.49055135 36.3186261,1.87974943" id="Fill-8" fill="#C6946F"></path>
                <path d="M48.9927722,13.503005 L48.9927722,13.503005 C48.5861965,13.4959868 48.2627385,13.1601183 48.2697484,12.7520632 L48.2887753,11.6802918 C48.2957853,11.2732392 48.6312603,10.9494018 49.0388374,10.95642 L49.0388374,10.95642 C49.4454131,10.9634381 49.7688711,11.2993066 49.7618612,11.7063592 L49.7428342,12.7791332 C49.7348229,13.1861858 49.3993479,13.5100231 48.9927722,13.503005" id="Fill-10" fill="#021014"></path>
                <path d="M38.7808124,13.1674373 L38.7808124,13.1674373 C38.3742367,13.1604191 38.0507787,12.8245506 38.0577886,12.4174981 L38.0768156,11.3447241 C38.0838255,10.9376715 38.4193005,10.6138341 38.8268776,10.6208523 L38.8268776,10.6208523 C39.2334533,10.6278704 39.5569113,10.9637389 39.5499014,11.3707915 L39.5308745,12.4435655 C39.5228631,12.850618 39.1873881,13.1744554 38.7808124,13.1674373" id="Fill-12" fill="#021014"></path>
                <path d="M48.4992734,19.8239498 C49.5127084,21.8020648 48.7336052,24.2283387 46.7578075,25.2429623 C44.7820099,26.2585885 42.3585784,25.477569 41.344142,23.4994539 C40.330707,21.5213389 41.1108116,19.095065 43.0866093,18.0804414 C45.0624069,17.0648152 47.4858384,17.8458347 48.4992734,19.8239498" id="Fill-14" fill="#05D2FD"></path>
                <path d="M46.8808818,20.6552995 C47.3164986,21.5044953 46.9810236,22.546189 46.1328226,22.9813141 C45.2846216,23.4174419 44.2451497,23.082576 43.8095329,22.2333801 C43.3739161,21.3841842 43.7093911,20.3424906 44.5575921,19.9063629 C45.4057931,19.4712377 46.445265,19.8061036 46.8808818,20.6552995" id="Fill-16" fill="#CDF6FE"></path>
                <path d="M48.7498282,22.3171968 C48.0969036,21.0439043 46.5366944,20.5406029 45.2648936,21.1942932 C43.9920914,21.8479835 43.490381,23.4100227 44.1433055,24.6843178 C44.7952286,25.9576103 46.3564392,26.4599091 47.62824,25.8062188 C48.9000409,25.1535311 49.4027527,23.5904893 48.7498282,22.3171968 Z" id="Stroke-18" stroke="#CDF6FE" stroke-width="0.517"></path>
                <path d="M26.3640307,48.2792298 C26.3640307,48.2792298 42.2044602,50.61126 65.8479384,41.8776766 C71.1955104,52.3136621 68.9473271,61.2517743 54.1704035,68.8424023 C45.496121,73.298926 39.5597153,69.3066026 34.8200041,68.3972512 C30.0792914,67.4889024 24.8228485,54.230619 26.3640307,48.2792298" id="Fill-20" fill="#F6F9EA"></path>
                <path d="M45.4418442,12.7529655 C45.4418442,12.7529655 46.7466918,14.0463099 45.8564312,14.9386172 C44.9661706,15.829922 43.7394336,15.0819879 43.7394336,15.0819879" id="Stroke-22" stroke="#021014" stroke-width="0.33"></path>
                <path d="M56.6320891,77.2689919 C54.9436984,76.7035297 51.4787923,74.3233751 52.6194073,71.6053467 C54.1525783,67.9529022 56.9154904,68.0952703 56.9154904,68.0952703 L54.0834804,62.0185571 C54.0834804,62.0185571 49.8044214,39.3930518 53.0159689,34.8513077 C56.3617063,30.1200736 62.3862368,28.3063837 63.0341542,34.4151799 C63.3045371,36.9617649 63.8823553,55.2691043 62.6015417,63.4101555 C62.5995388,63.4231892 62.5965346,63.4332151 62.5945317,63.4462488 C62.5024013,64.0327655 61.7813803,71.3186053 61.4328869,73.0811629 C60.6758149,76.8108071 58.8462243,78.0099077 56.6320891,77.2689919" id="Fill-24" fill="#C6946F"></path>
                <g id="Group-28" transform="translate(18.420299, 45.829997)">
                    <mask id="mask-4" fill="white">
                        <use xlink:href="#path-3"></use>
                    </mask>
                    <g id="Clip-27"></g>
                    <path d="M48.7856625,-7.12384829e-15 C48.7856625,-7.12384829e-15 38.4830744,2.01621355 28.8684605,12.8021038 C23.991555,18.2732512 11.4137453,26.198745 4.3988124,22.6946842 C-1.33430548,19.83128 -0.486104458,23.359403 1.4896932,25.3976736 C7.36100676,31.454335 6.16431228,35.7414206 10.7668293,33.8565467 C15.4855107,31.9235483 19.3439742,31.0783628 23.7011438,29.6957877 C26.3879482,28.8425815 31.8757187,23.1538716 38.3418745,23.1538716 C48.1397479,23.1538716 60.4952428,11.7233143 48.7856625,-7.12384829e-15" id="Fill-26" fill="#C6946F" mask="url(#mask-4)"></path>
                </g>
                <path d="M44.2301284,28.0869162 C38.9186075,28.0869162 28.6400535,29.5777713 28.6400535,34.2147617 L28.6400535,43.2461151 L63.0337537,41.2168678 L63.0337537,36.8776474 C63.0337537,26.0927597 49.5416494,28.0869162 44.2301284,28.0869162" id="Fill-29" fill="#C6946F"></path>
            </g>
        </g>
        <polygon id="family-picture-glass-sheen" fill="#FFFFFF" opacity="0.102414086" points="0 0 550 0 0 520"></polygon>
    </g>
</svg>