<?xml version="1.0" encoding="UTF-8"?>
<svg width="550px" height="520px" viewBox="0 0 550 520" version="1.1" xmlns="http://www.w3.org/2000/svg" xmlns:xlink="http://www.w3.org/1999/xlink">
    <title>family-picture-LRG</title>
    <defs>
        <polygon id="path-1" points="0 0 25.9327 0 25.9327 8.413 0 8.413"></polygon>
    </defs>
    <g id="family-picture-LRG" stroke="none" stroke-width="1" fill="none" fill-rule="evenodd">
        <g id="Group-112" transform="translate(148.000000, 386.000000)">
            <path d="M65.4892,12.4072416 L65.4892,12.4072416 C65.2882,12.5862416 64.9802,12.5692416 64.8012,12.3682416 L62.0582,9.29424158 C61.8792,9.09324158 61.8962,8.78524158 62.0972,8.60524158 C62.2982,8.42624158 62.6062,8.44424158 62.7852,8.64524158 L65.5282,11.7192416 C65.7072,11.9202416 65.6902,12.2282416 65.4892,12.4072416" id="Fill-1" fill="#677072"></path>
            <path d="M35.0938,21.7803416 L41.7938,17.0313416 L45.6848,22.5213416 C46.1368,23.1603416 45.9858,24.0453416 45.3478,24.4983416 L36.8088,30.5503416 C36.0428,31.0933416 34.9838,30.5373416 34.9956989,29.5983416 L35.0938,21.7803416 Z M54.4388,8.06934158 C54.9568,7.70234158 55.6738,7.82434158 56.0408,8.34234158 L59.4228,13.1143416 C59.7898,13.6323416 59.6668,14.3483416 59.1498,14.7153416 L50.0058,21.1963416 C49.4878,21.5633416 48.7708,21.4413416 48.4038,20.9233416 L45.0218,16.1513416 C44.6548,15.6343416 44.7768,14.9173416 45.2948,14.5503416 L54.4388,8.06934158 Z M65.1588,8.97534158 C65.7478,9.17434158 65.8628,9.95734158 65.3558,10.3173416 L61.8368,12.8113416 C61.3638,13.1463416 60.7078,13.0353416 60.3728,12.5613416 L56.5348,7.14634158 C56.3878,6.93934158 56.4368,6.65334158 56.6438,6.50734158 C56.7638,6.42134158 56.9018,6.36734158 57.0438,6.34634158 C57.1868,6.32534158 57.3338,6.33734158 57.4738,6.38534158 L65.1588,8.97534158 Z M68.8218,8.42134158 L56.5818,4.70934158 L32.7288,21.6153416 L32.7558,38.8143416 L33.5568,39.3633416 L41.0098,44.4673416 L88.5098,10.8023416 L82.5508,2.39534158 L68.8218,8.42134158 Z" id="Fill-3" fill="#079276"></path>
            <polygon id="Fill-5" fill="#195151" points="83.6092 3.88854158 88.5092 10.8025416 41.0102 44.4675416 33.5572 39.3635416"></polygon>
            <path d="M52.3878,35.8876416 C50.4648,33.1746416 46.7058,32.5336416 43.9928,34.4566416 C41.2788,36.3796416 40.6378,40.1386416 42.5618,42.8516416 C44.4848,45.5656416 48.2438,46.2066416 50.9568,44.2826416 C53.6708,42.3596416 54.3108,38.6006416 52.3878,35.8876416" id="Fill-7" fill="#283437"></path>
            <path d="M50.7809,37.0265416 C49.4869,35.2005416 46.9569,34.7695416 45.1309,36.0635416 C43.3049,37.3575416 42.8739,39.8875416 44.1679,41.7135416 C45.4629,43.5395416 47.9919,43.9705416 49.8179,42.6765416 C51.6439,41.3815416 52.0749,38.8525416 50.7809,37.0265416" id="Fill-9" fill="#929497"></path>
            <path d="M50.7809,37.0265416 C49.4869,35.2005416 46.9569,34.7695416 45.1309,36.0635416 C43.3049,37.3575416 42.8739,39.8875416 44.1679,41.7135416 C45.4629,43.5395416 47.9919,43.9705416 49.8179,42.6765416 C51.6439,41.3815416 52.0749,38.8525416 50.7809,37.0265416 Z" id="Stroke-11" stroke="#D3D4D5" stroke-width="0.356"></path>
            <path d="M49.984,37.5912416 C49.002,36.2052416 47.082,35.8782416 45.696,36.8602416 C44.31,37.8422416 43.983,39.7622416 44.965,41.1482416 C45.947,42.5342416 47.867,42.8612416 49.253,41.8792416 C50.639,40.8972416 50.966,38.9772416 49.984,37.5912416" id="Fill-13" fill="#4E585B"></path>
            <path d="M49.1412,38.1886416 C48.4892,37.2686416 47.2142,37.0506416 46.2932,37.7036416 C45.3732,38.3556416 45.1552,39.6306416 45.8082,40.5506416 C46.4602,41.4716416 47.7352,41.6886416 48.6562,41.0366416 C49.5762,40.3836416 49.7932,39.1086416 49.1412,38.1886416" id="Fill-15" fill="#2F3B3E"></path>
            <polygon id="Fill-17" fill="#929497" points="47.8444 39.1077416 47.1044 39.6317416 44.4544 37.1847416 46.4134 35.7967416"></polygon>
            <polygon id="Fill-19" fill="#929497" points="47.1047 39.6319416 47.8447 39.1079416 50.4947 41.5549416 48.5357 42.9429416"></polygon>
            <polygon id="Fill-21" fill="#929497" points="47.7366 39.7396416 47.2126 38.9996416 49.6596 36.3496416 51.0476 38.3086416"></polygon>
            <polygon id="Fill-23" fill="#929497" points="47.2124 39.0000416 47.7364 39.7400416 45.2894 42.3900416 43.9014 40.4310416"></polygon>
            <path d="M47.8179,39.1264416 C47.6839,38.9364416 47.4209,38.8924416 47.2309,39.0264416 C47.0419,39.1604416 46.9969,39.4234416 47.1309,39.6134416 C47.2659,39.8024416 47.5279,39.8474416 47.7179,39.7134416 C47.9079,39.5784416 47.9519,39.3164416 47.8179,39.1264416" id="Fill-25" fill="#FAFCF5"></path>
            <path d="M84.2887,13.2778416 C82.3657,10.5648416 78.6067,9.92384158 75.8937,11.8468416 C73.1797,13.7698416 72.5387,17.5288416 74.4627,20.2418416 C76.3857,22.9558416 80.1447,23.5968416 82.8577,21.6728416 C85.5717,19.7498416 86.2117,15.9908416 84.2887,13.2778416" id="Fill-27" fill="#283437"></path>
            <path d="M82.6818,14.4167416 C81.3878,12.5907416 78.8578,12.1597416 77.0318,13.4537416 C75.2058,14.7477416 74.7748,17.2777416 76.0688,19.1037416 C77.3638,20.9297416 79.8928,21.3607416 81.7188,20.0667416 C83.5448,18.7717416 83.9758,16.2427416 82.6818,14.4167416" id="Fill-29" fill="#929497"></path>
            <path d="M82.6818,14.4167416 C81.3878,12.5907416 78.8578,12.1597416 77.0318,13.4537416 C75.2058,14.7477416 74.7748,17.2777416 76.0688,19.1037416 C77.3638,20.9297416 79.8928,21.3607416 81.7188,20.0667416 C83.5448,18.7717416 83.9758,16.2427416 82.6818,14.4167416 Z" id="Stroke-31" stroke="#D3D4D5" stroke-width="0.356"></path>
            <path d="M81.8849,14.9815416 C80.9029,13.5955416 78.9829,13.2685416 77.5969,14.2505416 C76.2109,15.2325416 75.8839,17.1525416 76.8659,18.5385416 C77.8479,19.9245416 79.7679,20.2515416 81.1539,19.2695416 C82.5399,18.2875416 82.8669,16.3675416 81.8849,14.9815416" id="Fill-33" fill="#4E585B"></path>
            <path d="M81.0421,15.5788416 C80.3901,14.6588416 79.1151,14.4408416 78.1941,15.0938416 C77.2741,15.7458416 77.0561,17.0208416 77.7091,17.9408416 C78.3611,18.8618416 79.6361,19.0788416 80.5571,18.4268416 C81.4771,17.7738416 81.6941,16.4988416 81.0421,15.5788416" id="Fill-35" fill="#2F3B3E"></path>
            <polygon id="Fill-37" fill="#929497" points="79.7453 16.4980416 79.0053 17.0220416 76.3553 14.5750416 78.3143 13.1870416"></polygon>
            <polygon id="Fill-39" fill="#929497" points="79.0057 17.0222416 79.7457 16.4982416 82.3957 18.9452416 80.4367 20.3332416"></polygon>
            <polygon id="Fill-41" fill="#929497" points="79.6376 17.1299416 79.1136 16.3899416 81.5606 13.7399416 82.9486 15.6989416"></polygon>
            <polygon id="Fill-43" fill="#929497" points="79.1134 16.3903416 79.6374 17.1303416 77.1904 19.7803416 75.8024 17.8213416"></polygon>
            <path d="M79.7189,16.5167416 C79.5849,16.3267416 79.3219,16.2827416 79.1319,16.4167416 C78.9429,16.5507416 78.8979,16.8137416 79.0319,17.0037416 C79.1669,17.1927416 79.4289,17.2377416 79.6189,17.1037416 C79.8089,16.9687416 79.8529,16.7067416 79.7189,16.5167416" id="Fill-45" fill="#FAFCF5"></path>
            <path d="M39.7683,33.6127416 L37.9823,34.8787416 C37.7293,35.0577416 37.3783,34.9977416 37.1983,34.7447416 L36.6053,33.9077416 C36.4263,33.6537416 36.4853,33.3027416 36.7393,33.1237416 L38.5243,31.8577416 C38.7783,31.6787416 39.1293,31.7387416 39.3083,31.9917416 L39.9023,32.8287416 C40.0813,33.0817416 40.0213,33.4327416 39.7683,33.6127416 Z" id="Stroke-47" stroke="#021014" stroke-width="0.119"></path>
            <path d="M55.0782,22.1541416 L52.3492,24.0881416 C51.9942,24.3401416 51.5012,24.2561416 51.2492,23.9011416 L51.2492,23.9011416 C50.9972,23.5451416 51.0812,23.0531416 51.4372,22.8011416 L54.1662,20.8671416 C54.5212,20.6151416 55.0142,20.6991416 55.2652,21.0541416 C55.5172,21.4101416 55.4332,21.9021416 55.0782,22.1541416" id="Fill-49" fill="#021014"></path>
            <path d="M55.0782,22.1541416 L52.3492,24.0881416 C51.9942,24.3401416 51.5012,24.2561416 51.2492,23.9011416 L51.2492,23.9011416 C50.9972,23.5451416 51.0812,23.0531416 51.4372,22.8011416 L54.1662,20.8671416 C54.5212,20.6151416 55.0142,20.6991416 55.2652,21.0541416 C55.5172,21.4101416 55.4332,21.9021416 55.0782,22.1541416 Z" id="Stroke-51" stroke="#929497" stroke-width="0.119"></path>
            <polygon id="Fill-53" fill="#929497" points="55.1309 22.1206416 52.2999 24.1266416 51.6929 23.2696416 54.5239 21.2636416"></polygon>
            <polygon id="Fill-55" fill="#F8E3A2" points="38.1872 40.9851416 36.8402 41.9401416 35.4022 40.9131416 33.3932 39.4781416 34.7622 38.5091416 36.7582 39.9521416"></polygon>
            <polygon id="Fill-57" fill="#F8E3A2" points="86.2782 6.90064158 85.3192 7.58064158 83.0052 4.31664158 83.9642 3.63664158"></polygon>
            <path d="M88.5413,11.0650416 L86.1113,12.7880416 L85.0393,11.2750416 L88.1153,9.09504158 L88.7293,9.96104158 C88.9823,10.3180416 88.8983,10.8120416 88.5413,11.0650416" id="Fill-59" fill="#929497"></path>
            <path d="M41.9714,44.0714416 L41.1054,44.6854416 C40.7484,44.9384416 40.2544,44.8544416 40.0014,44.4974416 L39.3874,43.6304416 L40.8994,42.5594416 L41.9714,44.0714416 Z" id="Fill-61" fill="#929497"></path>
            <line x1="42.117" y1="14.9612416" x2="55.667" y2="34.0792416" id="Stroke-63" stroke="#021014" stroke-width="0.119"></line>
            <path d="M65.1583,8.97544158 C65.7483,9.17444158 65.8623,9.95744158 65.3553,10.3174416 L61.8373,12.8104416 C61.3633,13.1464416 60.7083,13.0354416 60.3723,12.5614416 L56.5343,7.14644158 C56.3883,6.93944158 56.4363,6.65344158 56.6433,6.50744158 C56.7643,6.42144158 56.9013,6.36744158 57.0443,6.34644158 C57.1863,6.32544158 57.3333,6.33744158 57.4733,6.38544158" id="Fill-65" fill="#F6F9EA"></path>
            <path d="M35.0938,21.7803416 L41.7938,17.0313416 L45.6848,22.5213416 C46.1368,23.1603416 45.9858,24.0453416 45.3478,24.4983416 L36.8088,30.5503416 C36.0428,31.0933416 34.9838,30.5373416 34.9956989,29.5983416 L35.0938,21.7803416 Z" id="Fill-67" fill="#F6F9EA"></path>
            <path d="M68.0607,10.0689416 C67.8207,10.2619416 67.6857,10.4929416 67.7597,10.5849416 C67.8327,10.6759416 68.0877,10.5939416 68.3277,10.4019416 C68.5677,10.2089416 68.7027,9.97794158 68.6287,9.88594158 C68.5557,9.79394158 68.3007,9.87594158 68.0607,10.0689416" id="Fill-69" fill="#BEBFC1"></path>
            <line x1="65.9731" y1="9.00214158" x2="68.1651" y2="10.1941416" id="Stroke-71" stroke="#BEBFC1" stroke-width="0.238"></line>
            <path d="M65.5122,9.68924158 C66.0282,10.6232416 66.5012,10.8342416 66.8782,10.6262416 C67.2542,10.4182416 67.3902,9.87024158 66.8752,8.93624158 C66.3592,8.00324158 65.9112,7.84824158 65.5342,8.05624158 C65.1582,8.26424158 64.9962,8.75524158 65.5122,9.68924158" id="Fill-73" fill="#BEBFC1"></path>
            <polygon id="Fill-75" fill="#E34B4B" points="85.3187 7.58064158 84.3747 8.24964158 82.0617 4.98564158 83.0047 4.31664158"></polygon>
            <polygon id="Fill-77" fill="#E34B4B" points="38.1872 40.9851416 36.8402 41.9401416 35.4022 40.9131416 36.7582 39.9521416"></polygon>
            <path d="M54.439,8.06944158 C54.957,7.70244158 55.673,7.82444158 56.04,8.34244158 L59.422,13.1144416 C59.789,13.6324416 59.667,14.3484416 59.15,14.7154416 L50.005,21.1964416 C49.488,21.5634416 48.771,21.4414416 48.404,20.9234416 L45.022,16.1514416 C44.655,15.6334416 44.777,14.9174416 45.295,14.5504416" id="Fill-79" fill="#F6F9EA"></path>
            <g id="Group-83" transform="translate(0.000000, 22.747442)">
                <mask id="mask-2" fill="white">
                    <use xlink:href="#path-1"></use>
                </mask>
                <g id="Clip-82"></g>
                <polyline id="Fill-81" fill="#989898" mask="url(#mask-2)" points="12.0517 0 -0.0003 8.413 13.8817 8.413 25.9327 0"></polyline>
            </g>
            <path d="M28.8543,36.0735416 L13.5203,14.4385416 C12.6163,13.1625416 12.9173,11.3955416 14.1933,10.4915416 L24.5983,3.11754158 C25.8733,2.21354158 27.6403,2.51454158 28.5453,3.79054158 L43.8783,25.4255416 C44.7823,26.7005416 44.4813,28.4675416 43.2063,29.3715416 L32.8013,36.7465416 C31.5253,37.6505416 29.7583,37.3495416 28.8543,36.0735416" id="Fill-84" fill="#F4CC21"></path>
            <path d="M41.1731,25.3223416 C40.7291,24.6953416 40.0071,24.3843416 39.2931,24.4323416 C39.5751,23.7743416 39.5201,22.9903416 39.0761,22.3633416 C38.3961,21.4043416 37.0691,21.1783416 36.1101,21.8573416 C35.1521,22.5373416 34.9251,23.8653416 35.6051,24.8233416 C36.0491,25.4503416 36.7701,25.7613416 37.4851,25.7133416 C37.2031,26.3713416 37.2571,27.1553416 37.7021,27.7823416 C38.3811,28.7413416 39.7091,28.9673416 40.6681,28.2883416 C41.6261,27.6083416 41.8521,26.2813416 41.1731,25.3223416" id="Fill-86" fill="#079276"></path>
            <path d="M22.2414,33.0475416 L7.2124,11.8425416 C6.3084,10.5665416 6.6094,8.79954158 7.8854,7.89554158 L18.2894,0.521541583 C19.5654,-0.382458417 21.3324,-0.0814584174 22.2364,1.19354158 L37.2654,22.3995416 C38.1694,23.6745416 37.8684,25.4415416 36.5934,26.3455416 L26.1884,33.7205416 C24.9124,34.6245416 23.1454,34.3235416 22.2414,33.0475416" id="Fill-88" fill="#003E3E"></path>
            <line x1="12.6226" y1="7.57064158" x2="23.5306" y2="22.9606416" id="Stroke-90" stroke="#F6F9EA" stroke-width="0.652"></line>
            <line x1="10.376" y1="9.16294158" x2="23.766" y2="28.0559416" id="Stroke-92" stroke="#F6F9EA" stroke-width="0.652"></line>
            <path d="M33.5871,21.9768416 C33.1431,21.3498416 32.4211,21.0388416 31.7071,21.0868416 C31.9891,20.4288416 31.9341,19.6448416 31.4901,19.0178416 C30.8101,18.0588416 29.4831,17.8328416 28.5241,18.5118416 C27.5661,19.1918416 27.3391,20.5198416 28.0191,21.4778416 C28.4631,22.1048416 29.1841,22.4158416 29.8991,22.3678416 C29.6171,23.0258416 29.6711,23.8098416 30.1161,24.4368416 C30.7951,25.3958416 32.1231,25.6218416 33.0821,24.9428416 C34.0401,24.2628416 34.2661,22.9358416 33.5871,21.9768416" id="Fill-94" fill="#079276"></path>
            <polygon id="Fill-96" fill="#D3D3D3" points="69.6187 61.4526416 12.0677 59.4526416 12.0677 22.7476416 80.7327 22.7476416"></polygon>
            <polygon id="Fill-98" fill="#989898" points="80.7326 59.4526416 69.6186 61.4526416 69.6186 22.7476416 80.7326 22.7476416"></polygon>
            <polygon id="Fill-100" fill="#E9E9E9" points="92.7827 31.1605416 80.3837 31.1605416 69.6187 22.7475416 82.0177 22.7475416"></polygon>
            <polygon id="Fill-102" fill="#FFFFFF" points="56.5708 44.0537416 53.9808 44.9727416 51.1398 45.3257416 48.4388 46.2247416 45.6408 46.7517416 42.8828 47.4337416 40.1468 48.1927416 37.4338 49.0507416 34.6138 49.4907416 31.9478 50.5367416 29.1878 51.2347416 26.3688 51.9977416 25.6108 48.9837416 24.9738 46.0097416 24.3638 43.0277416 23.5928 40.0817416 22.3708 37.0427416 25.4298 36.6597416 28.1748 35.9387416 30.8508 34.9407416 33.5998 34.2227416 36.4608 33.9407416 39.1168 32.8757416 41.8168 31.9657416 44.6168 31.4437416 47.4268 30.9607416 50.1678 30.1887416 52.9038 29.3917416 53.4618 32.3867416 54.3708 35.2917416 55.3968 38.1667416 56.0958 41.1337416"></polygon>
            <path d="M29.6207,40.1137416 C29.7587,40.4677416 29.7807,41.0377416 29.5987,41.7227416 C28.9527,43.9277416 28.4967,45.6647416 28.4647,46.8097416 C28.4587,47.0287416 28.4737,47.1487416 28.5007,47.2517416 C28.5347,47.3837416 28.6147,47.3927416 28.7457,47.2977416 C31.6567,45.2407416 32.6667,41.7267416 32.2197,39.9897416 C32.1297,39.6397416 32.0027,39.3917416 31.8377,39.2317416 C31.6317,39.0357416 31.3897,39.0047416 31.2147,39.0497416 C30.7627,39.1667416 30.0317,39.8367416 29.6207,40.1137416 M27.2207,46.2107416 C27.3097,44.8027416 27.9207,42.3407416 28.5237,40.5677416 C27.9787,40.6297416 27.6257,40.3467416 27.4817,40.1507416 C27.3527,39.9507416 27.3517,39.8267416 27.6467,39.7027416 C28.0997,39.5247416 28.4917,39.2367416 28.8917,38.9157416 C29.2667,38.6167416 29.6377,38.3657416 30.1117,38.1497416 C31.0627,37.7347416 31.8987,38.0177416 32.7527,38.8557416 C33.0657,39.1647416 33.3327,39.7187416 33.4647,40.2297416 C34.0697,42.5807416 32.5257,46.1997416 29.5927,48.1077416 C29.4317,48.2107416 29.2937,48.2777416 29.1327,48.3187416 C28.6657,48.4387416 28.3247,48.2627416 27.8387,47.8887416 C27.4857,47.6057416 27.3167,47.4317416 27.2567,47.1977416 C27.1927,46.9507416 27.1947,46.6537416 27.2207,46.2107416" id="Fill-104" fill="#515050"></path>
            <path d="M33.8015,45.4670416 C34.0145,43.5750416 34.7365,40.5720416 35.4635,38.3760416 C35.0705,38.2440416 34.8355,38.0550416 34.6915,37.7970416 C34.5945,37.6030416 34.7335,37.4750416 34.9525,37.4180416 C35.7555,37.2120416 36.5055,36.9250416 37.1765,36.6280416 C37.6545,36.4270416 38.0445,36.2480416 38.4235,36.1510416 C39.0915,35.9640416 39.5245,36.1320416 39.8455,36.5940416 C39.9455,36.7400416 39.8775,36.8980416 39.5995,36.9690416 C38.8695,37.1570416 38.1185,37.5060416 37.4665,37.8140416 C37.2585,37.9140416 37.1205,37.9810416 36.9085,38.0660416 C36.6145,38.9200416 36.2555,40.3050416 35.8885,41.7230416 C36.1835,41.6000416 36.4285,41.5220416 36.6285,41.4540416 C37.4245,41.2190416 37.8715,41.3830416 38.1525,41.8090416 C38.2745,41.9800416 38.2825,42.1330416 37.9475,42.2200416 C37.2315,42.4040416 36.2545,42.8430416 35.5185,43.2500416 C35.3095,44.1290416 35.1565,44.8070416 35.0345,45.5390416 C35.5915,45.2240416 36.4695,44.8270416 36.9295,44.6770416 C37.7105,44.4450416 38.1785,44.5730416 38.4785,45.0100416 C38.6035,45.1960416 38.5905,45.3230416 38.2835,45.4020416 C37.5065,45.5870416 36.0415,46.3690416 35.2945,46.7950416 C34.9705,46.9870416 34.7375,47.0470416 34.4765,46.8190416 C34.3365,46.6990416 34.1745,46.4910416 33.9455,46.2700416 C33.7805,46.1110416 33.7605,45.9130416 33.8015,45.4670416" id="Fill-106" fill="#515050"></path>
            <path d="M41.3569,40.2843416 C43.5859,39.0253416 44.7029,37.0723416 44.4359,36.0973416 C44.3569,35.7913416 44.0599,35.6653416 43.8119,35.7293416 C43.4169,35.8303416 42.8759,36.2033416 42.0089,36.7693416 C42.1059,37.0863416 42.1129,37.5363416 41.9319,38.2843416 C41.8499,38.6313416 41.7359,39.0343416 41.3569,40.2843416 M43.5579,41.3363416 C43.4909,41.0733416 43.1679,40.9073416 42.4949,41.0193416 C41.9709,41.2783416 41.4239,41.4503416 41.0949,41.4413416 C40.9139,42.2513416 40.7549,43.0853416 40.7159,43.7803416 C40.6899,44.2233416 40.8439,44.3393416 41.1389,44.2163416 C41.9599,43.8963416 43.0209,43.0003416 43.4279,42.1013416 C43.5579,41.8193416 43.6109,41.5403416 43.5579,41.3363416 M39.4679,43.1673416 C39.6279,41.4913416 40.1789,39.0933416 40.7979,37.2673416 C40.2689,37.3263416 39.9089,37.0763416 39.7319,36.8723416 C39.5919,36.6913416 39.6309,36.5413416 39.9189,36.4513416 C40.7939,36.1633416 41.8989,35.1323416 42.9969,34.7403416 C43.9959,34.3893416 45.0259,34.7003416 45.4579,36.3803416 C45.5889,36.8903416 45.4809,37.5573416 45.2359,38.1183416 C44.9989,38.7083416 44.3759,39.6163416 43.5479,40.3273416 C44.0529,40.4773416 44.5239,40.8543416 44.6699,41.4243416 C44.7759,41.8323416 44.7389,42.3553416 44.4389,42.8843416 C44.0099,43.6953416 42.9629,44.5253416 42.1939,44.9253416 C42.0009,45.0223416 41.7709,45.0963416 41.5949,45.1423416 C41.3329,45.2093416 41.1169,45.2183416 40.8719,45.1733416 C40.1829,45.0383416 39.5949,44.5663416 39.4749,44.0993416 C39.4299,43.9243416 39.4229,43.5373416 39.4679,43.1673416" id="Fill-108" fill="#515050"></path>
            <path d="M46.4359,42.2300416 C46.4889,40.9250416 47.2009,37.5810416 47.9739,35.2650416 C47.7629,35.3500416 47.5659,35.4320416 47.3609,35.4850416 C46.4119,35.7290416 45.6979,35.5550416 45.3909,35.0270416 C45.2989,34.8480416 45.3929,34.7310416 45.5969,34.6780416 C46.8669,34.3510416 49.1019,33.3560416 49.9489,33.1380416 C50.6199,32.9650416 51.2789,32.9820416 51.6559,33.5390416 C51.7729,33.6960416 51.7599,33.8850416 51.4169,33.9430416 C50.7699,34.0310416 49.9569,34.3810416 49.2029,34.7150416 C49.3529,35.2370416 49.1469,36.1930416 48.8009,37.4490416 C48.3949,39.0170416 47.8439,41.2290416 47.4899,43.3600416 C47.4399,43.6530416 47.2689,43.7130416 47.0119,43.5610416 C46.7409,43.4130416 46.5919,43.2020416 46.4979,42.8370416 C46.4529,42.6610416 46.4259,42.4350416 46.4359,42.2300416" id="Fill-110" fill="#515050"></path>
        </g>
        <polygon id="family-picture-glass-sheen" fill="#FFFFFF" opacity="0.102414086" points="0 0 550 0 0 520"></polygon>
    </g>
</svg>