<?xml version="1.0" encoding="UTF-8"?>
<svg width="550px" height="520px" viewBox="0 0 550 520" version="1.1" xmlns="http://www.w3.org/2000/svg" xmlns:xlink="http://www.w3.org/1999/xlink">
    <title>family-picture-LRG</title>
    <defs>
        <polygon id="path-1" points="0 0 19.6962309 0 19.6962309 26.9887 0 26.9887"></polygon>
        <polygon id="path-3" points="0 7.10542736e-15 13.8056 7.10542736e-15 13.8056 13.805 0 13.805"></polygon>
        <polygon id="path-5" points="0 76.835 59.913 76.835 59.913 0 0 0"></polygon>
    </defs>
    <g id="family-picture-LRG" stroke="none" stroke-width="1" fill="none" fill-rule="evenodd">
        <g id="Group-45" transform="translate(309.000000, 369.000000)">
            <path d="M23.1438,25.2043 C23.1438,25.2043 25.9118,12.8503 23.4048,2.4033 C29.5748,3.4383 40.4068,5.5943 40.4068,5.5943 C40.4068,5.5943 42.6178,17.9333 32.8968,31.5173" id="Fill-1" fill="#40A38B"></path>
            <g id="Group-5" transform="translate(18.387800, 0.000000)">
                <mask id="mask-2" fill="white">
                    <use xlink:href="#path-1"></use>
                </mask>
                <g id="Clip-4"></g>
                <path d="M6.109,23.6467 C6.109,23.6467 5.321,11.0117 0,1.6777 C6.213,0.9507 17.218,-0.0003 17.218,-0.0003 C17.218,-0.0003 22.782,11.2327 17.236,26.9887" id="Fill-3" fill="#45AD98" mask="url(#mask-2)"></path>
            </g>
            <path d="M25.1987,28.7846 C25.1987,28.7846 21.0757,16.6756 13.4047,9.1526 C19.1827,6.7546 29.5067,2.8296 29.5067,2.8296 C29.5067,2.8296 37.9817,12.1126 36.9567,28.7846" id="Fill-6" fill="#5DC9AF"></path>
            <g id="Group-11" transform="translate(47.548300, 27.454468)">
                <path d="M6.698,6.85483213 C6.698,6.85483213 8.83,-6.23716787 0,3.76483213" id="Fill-8" fill="#FF8F95"></path>
                <path d="M6.698,6.85483213 C6.698,6.85483213 8.83,-6.23716787 0,3.76483213" id="Stroke-10" stroke="#000000" stroke-width="0.33"></path>
            </g>
            <path d="M17.0447,76.835 L15.9437,76.835 C14.5907,76.835 13.4937,75.738 13.4937,74.386 L13.4937,54.59 C13.4937,53.237 14.5907,52.141 15.9437,52.141 L17.0447,52.141 C18.3977,52.141 19.4937,53.237 19.4937,54.59 L19.4937,74.386 C19.4937,75.738 18.3977,76.835 17.0447,76.835" id="Fill-12" fill="#FF8F95"></path>
            <path d="M34.504,65.6496 L23.962,65.6496 C13.242,65.6496 4.552,56.9596 4.552,46.2406 L4.552,43.0996 C4.552,32.3796 13.242,23.6906 23.962,23.6906 L34.504,23.6906 C45.223,23.6906 53.913,32.3796 53.913,43.0996 L53.913,46.2406 C53.913,56.9596 45.223,65.6496 34.504,65.6496" id="Fill-14" fill="#FF8F95"></path>
            <path d="M23.6943,76.835 L22.5933,76.835 C21.2403,76.835 20.1433,75.738 20.1433,74.386 L20.1433,54.59 C20.1433,53.237 21.2403,52.141 22.5933,52.141 L23.6943,52.141 C25.0473,52.141 26.1433,53.237 26.1433,54.59 L26.1433,74.386 C26.1433,75.738 25.0473,76.835 23.6943,76.835" id="Fill-16" fill="#FF8F95"></path>
            <path d="M36.0447,76.835 L34.9437,76.835 C33.5907,76.835 32.4937,75.738 32.4937,74.386 L32.4937,54.59 C32.4937,53.237 33.5907,52.141 34.9437,52.141 L36.0447,52.141 C37.3977,52.141 38.4937,53.237 38.4937,54.59 L38.4937,74.386 C38.4937,75.738 37.3977,76.835 36.0447,76.835" id="Fill-18" fill="#FF8F95"></path>
            <path d="M42.6943,76.835 L41.5933,76.835 C40.2403,76.835 39.1433,75.738 39.1433,74.386 L39.1433,54.59 C39.1433,53.237 40.2403,52.141 41.5933,52.141 L42.6943,52.141 C44.0473,52.141 45.1433,53.237 45.1433,54.59 L45.1433,74.386 C45.1433,75.738 44.0473,76.835 42.6943,76.835" id="Fill-20" fill="#FF8F95"></path>
            <path d="M37.466,63.5698 L27.446,63.5698 C17.258,63.5698 8.999,55.3108 8.999,45.1228 L8.999,42.1378 C8.999,31.9498 17.258,23.6898 27.446,23.6898 L37.466,23.6898 C47.654,23.6898 55.913,31.9498 55.913,42.1378 L55.913,45.1228 C55.913,55.3108 47.654,63.5698 37.466,63.5698" id="Fill-22" fill="#FF8F95"></path>
            <g id="Group-27" transform="translate(33.104412, 27.454468)">
                <path d="M0.226087691,6.85483213 C0.226087691,6.85483213 -1.90591231,-6.23716787 6.92408769,3.76483213" id="Fill-24" fill="#FF8F95"></path>
                <path d="M0.226087691,6.85483213 C0.226087691,6.85483213 -1.90591231,-6.23716787 6.92408769,3.76483213" id="Stroke-26" stroke="#000000" stroke-width="0.33"></path>
            </g>
            <path d="M1.0002,24.042 C1.0002,24.042 0.8352,30.642 10.0802,30.545" id="Stroke-28" stroke="#FF8F95" stroke-width="2" stroke-linecap="round"></path>
            <path d="M8.2746,26.2912 C8.7436,27.2032 8.2136,28.4112 7.0906,28.9892 C5.9676,29.5662 4.6776,29.2952 4.2076,28.3832 C3.7386,27.4712 4.2686,26.2632 5.3916,25.6852 C6.5146,25.1082 7.8056,25.3792 8.2746,26.2912 Z" id="Stroke-30" stroke="#FF8F95" stroke-width="2" stroke-linecap="round"></path>
            <g id="Group-34" transform="translate(46.107400, 37.834800)">
                <mask id="mask-4" fill="white">
                    <use xlink:href="#path-3"></use>
                </mask>
                <g id="Clip-33"></g>
                <path d="M7.918,13.805 L5.888,13.805 C2.636,13.805 0,11.169 0,7.917 L0,5.887 C0,2.636 2.636,7.10542736e-15 5.888,7.10542736e-15 L7.918,7.10542736e-15 C11.17,7.10542736e-15 13.806,2.636 13.806,5.887 L13.806,7.917 C13.806,11.169 11.17,13.805 7.918,13.805" id="Fill-32" fill="#FF8F95" mask="url(#mask-4)"></path>
            </g>
            <path d="M52.8048,46.8327 L52.6528,46.8327 C52.3038,46.8327 52.0218,46.5507 52.0218,46.2027 L52.0218,44.0977 C52.0218,43.7497 52.3038,43.4677 52.6528,43.4677 L52.8048,43.4677 C53.1528,43.4677 53.4348,43.7497 53.4348,44.0977 L53.4348,46.2027 C53.4348,46.5507 53.1528,46.8327 52.8048,46.8327" id="Fill-35" fill="#021014"></path>
            <path d="M56.3788,46.8327 L56.2268,46.8327 C55.8778,46.8327 55.5958,46.5507 55.5958,46.2027 L55.5958,44.0977 C55.5958,43.7497 55.8778,43.4677 56.2268,43.4677 L56.3788,43.4677 C56.7268,43.4677 57.0088,43.7497 57.0088,44.0977 L57.0088,46.2027 C57.0088,46.5507 56.7268,46.8327 56.3788,46.8327" id="Fill-37" fill="#021014"></path>
            <mask id="mask-6" fill="white">
                <use xlink:href="#path-5"></use>
            </mask>
            <g id="Clip-40"></g>
            <polygon id="Fill-39" fill="#5DC9AF" mask="url(#mask-6)" points="23.06 24.69 36.956 24.69 36.956 23.602 23.06 23.602"></polygon>
            <path d="M46.5003,35.3451 L46.5003,36.9831 C46.5003,37.3271 46.2213,37.6061 45.8773,37.6061 L45.7693,37.6061 C45.4253,37.6061 45.1463,37.3271 45.1463,36.9831 L45.1463,35.3451 C45.1463,35.0011 45.4253,34.7221 45.7693,34.7221 L45.8773,34.7221 C46.2213,34.7221 46.5003,35.0011 46.5003,35.3451" id="Fill-41" fill="#021014" mask="url(#mask-6)"></path>
            <path d="M52.5003,35.3451 L52.5003,36.9831 C52.5003,37.3271 52.2213,37.6061 51.8773,37.6061 L51.7693,37.6061 C51.4253,37.6061 51.1463,37.3271 51.1463,36.9831 L51.1463,35.3451 C51.1463,35.0011 51.4253,34.7221 51.7693,34.7221 L51.8773,34.7221 C52.2213,34.7221 52.5003,35.0011 52.5003,35.3451" id="Fill-42" fill="#021014" mask="url(#mask-6)"></path>
            <path d="M33.4667,16.4226 C33.4667,19.1086 30.9407,21.2866 27.8247,21.2866 C24.7087,21.2866 22.1827,19.1086 22.1827,16.4226 C22.1827,13.7366 24.7087,11.5586 27.8247,11.5586 C30.9407,11.5586 33.4667,13.7366 33.4667,16.4226" id="Fill-43" fill="#45AD98" mask="url(#mask-6)"></path>
            <path d="M25.6801,17.6233 C25.8231,17.8493 25.9781,17.9963 26.1451,18.0653 C26.3121,18.1343 26.4741,18.1403 26.6301,18.0843 C26.7671,18.0353 26.8741,17.9423 26.9541,17.8043 C27.0341,17.6673 27.0731,17.4403 27.0711,17.1243 L25.6801,17.6233 Z M29.7211,15.4603 C29.5941,15.2973 29.4721,15.1963 29.3561,15.1563 C29.2411,15.1163 29.1211,15.1183 28.9991,15.1613 C28.8721,15.2073 28.7741,15.2843 28.7061,15.3913 C28.6381,15.4983 28.6051,15.6543 28.6071,15.8603 L29.7211,15.4603 Z M30.2871,18.4013 L29.4531,16.8813 C29.6291,16.7273 29.7451,16.6033 29.8011,16.5103 C29.8581,16.4163 29.8991,16.2803 29.9261,16.1013 L28.6731,16.5503 C28.7531,17.5123 28.7171,18.1873 28.5621,18.5753 C28.3521,19.0903 27.9781,19.4443 27.4401,19.6373 C27.1261,19.7503 26.8111,19.7843 26.4981,19.7383 C26.1851,19.6923 25.9011,19.5923 25.6461,19.4373 C25.3921,19.2823 25.1811,19.0963 25.0131,18.8793 C24.8461,18.6623 24.6911,18.3793 24.5491,18.0283 L23.7301,18.3223 L23.5031,17.6903 L24.3221,17.3963 C24.2081,16.9583 24.1531,16.5893 24.1581,16.2893 C24.1621,15.9893 24.2191,15.7113 24.3261,15.4563 C24.4331,15.2013 24.5701,14.9843 24.7361,14.8073 C24.9031,14.6303 25.1211,14.4643 25.3911,14.3093 L26.2231,15.9863 C25.9551,16.1403 25.7741,16.2853 25.6781,16.4183 C25.5831,16.5523 25.5221,16.7373 25.4971,16.9753 L27.0271,16.4263 C26.9801,15.7843 26.9721,15.3203 27.0031,15.0343 C27.0341,14.7473 27.1481,14.4673 27.3461,14.1953 C27.5431,13.9223 27.8301,13.7183 28.2051,13.5833 C28.7201,13.3993 29.2141,13.4243 29.6881,13.6603 C30.1631,13.8963 30.5471,14.3623 30.8391,15.0593 L31.2681,14.9063 L31.4951,15.5383 L31.0661,15.6923 C31.2571,16.3533 31.2811,16.9033 31.1381,17.3413 C30.9951,17.7783 30.7121,18.1323 30.2871,18.4013 L30.2871,18.4013 Z" id="Fill-44" fill="#5DC9AF" mask="url(#mask-6)"></path>
        </g>
        <polygon id="family-picture-glass-sheen" fill="#FFFFFF" opacity="0.102414086" points="0 0 550 0 0 520"></polygon>
    </g>
</svg>