<?xml version="1.0" encoding="UTF-8"?>
<svg width="550px" height="520px" viewBox="0 0 550 520" version="1.1" xmlns="http://www.w3.org/2000/svg" xmlns:xlink="http://www.w3.org/1999/xlink">
    <title>family-picture-LRG</title>
    <defs>
        <polygon id="path-1" points="0 0 46.2528436 0 46.2528436 107.707605 0 107.707605"></polygon>
        <polygon id="path-3" points="0 5.1672486 7.30924528 29.4458799 18.5024434 25.1040503 13.3702642 0"></polygon>
        <polygon id="path-5" points="0 5.1672486 7.30924528 29.4458799 18.5024434 25.1040503 13.3702642 0"></polygon>
        <polygon id="path-7" points="0 5.1672486 7.30924528 29.4458799 18.5024434 25.1040503 13.3702642 0"></polygon>
        <polygon id="path-9" points="0 -4.96189061e-14 37.2017547 -4.96189061e-14 37.2017547 40.9898045 0 40.9898045"></polygon>
        <polygon id="path-11" points="0 0 66.3151698 0 66.3151698 54.0799346 0 54.0799346"></polygon>
        <polygon id="path-13" points="0 368.361034 121.417245 368.361034 121.417245 0 0 0"></polygon>
        <polygon id="path-15" points="0 28.877095 10.1062358 31.0684358 18.5579434 4.28212291 4.87771698 0"></polygon>
        <polygon id="path-17" points="0 28.877095 10.1062358 31.0684358 18.5579434 4.28212291 4.87771698 0"></polygon>
        <polygon id="path-19" points="0 28.877095 10.1062358 31.0684358 18.5579434 4.28212291 4.87771698 0"></polygon>
    </defs>
    <g id="family-picture-LRG" stroke="none" stroke-width="1" fill="none" fill-rule="evenodd">
        <g id="Group" transform="translate(224.000000, 65.000000)">
            <g id="Group-73" transform="translate(-0.000000, 8.379888)">
                <g id="Group-8" transform="translate(0.000000, 70.875670)">
                    <path d="M20.1564481,102.540252 L28.0500142,120.940392 C28.0500142,120.940392 24.0058443,122.251844 22.4916368,116.960992 C21.1784858,112.376146 20.1564481,102.540252 20.1564481,102.540252" id="Fill-1" fill="#C6946F"></path>
                    <g id="Group-5">
                        <mask id="mask-2" fill="white">
                            <use xlink:href="#path-1"></use>
                        </mask>
                        <g id="Clip-4"></g>
                        <path d="M21.122567,6.7498541 C17.5862745,9.02708873 -13.4172821,37.1520887 6.78576509,107.707605 L20.1560292,102.540357 C20.1560292,102.540357 15.5840858,46.9984574 32.8665764,42.046991 C55.4592651,7.02324795 48.0599632,-10.5944196 21.122567,6.7498541" id="Fill-3" fill="#4F4F99" mask="url(#mask-2)"></path>
                    </g>
                    <polygon id="Fill-6" fill="#C6946F" points="20.1564481 102.540252 25.2875802 127.644302 14.0954292 131.986132 6.78513679 107.707501"></polygon>
                </g>
                <g id="Group-18" transform="translate(6.785660, 173.416550)">
                    <g id="Group-11">
                        <mask id="mask-4" fill="white">
                            <use xlink:href="#path-3"></use>
                        </mask>
                        <g id="Clip-10"></g>
                        <polygon id="Fill-9" fill="#021014" mask="url(#mask-4)" points="16.2628613 28.7005936 12.3296915 14.9628142 12.6197575 14.8800628 16.5529274 28.6178422"></polygon>
                    </g>
                    <g id="Group-14">
                        <mask id="mask-6" fill="white">
                            <use xlink:href="#path-5"></use>
                        </mask>
                        <g id="Clip-13"></g>
                        <polygon id="Fill-12" fill="#021014" mask="url(#mask-6)" points="13.2696311 30.0165503 9.33541415 16.2787709 9.62652736 16.1960196 13.5596972 29.9337989"></polygon>
                    </g>
                    <g id="Group-17">
                        <mask id="mask-8" fill="white">
                            <use xlink:href="#path-7"></use>
                        </mask>
                        <g id="Clip-16"></g>
                        <polygon id="Fill-15" fill="#021014" mask="url(#mask-8)" points="10.2621594 31.2829609 6.32794245 17.5451816 6.61905566 17.4624302 10.5522255 31.2002095"></polygon>
                    </g>
                </g>
                <g id="Group-57">
                    <g id="Group-21" transform="translate(69.125041, 327.371229)">
                        <mask id="mask-10" fill="white">
                            <use xlink:href="#path-9"></use>
                        </mask>
                        <g id="Clip-20"></g>
                        <path d="M1.63567925,0.657821229 L0,29.5872905 L5.61178302,31.1176676 L6.91550943,17.8868715 C6.91550943,17.8868715 5.79189623,37.5282821 37.2017547,40.9902235 C25.0189811,29.6386173 19.418717,17.625 20.1684906,-4.96189061e-14 L1.63567925,0.657821229 Z" id="Fill-19" fill="#021014" mask="url(#mask-10)"></path>
                    </g>
                    <path d="M51.6508132,167.187256 L74.5105302,242.665957 L68.743766,334.723219 L89.9395302,335.518261 C89.9395302,335.518261 102.81553,277.074825 106.813625,240.780482 C110.596002,206.430272 88.8777,134.982297 88.8777,134.982297 L51.6508132,167.187256 Z" id="Fill-22" fill="#04036D"></path>
                    <path d="M45.0499783,6.92723464 C45.0499783,6.92723464 32.7195538,13.7442737 32.7195538,31.2844274 C24.8542613,31.2844274 20.3587613,39.0483939 20.3587613,45.7826816 C20.3587613,51.2474162 24.2919311,56.1810754 31.2221009,56.1810754 C38.1512236,56.1810754 40.0947708,52.2194832 40.0947708,52.2194832 C40.0947708,52.2194832 41.7095066,56.1810754 47.7024594,56.1810754 C52.9466858,56.1810754 58.2118557,53.8368017 58.2118557,53.8368017 L45.0499783,6.92723464 Z" id="Fill-24" fill="#C1684A"></path>
                    <path d="M38.6081038,16.0261173 C38.6081038,16.0261173 33.812066,57.8941341 52.2213113,57.8941341 C60.1148774,57.8941341 71.4421132,49.9374302 71.4421132,37.6420391 L71.4421132,17.0935056 L38.6081038,16.0261173 Z" id="Fill-26" fill="#C6946F"></path>
                    <path d="M66.2857443,71.0094972 L66.2857443,37.3265363 L50.1373387,37.3265363 L50.1373387,71.1582402 C50.1373387,71.1582402 38.9001594,73.4826117 37.7765462,73.4826117 C37.7765462,92.5918994 61.5619613,97.2752095 61.5619613,97.2752095 C61.5619613,97.2752095 78.6465368,92.5918994 78.6465368,73.4826117 C77.5229236,73.4826117 66.2857443,71.0094972 66.2857443,71.0094972" id="Fill-28" fill="#C6946F"></path>
                    <polygon id="Fill-30" fill="#021014" points="52.5616415 39.1993366 46.5624057 39.1993366 46.5990566 39.0181215 49.9887453 22.1797835 50.2850943 22.2394902 46.9320566 38.8966131 52.5616415 38.8966131"></polygon>
                    <path d="M57.4784179,24.3007332 C54.8940028,24.3007332 52.7912858,26.4040852 52.7912858,28.9892807 C52.7912858,31.5744763 54.8940028,33.6778282 57.4784179,33.6778282 C60.062833,33.6778282 62.1665972,31.5744763 62.1665972,28.9892807 C62.1665972,26.4040852 60.062833,24.3007332 57.4784179,24.3007332 M57.4784179,35.190398 C54.0604557,35.190398 51.2802198,32.4082751 51.2802198,28.9892807 C51.2802198,25.5702863 54.0604557,22.7892109 57.4784179,22.7892109 C60.8974274,22.7892109 63.6776632,25.5702863 63.6776632,28.9892807 C63.6776632,32.4082751 60.8974274,35.190398 57.4784179,35.190398" id="Fill-32" fill="#F6F9EA"></path>
                    <path d="M41.6061509,24.3007332 C39.0217358,24.3007332 36.9190189,26.4040852 36.9190189,28.9892807 C36.9190189,31.5744763 39.0217358,33.6778282 41.6061509,33.6778282 C44.190566,33.6778282 46.2943302,31.5744763 46.2943302,28.9892807 C46.2943302,26.4040852 44.190566,24.3007332 41.6061509,24.3007332 M41.6061509,35.190398 C38.1881887,35.190398 35.4079528,32.4082751 35.4079528,28.9892807 C35.4079528,25.5702863 38.1881887,22.7892109 41.6061509,22.7892109 C45.0251604,22.7892109 47.8053962,25.5702863 47.8053962,28.9892807 C47.8053962,32.4082751 45.0251604,35.190398 41.6061509,35.190398" id="Fill-34" fill="#F6F9EA"></path>
                    <polygon id="Fill-36" fill="#F6F9EA" points="71.2950906 32.5446578 61.9763264 30.7000349 62.2705811 29.2167947 71.5893453 31.0614176"></polygon>
                    <path d="M64.4302642,323.877549 L66.032434,353.878596 L59.7640755,353.878596 L59.7640755,341.282577 C59.7640755,341.282577 55.6193774,366.732297 28.6034434,366.732297 C40.3767736,354.955412 44.4785377,339.221124 44.4785377,323.877549 L64.4302642,323.877549 Z" id="Fill-38" fill="#021014"></path>
                    <path d="M39.0147198,129.040328 L83.4733613,138.667772 L67.6296821,187.278457 L65.4641349,335.476781 C65.4641349,335.476781 48.1072953,339.352479 43.0505123,336.354574 C43.0505123,306.005761 21.1227764,201.117842 21.1227764,180.382856 C21.1227764,129.537884 39.0147198,129.040328 39.0147198,129.040328" id="Fill-40" fill="#04036D"></path>
                    <g id="Group-44" transform="translate(36.649687, 0.000000)">
                        <mask id="mask-12" fill="white">
                            <use xlink:href="#path-11"></use>
                        </mask>
                        <g id="Clip-43"></g>
                        <path d="M22.631434,-0.000209497207 C34.792217,-0.000209497207 43.2554434,6.92681564 43.2554434,16.3447626 C51.726,16.3447626 54.6486509,22.2096369 54.6486509,28.9889665 C61.3913774,28.9889665 66.3151698,33.6649441 66.3151698,38.9097067 C66.3151698,45.3706006 58.5085189,50.022486 53.9543774,45.4669693 C53.9543774,54.4596369 42.173717,55.9763966 38.2227453,52.0242318 C34.0612925,56.1858939 25.4734528,51.3486034 25.4734528,44.8960894 C25.4734528,34.6066341 33.9754245,33.0731145 33.9754245,33.0731145 C24.9037925,33.0731145 27.2714434,19.3751397 27.2714434,19.3751397 C27.2714434,19.3751397 4.69760377,22.0692737 0,17.3702514 C0,8.10104749 7.48726415,-0.000209497207 22.631434,-0.000209497207" id="Fill-42" fill="#C1684A" mask="url(#mask-12)"></path>
                    </g>
                    <mask id="mask-14" fill="white">
                        <use xlink:href="#path-13"></use>
                    </mask>
                    <g id="Clip-46"></g>
                    <polygon id="Fill-45" fill="#F6F9EA" mask="url(#mask-14)" points="47.0493396 29.7454609 52.0359623 29.7454609 52.0359623 28.2339385 47.0493396 28.2339385"></polygon>
                    <path d="M37.7765462,73.482926 C37.7765462,73.482926 45.9957821,95.6644902 59.0948292,95.6644902 C72.1938764,95.6644902 78.6465368,73.482926 78.6465368,73.482926 L83.4739896,138.667982 L39.0143009,138.667982 L37.7765462,73.482926 Z" id="Fill-47" fill="#F6F9EA" mask="url(#mask-14)"></path>
                    <path d="M50.172733,71.7651536 L52.1445538,153.277374 C52.1749217,154.513408 50.7319217,155.207891 49.784233,154.412849 L27.8847708,136.021089 C27.5800443,135.765503 27.3957425,135.39574 27.3737519,134.999791 L24.6762425,86.140852 C24.2301481,78.0689246 30.4555726,71.1848464 38.5282047,70.8213687 L48.6721387,70.3646648 C49.4763651,70.3280028 50.1528368,70.9596369 50.172733,71.7651536" id="Fill-48" fill="#4F4F99" mask="url(#mask-14)"></path>
                    <path d="M43.0681047,26.8628841 L43.0681047,26.8628841 C43.4733594,26.8628841 43.8021708,27.1917947 43.8021708,27.5971718 L43.8021708,30.3813897 C43.8021708,30.7867668 43.4733594,31.1156774 43.0681047,31.1156774 C42.66285,31.1156774 42.3340387,30.7867668 42.3340387,30.3813897 L42.3340387,27.5971718 C42.3340387,27.1917947 42.66285,26.8628841 43.0681047,26.8628841" id="Fill-49" fill="#021014" mask="url(#mask-14)"></path>
                    <path d="M56.9778708,26.8628841 L56.9778708,26.8628841 C57.3831255,26.8628841 57.7119368,27.1917947 57.7119368,27.5971718 L57.7119368,30.3813897 C57.7119368,30.7867668 57.3831255,31.1156774 56.9778708,31.1156774 L56.9778708,31.1156774 C56.572616,31.1156774 56.2438047,30.7867668 56.2438047,30.3813897 L56.2438047,27.5971718 C56.2438047,27.1917947 56.572616,26.8628841 56.9778708,26.8628841" id="Fill-50" fill="#021014" mask="url(#mask-14)"></path>
                    <path d="M104.095172,174.205412 L97.2236434,190.061235 C97.2236434,190.061235 103.291992,190.129295 104.745464,183.423289 C105.997879,177.643261 104.095172,174.205412 104.095172,174.205412" id="Fill-51" fill="#C6946F" mask="url(#mask-14)"></path>
                    <path d="M94.0754321,75.7083101 C94.0754321,75.7083101 133.320215,106.759986 117.774979,178.486592 L104.094753,174.205517 C104.094753,174.205517 105.025687,118.48345 87.4562717,114.673743 C71.3267151,80.2627793 68.3852151,61.2592877 94.0754321,75.7083101" id="Fill-52" fill="#4F4F99" mask="url(#mask-14)"></path>
                    <path d="M66.2857443,70.2981494 L64.2573764,156.459113 L89.0711123,135.620426 L92.0147066,82.295007 C92.3435179,76.3410964 87.7516783,71.2639316 81.7964236,70.9957751 L66.2857443,70.2981494 Z" id="Fill-53" fill="#4F4F99" mask="url(#mask-14)"></path>
                    <polygon id="Fill-54" fill="#9B9AC5" mask="url(#mask-14)" points="66.2857443 70.2981494 80.1869236 74.715398 73.0148575 80.6860684 78.3784613 85.3767109 64.2018764 156.459113"></polygon>
                    <polygon id="Fill-55" fill="#C6946F" mask="url(#mask-14)" points="104.095172 174.205412 99.2185019 203.082507 109.323691 205.273848 117.775398 178.486487"></polygon>
                    <path d="M54.139517,58.0453911 L54.139517,57.7426676 C59.134517,57.7426676 62.5713283,55.9252793 64.955734,52.0233939 L65.2133377,52.1805168 C62.7692434,56.1819134 59.2497057,58.0453911 54.139517,58.0453911" id="Fill-56" fill="#021014" mask="url(#mask-14)"></path>
                </g>
                <g id="Group-67" transform="translate(99.217245, 174.205307)">
                    <g id="Group-60">
                        <mask id="mask-16" fill="white">
                            <use xlink:href="#path-15"></use>
                        </mask>
                        <g id="Clip-59"></g>
                        <polygon id="Fill-58" fill="#021014" mask="url(#mask-16)" points="7.90560849 31.3172137 7.61554245 31.2344623 11.8461085 16.4722416 12.1361745 16.554993"></polygon>
                    </g>
                    <g id="Group-63">
                        <mask id="mask-18" fill="white">
                            <use xlink:href="#path-17"></use>
                        </mask>
                        <g id="Clip-62"></g>
                        <polygon id="Fill-61" fill="#021014" mask="url(#mask-18)" points="5.3070566 30.7519902 5.01489623 30.6723813 9.03916981 15.8651187 9.33237736 15.9447277"></polygon>
                    </g>
                    <g id="Group-66">
                        <mask id="mask-20" fill="white">
                            <use xlink:href="#path-19"></use>
                        </mask>
                        <g id="Clip-65"></g>
                        <polygon id="Fill-64" fill="#021014" mask="url(#mask-20)" points="2.42021887 30.1193087 2.12805849 30.0459846 5.86645472 15.1758729 6.15861509 15.2502444"></polygon>
                    </g>
                </g>
                <g id="Group-72" transform="translate(36.051753, 43.928422)">
                    <path d="M12.008734,0.301675978 C12.008734,0.301675978 12.2234038,2.27932961 12.749083,2.60928771 C13.2747623,2.93819832 16.800583,1.72730447 16.911583,0 C14.9596585,0.737430168 12.008734,0.301675978 12.008734,0.301675978" id="Fill-68" fill="#021014"></path>
                    <polygon id="Fill-70" fill="#9B9AC5" points="14.0854811 26.3697277 0 30.1521997 7.35636792 36.7576466 1.99276415 41.4482891 16.1693491 112.530691"></polygon>
                </g>
            </g>
        </g>
    </g>
</svg>