<?xml version="1.0" encoding="UTF-8"?>
<svg width="621px" height="589px" viewBox="0 0 621 589" version="1.1" xmlns="http://www.w3.org/2000/svg" xmlns:xlink="http://www.w3.org/1999/xlink">
    <title>family-portrait-frame</title>
    <g id="Symbols" stroke="none" stroke-width="1" fill="none" fill-rule="evenodd">
        <g id="bg-box-rh-side-image" transform="translate(-1.000000, -145.000000)">
            <g id="family-portrait-frame" transform="translate(1.400000, 145.000000)">
                <polygon id="Fill-1" fill="#DAEADA" points="533.2217 50.7573 463.7367 80.9493 394.1117 110.8253 326.9647 146.1493 257.6697 176.7363 187.0137 205.6733 159.4107 267.3943 130.1257 327.6393 104.7327 389.7013 76.1167 450.2533 47.6007 510.8483 20.1857 571.7443 17.8237 587.5573 92.9637 587.5433 167.9697 588.5703 242.9707 586.0913 317.9697 587.1153 392.9657 586.6833 467.9637 586.8803 542.9637 587.9743 616.3517 585.2223 616.5547 515.9153 616.6917 444.9103 617.7667 373.9093 619.3907 302.9103 619.7447 231.9143 617.4377 160.9163 617.7347 89.9163 618.6727 18.7593 601.7907 18.4643"></polygon>
                <polygon id="Fill-2" fill="#F0DBC5" points="151.4552 0 76.2062 2.354 1.2862 2.208 10.0972 73.064 301.9702 570.796 602.2452 73.166 602.3432 2.515 527.7042 3.85 452.4502 0.493 377.1982 4.165 301.9492 1.605 226.7042 0.289"></polygon>
                <polygon id="Fill-3" fill="#DDCBB0" points="3.1288 569.6852 151.9558 569.8892 226.9538 569.7692 526.9548 569.4992 601.9598 570.9202 600.3768 499.9232 601.9128 428.9242 603.0098 357.9252 601.1768 286.9292 603.6738 215.9302 599.9678 144.9292 603.6438 73.9242 602.3438 2.5142"></polygon>
                <polygon id="Fill-4" fill="#DDCCB1" points="3.479 73.3014 0 144.3964 1.69 215.4854 1.839 286.5734 0.423 357.6604 3.94 428.7434 1.861 499.8344 1.126 571.3604 153.501 450.4414 221.216 208.4664 165.169 157.2334 111.513 104.5284 56.575 53.1804 1.286 2.2074"></polygon>
                <polygon id="Fill-5" fill="#C8A279" points="301.9596 285.8717 351.3846 334.8537 401.0766 382.5067 452.0006 428.8627 502.9016 475.2387 550.3786 525.2477 601.9596 570.9197 526.9636 571.1717 451.9636 570.8657 376.9656 572.1847 301.9696 570.6307 226.9706 569.7617 151.9696 573.0007 76.9646 570.0707 1.1266 571.3607 50.9626 522.5407 101.0136 475.2677 150.4976 427.3897 201.7866 381.4227 250.8506 333.1037"></polygon>
                <polygon id="Fill-6" fill="#FFFFFF" points="26.9596 546.9203 576.9596 546.9203 576.9596 26.9203 26.9596 26.9203"></polygon>
            </g>
        </g>
    </g>
</svg>