<?xml version="1.0" encoding="UTF-8"?>
<svg width="550px" height="520px" viewBox="0 0 550 520" version="1.1" xmlns="http://www.w3.org/2000/svg" xmlns:xlink="http://www.w3.org/1999/xlink">
    <title>family-picture-LRG</title>
    <defs>
        <polygon id="path-1" points="0 452 633.28 452 633.28 0 0 0"></polygon>
        <polygon id="path-3" points="0 0 550 0 550 214.206 0 214.206"></polygon>
    </defs>
    <g id="family-picture-LRG" stroke="none" stroke-width="1" fill="none" fill-rule="evenodd">
        <g id="family-picture-house-scene" style="mix-blend-mode: multiply;">
            <g id="Group-72" transform="translate(-42.000000, -0.000000)">
                <polygon id="Fill-1" fill="#D3B39C" points="42 420 591.917 420 591.917 364 42 364"></polygon>
                <polygon id="Fill-2" fill="#EEEDE8" points="42 452 591.917 452 591.917 416 42 416"></polygon>
                <polygon id="Fill-3" fill="#B78B6E" points="42 391.606 592 391.606 592 387.606 42 387.606"></polygon>
                <path d="M42,24 L592,24 L592,0.001 L42,0.001 L42,24 Z M42,52 L592,52 L592,28 L42,28 L42,52 Z M42,80 L592,80 L592,56 L42,56 L42,80 Z M42,108 L592,108 L592,84 L42,84 L42,108 Z M42,136 L592,136 L592,112 L42,112 L42,136 Z M42,164 L592,164 L592,140 L42,140 L42,164 Z M42,192 L592,192 L592,168 L42,168 L42,192 Z M42,220 L592,220 L592,196.001 L42,196.001 L42,220 Z M42,248 L592,248 L592,224.001 L42,224.001 L42,248 Z M42,276 L592,276 L592,252.001 L42,252.001 L42,276 Z M42,304 L592,304 L592,280 L42,280 L42,304 Z M42,332 L592,332 L592,308 L42,308 L42,332 Z M42,360 L592,360 L592,336 L42,336 L42,360 Z" id="Fill-4" fill="#F7F3E7"></path>
                <path d="M42,28 L592,28 L592,24 L42,24 L42,28 Z M42,56 L592,56 L592,52 L42,52 L42,56 Z M42,84 L592,84 L592,80 L42,80 L42,84 Z M42,112 L592,112 L592,108 L42,108 L42,112 Z M42,140 L592,140 L592,136 L42,136 L42,140 Z M42,168 L592,168 L592,164 L42,164 L42,168 Z M42,196 L592,196 L592,192 L42,192 L42,196 Z M42,224 L592,224 L592,220 L42,220 L42,224 Z M42,252 L592,252 L592,248 L42,248 L42,252 Z M42,280 L592,280 L592,276 L42,276 L42,280 Z M42,308 L592,308 L592,304 L42,304 L42,308 Z M42,336 L592,336 L592,332 L42,332 L42,336 Z M42,364 L592,364 L592,360 L42,360 L42,364 Z" id="Fill-5" fill="#E0DBCD"></path>
                <polygon id="Fill-6" fill="#83C8BA" points="233.197 362.687 397.245 362.687 397.245 43.613 233.197 43.613"></polygon>
                <path d="M181,387.606 L453,387.606 L453,363.606 L181,363.606 L181,387.606 Z M181,415.606 L453,415.606 L453,391.606 L181,391.606 L181,415.606 Z" id="Fill-7" fill="#B28672"></path>
                <path d="M42,363.606 L592,363.606 L592,359.606 L42,359.606 L42,363.606 Z M181,391.606 L453,391.606 L453,387.606 L181,387.606 L181,391.606 Z M181,419.606 L453,419.606 L453,415.606 L181,415.606 L181,419.606 Z" id="Fill-8" fill="#BC9E8A"></path>
                <path d="M325.353,231.258 L373.793,231.258 L373.793,64.069 L325.353,64.069 L325.353,231.258 Z M332.353,224.258 L366.793,224.258 L366.793,71.069 L332.353,71.069 L332.353,224.258 Z" id="Fill-9" fill="#FFFFFF"></path>
                <path d="M256.647,342.231 L305.087,342.231 L305.087,254.069 L256.647,254.069 L256.647,342.231 Z M263.647,335.231 L298.087,335.231 L298.087,261.069 L263.647,261.069 L263.647,335.231 Z" id="Fill-10" fill="#FFFFFF"></path>
                <path d="M325.353,342.231 L373.793,342.231 L373.793,254.069 L325.353,254.069 L325.353,342.231 Z M332.353,335.231 L366.793,335.231 L366.793,261.069 L332.353,261.069 L332.353,335.231 Z" id="Fill-11" fill="#FFFFFF"></path>
                <path d="M325.353,231.258 L373.793,231.258 L373.793,64.069 L325.353,64.069 L325.353,231.258 Z M332.353,224.258 L366.793,224.258 L366.793,71.069 L332.353,71.069 L332.353,224.258 Z" id="Fill-12" fill="#99D2C7"></path>
                <path d="M256.647,342.231 L305.087,342.231 L305.087,254.069 L256.647,254.069 L256.647,342.231 Z M263.647,335.231 L298.087,335.231 L298.087,261.069 L263.647,261.069 L263.647,335.231 Z" id="Fill-13" fill="#99D2C7"></path>
                <path d="M325.353,342.231 L373.793,342.231 L373.793,254.069 L325.353,254.069 L325.353,342.231 Z M332.353,335.231 L366.793,335.231 L366.793,261.069 L332.353,261.069 L332.353,335.231 Z" id="Fill-14" fill="#99D2C7"></path>
                <polygon id="Fill-15" fill="#6ABEAD" points="332.3536 71.0687 366.7936 71.0687 373.7936 64.0687 325.3536 64.0687 325.3536 231.2577 332.3536 224.2577"></polygon>
                <path d="M256.647,231.258 L305.087,231.258 L305.087,64.069 L256.647,64.069 L256.647,231.258 Z M263.647,224.258 L298.087,224.258 L298.087,71.069 L263.647,71.069 L263.647,224.258 Z" id="Fill-16" fill="#99D2C7"></path>
                <polygon id="Fill-17" fill="#6ABEAD" points="263.6474 71.0687 298.0874 71.0687 305.0874 64.0687 256.6474 64.0687 256.6474 231.2577 263.6474 224.2577"></polygon>
                <polygon id="Fill-18" fill="#6ABEAD" points="263.6474 261.0688 298.0874 261.0688 305.0874 254.0688 256.6474 254.0688 256.6474 342.2308 263.6474 335.2308"></polygon>
                <polygon id="Fill-19" fill="#6ABEAD" points="332.3536 261.0688 366.7936 261.0688 373.7936 254.0688 325.3536 254.0688 325.3536 342.2308 332.3536 335.2308"></polygon>
                <g id="Group-51">
                    <path d="M321.3153,242.1505 C321.3153,245.5165 318.5863,248.2455 315.2203,248.2455 C311.8543,248.2455 309.1253,245.5165 309.1253,242.1505 C309.1253,238.7845 311.8543,236.0555 315.2203,236.0555 C318.5863,236.0555 321.3153,238.7845 321.3153,242.1505" id="Fill-20" fill="#003E3E"></path>
                    <path d="M385.033,248.2455 L385.033,248.2455 C383.957,248.2455 383.084,247.3735 383.084,246.2965 L383.084,238.0045 C383.084,236.9285 383.957,236.0555 385.033,236.0555 C386.109,236.0555 386.982,236.9285 386.982,238.0045 L386.982,246.2965 C386.982,247.3735 386.109,248.2455 385.033,248.2455" id="Fill-22" fill="#003E3E"></path>
                    <mask id="mask-2" fill="white">
                        <use xlink:href="#path-1"></use>
                    </mask>
                    <g id="Clip-25"></g>
                    <polygon id="Fill-24" fill="#E0D9D9" mask="url(#mask-2)" points="425.807 238.986 591.917 238.986 591.917 234.095 425.807 234.095"></polygon>
                    <polygon id="Fill-26" fill="#FFFFFF" mask="url(#mask-2)" points="425.807 248.245 591.917 248.245 591.917 238.986 425.807 238.986"></polygon>
                    <polygon id="Fill-27" fill="#FFFFFF" mask="url(#mask-2)" points="425.807 359.606 453 359.606 453 234.094 425.807 234.094"></polygon>
                    <polygon id="Fill-28" fill="#E0D9D9" mask="url(#mask-2)" points="425.807 242.095 453 242.095 453 234.095 425.807 234.095"></polygon>
                    <polygon id="Fill-29" fill="#FFFFFF" mask="url(#mask-2)" points="453 351.673 591.917 351.673 591.917 339.673 453 339.673"></polygon>
                    <polygon id="Fill-30" fill="#FFFFFF" mask="url(#mask-2)" points="462.614 339.673 470.216 339.673 470.216 248.246 462.614 248.246"></polygon>
                    <polygon id="Fill-31" fill="#FFFFFF" mask="url(#mask-2)" points="488.93 339.673 496.532 339.673 496.532 248.246 488.93 248.246"></polygon>
                    <polygon id="Fill-32" fill="#FFFFFF" mask="url(#mask-2)" points="515.246 339.673 522.848 339.673 522.848 248.246 515.246 248.246"></polygon>
                    <polygon id="Fill-33" fill="#FFFFFF" mask="url(#mask-2)" points="541.562 339.673 549.164 339.673 549.164 248.246 541.562 248.246"></polygon>
                    <polygon id="Fill-34" fill="#FFFFFF" mask="url(#mask-2)" points="567.878 339.673 575.48 339.673 575.48 248.246 567.878 248.246"></polygon>
                    <polygon id="Fill-35" fill="#E0D9D9" mask="url(#mask-2)" points="42 238.986 208.11 238.986 208.11 234.095 42 234.095"></polygon>
                    <polygon id="Fill-36" fill="#FFFFFF" mask="url(#mask-2)" points="42 248.245 208.11 248.245 208.11 238.986 42 238.986"></polygon>
                    <polygon id="Fill-37" fill="#FFFFFF" mask="url(#mask-2)" points="180.917 359.606 208.11 359.606 208.11 234.094 180.917 234.094"></polygon>
                    <polygon id="Fill-38" fill="#E0D9D9" mask="url(#mask-2)" points="180.917 242.095 208.11 242.095 208.11 234.095 180.917 234.095"></polygon>
                    <polygon id="Fill-39" fill="#FFFFFF" mask="url(#mask-2)" points="42 351.673 180.917 351.673 180.917 339.673 42 339.673"></polygon>
                    <polygon id="Fill-40" fill="#FFFFFF" mask="url(#mask-2)" points="163.701 339.673 171.303 339.673 171.303 248.246 163.701 248.246"></polygon>
                    <polygon id="Fill-41" fill="#FFFFFF" mask="url(#mask-2)" points="137.385 339.673 144.987 339.673 144.987 248.246 137.385 248.246"></polygon>
                    <polygon id="Fill-42" fill="#FFFFFF" mask="url(#mask-2)" points="111.069 339.673 118.671 339.673 118.671 248.246 111.069 248.246"></polygon>
                    <polygon id="Fill-43" fill="#FFFFFF" mask="url(#mask-2)" points="84.753 339.673 92.355 339.673 92.355 248.246 84.753 248.246"></polygon>
                    <polygon id="Fill-44" fill="#FFFFFF" mask="url(#mask-2)" points="58.438 339.673 66.04 339.673 66.04 248.246 58.438 248.246"></polygon>
                    <polygon id="Fill-45" fill="#65BEA2" mask="url(#mask-2)" points="442.799 420.2039 476.83 404.5639 473.332 410.2309 486.054 404.5639 483.828 408.7269 497.504 404.5639 501.108 410.2859 513.83 406.4749 510.226 419.7059"></polygon>
                    <polygon id="Fill-46" fill="#65BEA2" mask="url(#mask-2)" points="489.7436 424.6765 531.0166 407.6195 527.3136 414.6515 543.5006 406.0915 537.8096 413.1475 560.8256 407.8745 556.0006 414.1205 572.2906 408.7985 564.2076 424.1265"></polygon>
                    <polygon id="Fill-47" fill="#65BEA2" mask="url(#mask-2)" points="189.5688 420.2325 154.4138 404.5355 151.2858 410.2025 138.5638 404.5355 140.7898 408.6985 127.1138 404.5355 127.1138 410.2025 114.3918 406.3915 114.3918 419.6775"></polygon>
                    <polygon id="Fill-48" fill="#65BEA2" mask="url(#mask-2)" points="134.874 423.6103 93.601 406.5533 97.304 413.5853 81.117 405.0253 86.808 412.0813 63.792 406.8083 68.617 413.0543 52.327 411.1393 60.41 423.0603"></polygon>
                    <polygon id="Fill-49" fill="#65BEA2" mask="url(#mask-2)" points="42 404.8736 42 405.6556 44.824 410.2306 42 408.9726 42 419.9576 75.357 420.2036"></polygon>
                    <polygon id="Fill-50" fill="#65BEA2" mask="url(#mask-2)" points="592 406.5713 590.876 404.5353 555.721 420.2323 592 419.9643"></polygon>
                </g>
                <g id="Group-69" transform="translate(42.000000, 20.240000)">
                    <mask id="mask-4" fill="white">
                        <use xlink:href="#path-3"></use>
                    </mask>
                    <g id="Clip-53"></g>
                    <polygon id="Fill-52" fill="#EEEDE8" mask="url(#mask-4)" points="433.806 213.855 591.28 213.855 591.28 0 433.806 0"></polygon>
                    <polygon id="Fill-54" fill="#FFFFFF" mask="url(#mask-4)" points="446.599 214.206 578.487 214.206 578.487 21.334 446.599 21.334"></polygon>
                    <polygon id="Fill-55" fill="#DEE0E0" mask="url(#mask-4)" points="442.166 25.241 582.921 25.241 582.921 21.241 442.166 21.241"></polygon>
                    <polygon id="Fill-56" fill="#A1E1E5" mask="url(#mask-4)" points="455.032 207.784 570.055 207.784 570.055 29.023 455.032 29.023"></polygon>
                    <polygon id="Fill-57" fill="#B4EBEF" mask="url(#mask-4)" points="570.0552 55.2695 455.0322 102.9125 455.0322 148.5895 570.0552 100.9465"></polygon>
                    <polygon id="Fill-58" fill="#B4EBEF" mask="url(#mask-4)" points="455.0318 158.1742 455.0318 173.3282 570.0548 125.6852 570.0548 110.5312"></polygon>
                    <polygon id="Fill-59" fill="#DEE0E0" mask="url(#mask-4)" points="455.032 128.761 570.055 128.761 570.055 120.761 455.032 120.761"></polygon>
                    <polygon id="Fill-60" fill="#FFFFFF" mask="url(#mask-4)" points="455.032 128.761 570.055 128.761 570.055 124.761 455.032 124.761"></polygon>
                    <polygon id="Fill-61" fill="#EEEDE8" mask="url(#mask-4)" points="-42 214.206 115.474 214.206 115.474 0 -42 0"></polygon>
                    <polygon id="Fill-62" fill="#FFFFFF" mask="url(#mask-4)" points="-29.207 214.206 102.681 214.206 102.681 21.334 -29.207 21.334"></polygon>
                    <polygon id="Fill-63" fill="#DEE0E0" mask="url(#mask-4)" points="-33.641 25.241 107.114 25.241 107.114 21.241 -33.641 21.241"></polygon>
                    <polygon id="Fill-64" fill="#A1E1E5" mask="url(#mask-4)" points="-20.775 207.784 94.248 207.784 94.248 29.023 -20.775 29.023"></polygon>
                    <polygon id="Fill-65" fill="#B4EBEF" mask="url(#mask-4)" points="94.2484 55.2695 -20.7746 102.9125 -20.7746 148.5895 94.2484 100.9465"></polygon>
                    <polygon id="Fill-66" fill="#B4EBEF" mask="url(#mask-4)" points="-20.7749 158.1742 -20.7749 173.3282 94.2481 125.6852 94.2481 110.5312"></polygon>
                    <polygon id="Fill-67" fill="#DEE0E0" mask="url(#mask-4)" points="-20.775 128.761 94.248 128.761 94.248 120.761 -20.775 120.761"></polygon>
                    <polygon id="Fill-68" fill="#FFFFFF" mask="url(#mask-4)" points="-20.775 128.761 94.248 128.761 94.248 124.761 -20.775 124.761"></polygon>
                </g>
                <polygon id="Fill-70" fill="#231F20" opacity="0.0700000003" points="42 108.339 592 108.339 592 0 42 0"></polygon>
            </g>
        </g>
    </g>
</svg>