<?xml version="1.0" encoding="UTF-8"?>
<svg width="550px" height="520px" viewBox="0 0 550 520" version="1.1" xmlns="http://www.w3.org/2000/svg" xmlns:xlink="http://www.w3.org/1999/xlink">
    <title>family-picture-LRG</title>
    <defs>
        <polygon id="path-1" points="0 -2.84121631e-14 37.9768574 -2.84121631e-14 37.9768574 40.6934273 0 40.6934273"></polygon>
    </defs>
    <g id="family-picture-LRG" stroke="none" stroke-width="1" fill="none" fill-rule="evenodd">
        <g id="Group" transform="translate(331.614886, 200.918164)">
            <g id="family-picture-kid-3-older" transform="translate(38.663358, 119.459862) scale(-1, 1) translate(-38.663358, -119.459862) ">
                <g id="Group-48" transform="translate(2.008486, 6.997649)">
                    <path d="M24.1405973,205.757367 C23.5631575,204.964633 22.6161563,204.523781 21.6330024,204.560769 L11.5825378,204.941641 C10.7409821,204.955636 10.0550841,205.617414 10.0169229,206.454133 C9.84821002,210.164886 9.43044491,219.674691 9.46358493,221.732999 L48.4784279,221.108209 C48.4091352,216.827647 40.5027295,213.603731 34.0173278,211.859317 C28.1776544,210.287845 25.345689,207.411811 24.1405973,205.757367" id="Fill-1" fill="#36358A"></path>
                    <polygon id="Fill-3" fill="#4F4F99" points="9.50998096 224.612532 48.524824 223.987742 48.4786288 221.107709 9.46378578 221.733499"></polygon>
                    <path d="M23.7283555,186.727561 L22.3736316,204.829479 L10.4442283,206.43394 C10.4442283,206.43394 9.14072079,190.30136 9.03929224,188.702897 C15.3449344,187.855182 23.7283555,186.727561 23.7283555,186.727561" id="Fill-5" fill="#B78665"></path>
                    <path d="M10.4437262,206.43434 C10.5200486,206.994151 13.2515898,207.08912 16.5465113,206.646268 C19.8404285,206.202417 22.449452,205.389691 22.3731295,204.829879 C22.296807,204.270067 19.5652659,204.175099 16.2713487,204.61795 C12.9764272,205.061801 10.3674037,205.874528 10.4437262,206.43434" id="Fill-7" fill="#B78665"></path>
                    <path d="M46.3154892,100.940785 C46.3154892,100.940785 39.7587863,151.308861 39.8260705,154.782694 C39.9274991,159.956956 23.2068521,199.505667 23.2068521,199.505667 L8.41836875,198.264085 C8.41836875,198.264085 6.138737,180.098188 12.3861331,155.149571 C-0.933142654,123.371248 8.63729374,110.197674 8.78391322,103.289995 L46.3154892,100.940785 Z" id="Fill-9" fill="#079276"></path>
                    <path d="M53.7471892,100.234422 C53.7471892,100.234422 58.4641188,104.977828 61.7469894,108.915505 C63.7253482,111.288708 64.2786862,112.989136 63.2192097,113.728888 C62.4529723,114.263708 61.1896345,112.380341 60.8873573,111.833525 L60.7859288,111.865514 C60.7859288,111.865514 62.2561406,114.907492 60.5489274,115.504291 C59.0957877,116.012121 57.9067639,112.62126 57.9067639,112.62126 L57.6165377,112.683239 C57.6165377,112.683239 59.1429871,116.055106 57.2971884,116.442976 C56.1061561,116.693892 54.7072455,113.835852 54.3105695,112.917161 L54.1036955,112.995134 C54.1036955,112.995134 54.7373728,115.45031 53.6778964,115.74621 C52.3894525,116.10509 51.70958,114.706559 50.6721969,112.23539 C49.2461718,108.84153 46.9223533,106.008482 46.9223533,106.008482 L53.7471892,100.234422 Z" id="Fill-11" fill="#B78665"></path>
                    <path d="M34.2695937,38.9595982 C42.8588846,38.8319527 44.496805,78.1637375 44.496805,78.1637375 L53.9236347,100.680172 L46.922052,106.008382 C46.922052,106.008382 30.6864544,84.6725506 28.3766954,75.7075628 C26.0669363,66.7435746 20.1589744,39.1698392 34.2695937,38.9595982" id="Fill-13" fill="#B78665"></path>
                    <path d="M32.6874087,39.9691706 C36.5718209,38.9855011 39.377676,39.7252526 41.5458368,42.6592668 C46.3943223,49.2220617 45.756628,59.304674 45.4583678,69.8291379 C39.3897269,73.1880093 33.6936603,73.5488881 26.9582021,71.9854134 C23.4142283,56.0297744 26.2753168,41.5926252 32.6874087,39.9691706" id="Fill-15" fill="#E06363"></path>
                    <path d="M34.1830279,206.757031 C33.6055882,205.964297 32.658587,205.523446 31.675433,205.560433 L21.6249684,205.941305 C20.7834127,205.9553 20.0975147,206.617078 20.0593535,207.453797 C19.8906407,211.16455 19.4728755,220.674355 19.5060156,222.732663 L58.5208586,222.107873 C58.4515658,217.827312 50.5451602,214.603395 44.0597585,212.858981 C38.220085,211.287509 35.3881196,208.411475 34.1830279,206.757031" id="Fill-17" fill="#36358A"></path>
                    <polygon id="Fill-19" fill="#4F4F99" points="19.5524116 225.612196 58.5672546 224.987406 58.5210594 222.107373 19.5062164 222.733163"></polygon>
                    <path d="M33.7707862,187.727225 L32.4160623,205.829143 L20.4866589,207.433604 C20.4866589,207.433604 19.1831514,191.301024 19.0817229,189.702561 C25.3873651,188.854846 33.7707862,187.727225 33.7707862,187.727225" id="Fill-21" fill="#E2B38C"></path>
                    <path d="M20.4861568,207.434004 C20.5624793,207.993816 23.2940204,208.088784 26.5889419,207.645932 C29.8828591,207.202082 32.4918826,206.389355 32.4155601,205.829543 C32.3392377,205.269731 29.6076965,205.174763 26.3137793,205.617614 C23.0188578,206.061465 20.4098343,206.874192 20.4861568,207.434004" id="Fill-23" fill="#E2B38C"></path>
                    <path d="M41.5289655,99.6236272 C41.5289655,99.6236272 42.8475367,150.395568 43.452091,153.818418 C44.352897,158.915705 33.9539601,200.555715 33.9539601,200.555715 L19.1504131,201.598364 C19.1504131,201.598364 14.0850111,183.998278 16.3967786,158.388882 C-1.68260925,129.033746 5.73372577,114.548612 4.80982215,107.700913 L41.5289655,99.6236272 Z" id="Fill-25" fill="#39A891"></path>
                    <path d="M14.0781822,35.9257292 C9.93567959,40.3332483 5.77710907,46.2982441 7.4009701,76.4291204 C8.36805617,94.37709 0.645427017,107.489684 2.96522849,121.676917 C2.96522849,121.676917 12.07773,120.859192 25.4160864,118.87086 C40.1925188,116.6686 48.5438042,116.443676 48.5438042,116.443676 C50.2208901,103.106157 48.0617675,79.0422424 44.9626734,59.1299328 C42.2461959,41.6737979 29.8347559,26.6348509 29.8347559,26.6348509 C29.8347559,26.6348509 16.8850416,32.9397325 14.0781822,35.9257292" id="Fill-27" fill="#E96F6F"></path>
                    <path d="M31.4692619,5.76636254 C41.265653,13.0519146 43.0511971,24.7849724 42.8222297,29.2984559 C42.4747616,36.1311602 34.8334762,43.4566989 26.9943548,42.4280445 C17.9049508,41.2344455 4.82468495,33.1201719 4.89370355,17.1245463 C4.92410501,10.0149351 10.9626186,1.42182228 20.5882883,1.46266245 C25.2620355,1.48280179 28.7899414,3.77403195 31.4692619,5.76636254" id="Fill-29" fill="#C6946F"></path>
                    <path d="M23.202333,45.2000131 C29.1333925,47.6012063 29.3011011,57.4728895 28.1743404,64.0626754 C28.1743404,64.0626754 24.5259254,83.5691214 24.6785703,91.9343107 C29.1042695,94.0975839 40.5787507,103.121552 49.657108,109.286481 C49.657108,109.286481 56.494999,111.851619 57.6066961,112.158516 C58.9784921,112.536389 64.1613906,113.312128 63.8400328,114.813623 C63.518675,116.315119 61.4519428,115.764304 60.8363418,115.646344 L60.7951678,115.744311 C60.7951678,115.744311 64.0850681,116.564035 63.4544035,118.251468 C62.9181377,119.688985 59.5388598,118.431408 59.5388598,118.431408 L59.4745882,118.552367 C59.4745882,118.552367 62.7574588,119.404081 61.8154788,121.31344 C61.279213,122.400074 58.4311797,121.656324 57.4681106,121.373419 L57.3958051,121.58035 C57.3958051,121.58035 59.6975302,122.665985 59.2486335,123.665649 C58.701321,124.881241 57.0322691,124.898235 54.6140518,123.72163 C52.3765982,122.632996 45.7777171,120.322772 44.8096268,119.984886 L44.8086225,119.985886 C44.7895419,119.978888 44.769457,119.970891 44.7493722,119.963893 C44.7102067,119.950897 44.6861049,119.9419 44.6861049,119.9419 L44.6861049,119.940901 C34.3363758,116.241144 12.4880638,100.207531 12.4880638,100.207531 C1.70952297,91.5004565 10.6593371,56.7231414 10.6593371,56.7231414 C13.4712177,47.0473924 18.9252618,43.4685949 23.202333,45.2000131" id="Fill-31" fill="#C6946F"></path>
                    <path d="M30.6297147,49.3108319 C32.8109306,57.1621939 33.6173378,69.0991832 29.6716668,76.5726721 C22.7996315,77.5593406 9.84188329,72.7239653 1.64525141,70.3457643 C5.82089407,54.1102193 15.426479,41.3155183 22.3818664,43.1019181 C26.2632659,44.0985832 29.6535904,45.8000115 30.6297147,49.3108319 Z" id="Fill-33" fill="#E06363"></path>
                    <path d="M38.3369789,17.8222119 L38.3369789,17.8222119 C37.9734429,18.0661299 37.4803596,17.9701622 37.2353243,17.6082837 L35.5532172,15.1251181 C35.3081819,14.76224 35.4045892,14.2714049 35.7681252,14.0274869 C36.1316612,13.7835688 36.6257488,13.8795366 36.8707841,14.241415 L38.551887,16.7255803 C38.7969223,17.0874587 38.7005149,17.5782938 38.3369789,17.8222119" id="Fill-35" fill="#021014"></path>
                    <path d="M32.9667892,21.4242016 L32.9667892,21.4242016 C32.6032532,21.6681197 32.1101698,21.5721519 31.8651345,21.2102735 L30.1830274,18.7271078 C29.9379921,18.3642297 30.0343994,17.8733947 30.3979354,17.6294766 L30.3979354,17.6294766 C30.7614714,17.3855586 31.255559,17.4815263 31.5005943,17.8434047 L33.1816972,20.3275701 C33.4267325,20.6894485 33.3303251,21.1802836 32.9667892,21.4242016" id="Fill-37" fill="#021014"></path>
                    <g id="Group-41">
                        <mask id="mask-2" fill="white">
                            <use xlink:href="#path-1"></use>
                        </mask>
                        <g id="Clip-40"></g>
                        <path d="M19.8342022,15.8327803 C26.6208768,17.2982879 36.5759383,6.791818 37.9768574,3.25300701 C27.1430832,-0.011896003 9.66121996,-4.89825422 1.85825136,12.0710442 C-3.24430764,23.1683156 1.8753235,35.9160325 20.7621228,40.6934273 C21.9230278,35.4251974 20.1645982,33.2509279 22.6029003,25.3265904 C23.7437204,21.6168369 21.6237633,17.6901562 19.8342022,15.8327803" id="Fill-39" fill="#90604D" mask="url(#mask-2)"></path>
                    </g>
                    <path d="M23.0363316,25.2251245 C21.1965583,23.1638171 18.3324571,22.7079703 16.6382991,24.2064668 C14.944141,25.7049633 15.0626417,28.589994 16.902415,30.6513014 C18.7421883,32.7116091 21.6062895,33.167456 23.3004476,31.6699591 C24.9946056,30.1714626 24.8761049,27.286432 23.0363316,25.2251245" id="Fill-42" fill="#C6946F"></path>
                    <polyline id="Stroke-44" stroke="#021014" stroke-width="0.381" points="34.5622301 16.1617698 37.7948885 20.6692553 35.5524138 22.0148032"></polyline>
                    <path d="M39.794939,22.6325956 L35.2848834,25.5676095 C35.2848834,25.5676095 37.3255053,27.2410472 38.852959,25.9644761 C40.1303562,24.8978345 39.794939,22.6325956 39.794939,22.6325956" id="Fill-46" fill="#021014"></path>
                </g>
            </g>
        </g>
    </g>
</svg>