<?xml version="1.0" encoding="UTF-8"?>
<svg width="550px" height="520px" viewBox="0 0 550 520" version="1.1" xmlns="http://www.w3.org/2000/svg" xmlns:xlink="http://www.w3.org/1999/xlink">
    <title>family-picture-LRG</title>
    <defs>
        <path d="M0.334336881,0.910703704 C0.334336881,0.910703704 -0.338993308,9.75739031 0.22543122,13.9533191 L0.22543122,13.9533191 C1.01813877,21.3278234 2.00876141,23.3510285 3.69051613,26.2702991 L3.69051613,26.2702991 L12.6731388,25.4380142 C10.3201482,17.6233191 8.60174254,13.0352963 9.1200916,11.8171909 L9.1200916,11.8171909 C11.4448086,16.6864758 13.4113935,19.619339 13.4113935,19.619339 L13.4113935,19.619339 L15.0041388,18.8163305 L15.288969,18.5120655 C15.288969,18.5120655 8.97034631,6.03092877 7.47079914,0.74445584 L7.47079914,0.74445584 C6.0916765,0.190296296 4.87486518,0 3.85492179,0 L3.85492179,0 C1.62340292,0 0.334336881,0.910703704 0.334336881,0.910703704 L0.334336881,0.910703704 Z" id="path-1"></path>
        <path d="M0.334336881,0.910703704 C0.334336881,0.910703704 -0.338993308,9.75739031 0.22543122,13.9533191 L0.22543122,13.9533191 C1.01813877,21.3278234 2.00876141,23.3510285 3.69051613,26.2702991 L3.69051613,26.2702991 L12.6731388,25.4380142 C10.3201482,17.6233191 8.60174254,13.0352963 9.1200916,11.8171909 L9.1200916,11.8171909 C11.4448086,16.6864758 13.4113935,19.619339 13.4113935,19.619339 L13.4113935,19.619339 L15.0041388,18.8163305 L15.288969,18.5120655 C15.288969,18.5120655 8.97034631,6.03092877 7.47079914,0.74445584 L7.47079914,0.74445584 C6.0916765,0.190296296 4.87486518,0 3.85492179,0 L3.85492179,0 C1.62340292,0 0.334336881,0.910703704 0.334336881,0.910703704 L0.334336881,0.910703704 Z" id="path-3"></path>
        <path d="M0.334336881,0.910703704 C0.334336881,0.910703704 -0.338993308,9.75739031 0.22543122,13.9533191 L0.22543122,13.9533191 C1.01813877,21.3278234 2.00876141,23.3510285 3.69051613,26.2702991 L3.69051613,26.2702991 L12.6731388,25.4380142 C10.3201482,17.6233191 8.60174254,13.0352963 9.1200916,11.8171909 L9.1200916,11.8171909 C11.4448086,16.6864758 13.4113935,19.619339 13.4113935,19.619339 L13.4113935,19.619339 L15.0041388,18.8163305 L15.288969,18.5120655 C15.288969,18.5120655 8.97034631,6.03092877 7.47079914,0.74445584 L7.47079914,0.74445584 C6.0916765,0.190296296 4.87486518,0 3.85492179,0 L3.85492179,0 C1.62340292,0 0.334336881,0.910703704 0.334336881,0.910703704 L0.334336881,0.910703704 Z" id="path-5"></path>
        <polygon id="path-7" points="0 0 35.082283 0 35.082283 37.2099313 0 37.2099313"></polygon>
        <path d="M9.19519811,0.483060505 C7.28306604,5.6346531 0,17.5804508 0,17.5804508 L0,17.5804508 L0.259698113,17.9045819 C0.259698113,17.9045819 1.78333019,18.8320149 1.78437736,18.8320149 L1.78437736,18.8320149 C1.78437736,18.8320149 3.97610377,16.0622628 6.67675472,11.3916389 L6.67675472,11.3916389 C7.09771698,12.6463397 5.02327358,17.0858896 2.05978302,24.6904223 L2.05978302,24.6904223 L10.9492075,26.2274309 C12.8571509,23.4482685 14.0038019,21.5097557 15.3766415,14.2199437 L15.3766415,14.2199437 C16.2698774,10.0825676 16.2971038,1.210787 16.2971038,1.210787 L16.2971038,1.210787 C16.2971038,1.210787 14.8415377,-0.00104490783 12.1953396,0 L12.1953396,0 C11.322,0 10.3188113,0.131744266 9.19519811,0.483060505 L9.19519811,0.483060505 Z" id="path-9"></path>
        <path d="M9.19519811,0.483060505 C7.28306604,5.6346531 0,17.5804508 0,17.5804508 L0,17.5804508 L0.259698113,17.9045819 C0.259698113,17.9045819 1.78333019,18.8320149 1.78437736,18.8320149 L1.78437736,18.8320149 C1.78437736,18.8320149 3.97610377,16.0622628 6.67675472,11.3916389 L6.67675472,11.3916389 C7.09771698,12.6463397 5.02327358,17.0858896 2.05978302,24.6904223 L2.05978302,24.6904223 L10.9492075,26.2274309 C12.8571509,23.4482685 14.0038019,21.5097557 15.3766415,14.2199437 L15.3766415,14.2199437 C16.2698774,10.0825676 16.2971038,1.210787 16.2971038,1.210787 L16.2971038,1.210787 C16.2971038,1.210787 14.8415377,-0.00104490783 12.1953396,0 L12.1953396,0 C11.322,0 10.3188113,0.131744266 9.19519811,0.483060505 L9.19519811,0.483060505 Z" id="path-11"></path>
        <path d="M9.19519811,0.483060505 C7.28306604,5.6346531 0,17.5804508 0,17.5804508 L0,17.5804508 L0.259698113,17.9045819 C0.259698113,17.9045819 1.78333019,18.8320149 1.78437736,18.8320149 L1.78437736,18.8320149 C1.78437736,18.8320149 3.97610377,16.0622628 6.67675472,11.3916389 L6.67675472,11.3916389 C7.09771698,12.6463397 5.02327358,17.0858896 2.05978302,24.6904223 L2.05978302,24.6904223 L10.9492075,26.2274309 C12.8571509,23.4482685 14.0038019,21.5097557 15.3766415,14.2199437 L15.3766415,14.2199437 C16.2698774,10.0825676 16.2971038,1.210787 16.2971038,1.210787 L16.2971038,1.210787 C16.2971038,1.210787 14.8415377,-0.00104490783 12.1953396,0 L12.1953396,0 C11.322,0 10.3188113,0.131744266 9.19519811,0.483060505 L9.19519811,0.483060505 Z" id="path-13"></path>
        <polygon id="path-15" points="0 0 37.6065427 0 37.6065427 15.5391564 0 15.5391564"></polygon>
    </defs>
    <g id="family-picture-LRG" stroke="none" stroke-width="1" fill="none" fill-rule="evenodd">
        <g id="Group" transform="translate(281.000000, 72.000000)">
            <g id="Group-75" transform="translate(3.141509, 0.000000)">
                <g id="Group-5" transform="translate(5.875046, 109.999240)" fill="#E2B38C">
                    <path d="M5.72979467,0.044193815 C2.64587958,5.37039894 3.0406626,13.5029516 1.83955882,19.4763733 C0.00596448367,28.5907294 -0.552177026,37.7855955 0.599709767,47.0045101 C1.78615316,56.5015499 3.90562486,76.8036554 5.1182475,86.0581197 C7.99272863,86.1741796 10.8158984,85.9723818 13.3668041,86.8224417 C13.5762381,82.1633192 10.6944267,50.3660628 10.6944267,44.583983 C10.6944267,38.0616297 11.0064834,32.2983705 13.1647003,26.0050001 C14.6317852,21.7275158 16.6235022,17.4165727 18.7963796,13.3921197 C20.4624267,10.3055556 23.1327098,7.27858983 24.2154834,4.19098014 C20.5954173,2.99274082 16.6151249,2.28697159 12.8620683,1.3752223 C11.0766437,0.941304926 5.27951165,-0.242296214 5.72979467,0.044193815" id="Fill-1"></path>
                    <path d="M20.0905767,99.8968428 C20.0905767,99.8968428 13.7730013,87.4157061 12.2724069,82.1281875 C7.87324656,80.3621961 5.13594467,82.295481 5.13594467,82.295481 C5.13594467,82.295481 4.46261448,91.1421676 5.02703901,95.3370508 C5.81974656,102.712601 6.8103692,104.73476 8.49212392,107.655076 L17.4757937,106.822792 C15.121756,99.0080964 13.4033503,94.4200736 13.9227466,93.2019682 C16.2453692,98.0702075 18.2130013,101.004116 18.2130013,101.004116 C18.2130013,101.004116 19.8057466,100.200062 19.8057466,100.200062" id="Fill-3"></path>
                </g>
                <g id="Group-15" transform="translate(10.676654, 191.383704)">
                    <g id="Group-8">
                        <mask id="mask-2" fill="white">
                            <use xlink:href="#path-1"></use>
                        </mask>
                        <g id="Clip-7"></g>
                        <polygon id="Fill-6" fill="#021014" mask="url(#mask-2)" points="5.03194065 26.5675587 3.35437462 19.0163507 3.56590292 18.9692994 5.24242179 26.5205074"></polygon>
                    </g>
                    <g id="Group-11">
                        <mask id="mask-4" fill="white">
                            <use xlink:href="#path-3"></use>
                        </mask>
                        <g id="Clip-10"></g>
                        <polygon id="Fill-9" fill="#021014" mask="url(#mask-4)" points="7.36964254 26.3031305 5.66066141 18.6724581 5.87114254 18.6254068 7.58012367 26.2560792"></polygon>
                    </g>
                    <g id="Group-14">
                        <mask id="mask-6" fill="white">
                            <use xlink:href="#path-5"></use>
                        </mask>
                        <g id="Clip-13"></g>
                        <polygon id="Fill-12" fill="#021014" mask="url(#mask-6)" points="9.92316613 26.1816336 8.14926047 18.3669385 8.3597416 18.3198872 10.1336473 26.1345823"></polygon>
                    </g>
                </g>
                <g id="Group-61">
                    <path d="M46.6134028,79.6379544 C39.0811104,79.6379544 30.3916953,80.9522536 27.4952236,84.1956553 C25.1809783,86.785567 27.4952236,104.703741 27.4952236,104.703741 L35.3071104,113.029726 L50.7549594,110.224425 L53.9153179,105.930211 C53.9153179,105.930211 53.4755066,89.0147521 53.4755066,86.4739829 C53.4755066,83.1437977 51.5445255,79.6379544 46.6134028,79.6379544" id="Fill-16" fill="#E2B38C"></path>
                    <path d="M41.038166,363.494261 L54.2157509,362.936965 C54.2157509,362.936965 51.0072226,293.473589 51.8700906,282.246107 C52.7329585,271.018626 61.9459585,185.679102 61.9459585,185.679102 L16.8474962,173.603652 C16.8474962,173.603652 17.5658547,262.386284 20.4508075,275.69866 C24.6698547,295.172663 42.3921566,355.464176 42.3921566,355.464176 L41.038166,363.494261 Z" id="Fill-18" fill="#844E39"></path>
                    <path d="M39.7440736,350.316243 C9.19917736,350.316243 4.87436604,362.79006 4.87436604,365.115439 C7.89754528,365.115439 56.1595075,364.182778 56.1595075,364.182778 L54.1971113,354.063616 C54.1971113,354.063616 42.1714132,356.448593 39.7440736,350.316243" id="Fill-20" fill="#F6F9EA"></path>
                    <path d="M76.8067642,361.570491 L63.6773491,362.822055 C63.6773491,362.822055 52.7857358,293.483104 50.3898113,282.479377 C47.9938868,271.476696 33.0256415,188.203246 33.0256415,188.203246 L76.0402358,170.068636 C76.0402358,170.068636 81.6425943,258.112041 80.6132264,271.694178 C79.1073962,291.560275 74.3626698,353.800756 74.3626698,353.800756 L76.8067642,361.570491 Z" id="Fill-22" fill="#90604D"></path>
                    <g id="Group-26" transform="translate(35.227840, 0.000000)">
                        <mask id="mask-8" fill="white">
                            <use xlink:href="#path-7"></use>
                        </mask>
                        <g id="Clip-25"></g>
                        <path d="M2.71426415,37.2099313 L0,37.2099313 L0,15.1585638 C0,10.1669456 3.91641509,-0.000313675214 16.6143962,-0.000313675214 C28.4631226,-0.000313675214 35.082283,8.92270057 35.082283,17.910541 L35.082283,31.5920083 L32.6999717,37.2099313 L2.71426415,37.2099313 Z" id="Fill-24" fill="#021014" mask="url(#mask-8)"></path>
                    </g>
                    <path d="M39.7400029,35.149608 C39.7452255,32.5471493 38.1964613,30.4350695 36.2811877,30.430881 C34.3659142,30.4267048 33.2506783,32.5346023 33.2454239,35.1360154 C33.2402066,37.7384741 34.3460179,39.8505538 36.2623387,39.8547397 C38.1776123,39.8578729 39.7347538,37.7520667 39.7400029,35.149608" id="Fill-27" fill="#E2B38C"></path>
                    <path d="M36.4536566,38.5825741 L36.4505151,38.5825741 C35.6808453,38.5815285 35.1017604,38.2364858 34.7321094,37.5579017 C34.3949208,36.9378704 34.2315623,36.0553974 34.2347038,34.8602949 C34.2367981,33.8523519 34.4755528,32.9813803 34.926883,32.3414829 C35.3646,31.720406 35.9656755,31.3774544 36.6191094,31.3774544 L36.6232981,31.3774544 C37.7238736,31.3795456 38.1961472,32.5265513 38.2924868,33.13299 L37.9731,33.1842236 C37.9626283,33.1235798 37.7217792,31.7036766 36.6232981,31.7015855 L36.6201566,31.7015855 C36.0745811,31.7015855 35.5677509,31.994349 35.191817,32.5275969 C34.7844679,33.1047593 34.5593264,33.9339074 34.5572321,34.8613405 C34.5561849,35.9842977 34.711166,36.8395855 35.0169396,37.4031553 C35.3300434,37.9771809 35.7991755,38.2573974 36.4505151,38.258443 L36.4536566,38.258443 C37.0306472,38.258443 37.3866849,37.8548476 37.5835528,37.5150328 C38.0505906,36.709933 38.1197038,35.4102721 37.7301566,34.7327336 C37.5762226,34.4671553 37.3741189,34.3333205 37.1269868,34.3322749 L37.1238453,34.3322749 C36.8473925,34.3322749 36.6358642,34.4169672 36.4766943,34.5894886 C36.0955245,35.0066766 36.1614962,35.7856368 36.1625434,35.7929558 L35.8389679,35.8222322 C35.8358264,35.7845912 35.7604302,34.892708 36.2389868,34.3709615 C36.4588925,34.1304772 36.7562887,34.0081439 37.1238453,34.0081439 L37.1269868,34.0081439 C37.4934962,34.0091895 37.7992698,34.2047137 38.0097509,34.5717137 C38.4579396,35.3485826 38.3909208,36.7716225 37.8641943,37.6770983 C37.5207226,38.2699444 37.0327415,38.5825741 36.4536566,38.5825741" id="Fill-29" fill="#021014"></path>
                    <path d="M66.3636538,41.547014 C66.3636538,41.547014 63.7823802,58.665316 49.2193896,58.665316 C40.7467387,58.665316 37.3717104,56.7487604 37.3717104,38.7051165 C37.3717104,25.3540538 38.1057764,17.6763302 38.1057764,15.2976265 C38.1057764,11.9904442 39.6587292,11.4749712 41.7185123,11.4749712 C43.3950311,11.4749712 41.790767,12.8101821 43.3500028,14.3670567 C44.6861915,13.0328915 53.1305689,11.4749712 57.1171443,11.4749712 C61.4199651,11.4749712 65.0054745,14.2666806 65.0054745,21.4048829 C65.0054745,28.5430852 66.3636538,41.547014 66.3636538,41.547014" id="Fill-31" fill="#E2B38C"></path>
                    <polygon id="Fill-33" fill="#E2B38C" points="40.8795198 47.4953416 40.8795198 93.4958117 63.7737934 93.4958117 64.3214632 41.547014"></polygon>
                    <path d="M43.3948217,46.7022661 L52.7942179,46.7022661 C52.7942179,46.7022661 51.0726708,48.4870781 47.9625764,48.4870781 C44.8514349,48.4870781 43.3948217,46.7022661 43.3948217,46.7022661" id="Fill-35" fill="#021014"></path>
                    <path d="M51.408917,21.4046738 L51.2675491,23.8178818 C51.2675491,23.8178818 53.2561245,25.1384544 56.2981528,25.0244858 C57.9223132,24.9627963 59.6899358,25.0924487 60.6941717,25.6811125 L61.1203698,25.1792322 L51.408917,21.4046738 Z" id="Fill-37" fill="#021014"></path>
                    <path d="M45.3720877,21.4046738 L45.5134557,23.8178818 C45.5134557,23.8178818 43.5248802,25.1384544 40.4828519,25.0244858 C38.8586915,24.9627963 37.0910689,25.0924487 36.086833,25.6811125 L35.6606349,25.1792322 L45.3720877,21.4046738 Z" id="Fill-39" fill="#021014"></path>
                    <polygon id="Fill-41" fill="#021014" points="45.3402538 43.4168319 45.353867 43.1899402 46.5444991 23.5329601 46.8638858 23.5517806 45.6858198 42.9818689 50.3666689 41.5922877 50.4567255 41.8975983"></polygon>
                    <path d="M54.7661434,29.0856387 L54.7661434,29.0856387 C54.3765962,29.0856387 54.0613981,29.4003595 54.0613981,29.7893168 L54.0613981,32.4545105 C54.0613981,32.8424222 54.3765962,33.1581886 54.7661434,33.1581886 C55.1556906,33.1581886 55.4708887,32.8424222 55.4708887,32.4545105 L55.4708887,29.7893168 C55.4708887,29.4003595 55.1556906,29.0856387 54.7661434,29.0856387" id="Fill-43" fill="#021014"></path>
                    <path d="M41.4228962,29.0856387 L41.4228962,29.0856387 C41.0333491,29.0856387 40.7181509,29.4003595 40.7181509,29.7893168 L40.7181509,32.4545105 C40.7181509,32.8424222 41.0333491,33.1581886 41.4228962,33.1581886 C41.8124434,33.1581886 42.1276415,32.8424222 42.1276415,32.4545105 L42.1276415,29.7893168 C42.1276415,29.4003595 41.8124434,29.0856387 41.4228962,29.0856387" id="Fill-45" fill="#021014"></path>
                    <polygon id="Fill-47" fill="#021014" points="64.9742689 20.2874672 64.3208349 30.6188832 67.3827594 33.6270285"></polygon>
                    <path d="M63.9535751,35.623153 C63.9473094,32.7592983 65.6521019,30.434965 67.7600547,30.430777 C69.8680075,30.4266003 71.0942434,32.7457057 71.1005432,35.6085148 C71.1057623,38.4723695 69.8889509,40.7956573 67.7809981,40.8008908 C65.6730453,40.8050675 63.9598755,38.4870077 63.9535751,35.623153" id="Fill-49" fill="#E2B38C"></path>
                    <path d="M67.5700981,39.3851644 C66.2590415,39.3851644 65.5480132,37.8742954 65.5459046,36.45021 C65.5427774,35.2164208 66.0600792,34.3851815 66.8297491,34.3841359 L66.8328906,34.3841359 C67.2329094,34.3841359 67.5554377,34.5169251 67.7952396,34.7783211 C68.3167302,35.3460732 68.2329566,36.3205575 68.2298151,36.3623809 L67.9062396,36.3331046 C67.9072868,36.3236943 67.9805887,35.4579507 67.5554377,34.9958026 C67.3774189,34.8013239 67.1418057,34.7072214 66.8328906,34.7072214 L66.8297491,34.7072214 C66.1647962,34.7093125 65.8684472,35.5834208 65.8705415,36.45021 C65.8726358,37.7164123 66.4695226,39.0610333 67.5700981,39.0610333 L67.5732396,39.0610333 C68.9890132,39.0589422 69.6770038,37.8303809 69.6717679,35.306341 C69.6696736,34.2670305 69.4267302,33.3751473 68.9712113,32.7279308 C68.5544377,32.1371758 67.9921075,31.8119991 67.3857962,31.8119991 L67.3826547,31.8119991 C66.1606075,31.8151359 65.8925321,33.3908311 65.8820604,33.4577484 L65.5626736,33.4065148 C65.5647679,33.3876943 65.8841547,31.4920504 67.3826547,31.4889137 L67.3857962,31.4889137 C68.1010132,31.4889137 68.7575887,31.8632328 69.2361453,32.5418168 C69.7304094,33.2434037 69.9922019,34.2001131 69.9943323,35.3052954 C70.0005792,38.0091758 69.1858811,39.3820276 67.5732396,39.3851644 L67.5700981,39.3851644 Z" id="Fill-51" fill="#021014"></path>
                    <path d="M51.815533,57.1957476 L51.815533,56.9186678 C56.428316,56.9186678 60.6944858,54.6319755 63.2265425,50.8009556 L63.457967,50.9525652 C60.8735519,54.862004 56.5215142,57.1957476 51.815533,57.1957476" id="Fill-53" fill="#021014"></path>
                    <path d="M0,122.767355 C0,122.767355 3.49545283,92.7580476 22.1036604,74.1780191 C27.1070377,69.1822185 40.2416887,64.7562613 40.2416887,64.7562613 C40.2416887,64.7562613 40.6239057,71.6362043 48.4357925,71.6362043 C60.7651698,71.6362043 64.7287075,64.0138966 64.7287075,64.0138966 C93.8850566,64.0138966 105.476179,119.264649 105.476179,119.264649 L79.1545189,129.776951 L76.8727358,108.304837 L78.1712264,104.352529 C78.1712264,104.352529 81.7766321,131.87962 81.7766321,171.48007 C81.7766321,177.094857 82.1996887,196.611728 82.1996887,196.611728 L15.5347642,197.951122 L16.3075755,127.326102 L16.3086226,127.272777 L16.1347925,127.801842 L0,122.767355 Z" id="Fill-55" fill="#FFFFFF"></path>
                    <path d="M99.6704604,121.152346 C101.041206,124.840121 101.802498,128.39197 102.136545,132.804335 C102.838149,142.074483 101.968998,155.660802 100.09247,164.76052 C98.1604415,174.135226 93.4659792,193.228637 91.5276679,202.359722 C88.6521396,202.249936 85.8541019,201.826474 83.2435075,202.472645 C83.4026774,197.811432 88.784083,166.340397 89.2406491,160.576093 C89.7548094,154.073605 89.8993189,148.304073 88.2447906,141.860138 C87.119083,137.481232 85.4739792,133.027044 83.6267717,128.843662 C82.2089038,125.634765 99.1186019,119.666571 99.6704604,121.152346" id="Fill-57" fill="#E2B38C"></path>
                    <path d="M75.5089019,214.977308 C75.5089019,214.977308 82.7919679,203.03151 84.7051472,197.878872 C89.2299679,196.464197 91.8060057,198.607644 91.8060057,198.607644 C91.8060057,198.607644 91.7787792,207.479425 90.8855434,211.616801 C89.5127038,218.906613 88.3660528,220.845125 86.4591566,223.624288 L77.5697321,222.087279 C80.5321755,214.482746 82.607666,210.043197 82.1856566,208.788496 C79.4860528,213.45912 77.2932792,216.228872 77.2932792,216.228872 C77.2932792,216.228872 75.7686,215.302484 75.7686,215.302484" id="Fill-59" fill="#E2B38C"></path>
                </g>
                <g id="Group-71" transform="translate(75.509321, 197.396857)">
                    <g id="Group-64">
                        <mask id="mask-10" fill="white">
                            <use xlink:href="#path-9"></use>
                        </mask>
                        <g id="Clip-63"></g>
                        <polygon id="Fill-62" fill="#021014" mask="url(#mask-10)" points="9.58861981 26.4184591 9.38232736 26.3546785 11.6504972 18.9582169 11.8567896 19.0219975"></polygon>
                    </g>
                    <g id="Group-67">
                        <mask id="mask-12" fill="white">
                            <use xlink:href="#path-11"></use>
                        </mask>
                        <g id="Clip-66"></g>
                        <polygon id="Fill-65" fill="#021014" mask="url(#mask-12)" points="7.27950566 25.9702172 7.07321321 25.9064366 9.37908113 18.434693 9.58537358 18.4984736"></polygon>
                    </g>
                    <g id="Group-70">
                        <mask id="mask-14" fill="white">
                            <use xlink:href="#path-13"></use>
                        </mask>
                        <g id="Clip-69"></g>
                        <polygon id="Fill-68" fill="#021014" mask="url(#mask-14)" points="4.74441226 25.6485955 4.53811981 25.5848149 6.92252547 17.9342765 7.12881792 17.9980571"></polygon>
                    </g>
                </g>
                <g id="Group-74" transform="translate(40.325720, 351.460844)">
                    <mask id="mask-16" fill="white">
                        <use xlink:href="#path-15"></use>
                    </mask>
                    <g id="Clip-73"></g>
                    <path d="M20.8382125,0 C6.63021248,0.440190883 -0.228749788,8.00708262 0.00581624961,15.5394701 C2.2101087,15.4704615 37.6065427,13.9920057 37.6065427,13.9920057 L35.5729389,2.58782051 C35.5729389,2.58782051 23.4833634,5.50604558 20.8382125,0" id="Fill-72" fill="#F6F9EA" mask="url(#mask-16)"></path>
                </g>
            </g>
        </g>
    </g>
</svg>