<?xml version="1.0" encoding="UTF-8"?>
<svg width="550px" height="520px" viewBox="0 0 550 520" version="1.1" xmlns="http://www.w3.org/2000/svg" xmlns:xlink="http://www.w3.org/1999/xlink">
    <title>family-picture-LRG</title>
    <defs>
        <polygon id="path-1" points="0 0 41.9809144 0 41.9809144 82.7952601 0 82.7952601"></polygon>
        <polygon id="path-3" points="0 0 110 0 110 182.237788 0 182.237788"></polygon>
        <path d="M0,1.22663411 C0,1.22663411 0.0274378164,10.2155953 0.928664555,14.4071248 L0.928664555,14.4071248 C2.31110838,21.7923519 3.46666257,23.7562376 5.38942032,26.571776 L5.38942032,26.571776 L14.3478674,25.0135905 C11.3613666,17.3095233 9.27081604,12.8129242 9.6939916,11.5407415 L9.6939916,11.5407415 C12.4166672,16.2724984 14.6254114,19.0795627 14.6254114,19.0795627 L14.6254114,19.0795627 C14.6254114,19.0785034 16.1619292,18.1399906 16.1619292,18.1399906 L16.1619292,18.1399906 L16.4236437,17.811617 C16.4236437,17.811617 9.08402783,5.70946273 7.15704888,0.48938252 L7.15704888,0.48938252 C6.0257666,0.13346796 5.0147886,0 4.13466787,0 L4.13466787,0 C1.46792318,0 0,1.22663411 0,1.22663411" id="path-5"></path>
        <path d="M0,1.22663411 C0,1.22663411 0.0274378164,10.2155953 0.928664555,14.4071248 L0.928664555,14.4071248 C2.31110838,21.7923519 3.46666257,23.7562376 5.38942032,26.571776 L5.38942032,26.571776 L14.3478674,25.0135905 C11.3613666,17.3095233 9.27081604,12.8129242 9.6939916,11.5407415 L9.6939916,11.5407415 C12.4166672,16.2724984 14.6254114,19.0795627 14.6254114,19.0795627 L14.6254114,19.0795627 C14.6254114,19.0785034 16.1619292,18.1399906 16.1619292,18.1399906 L16.1619292,18.1399906 L16.4236437,17.811617 C16.4236437,17.811617 9.08402783,5.70946273 7.15704888,0.48938252 L7.15704888,0.48938252 C6.0257666,0.13346796 5.0147886,0 4.13466787,0 L4.13466787,0 C1.46792318,0 0,1.22663411 0,1.22663411" id="path-7"></path>
        <path d="M0,1.22663411 C0,1.22663411 0.0274378164,10.2155953 0.928664555,14.4071248 L0.928664555,14.4071248 C2.31110838,21.7923519 3.46666257,23.7562376 5.38942032,26.571776 L5.38942032,26.571776 L14.3478674,25.0135905 C11.3613666,17.3095233 9.27081604,12.8129242 9.6939916,11.5407415 L9.6939916,11.5407415 C12.4166672,16.2724984 14.6254114,19.0795627 14.6254114,19.0795627 L14.6254114,19.0795627 C14.6254114,19.0785034 16.1619292,18.1399906 16.1619292,18.1399906 L16.1619292,18.1399906 L16.4236437,17.811617 C16.4236437,17.811617 9.08402783,5.70946273 7.15704888,0.48938252 L7.15704888,0.48938252 C6.0257666,0.13346796 5.0147886,0 4.13466787,0 L4.13466787,0 C1.46792318,0 0,1.22663411 0,1.22663411" id="path-9"></path>
    </defs>
    <g id="family-picture-LRG" stroke="none" stroke-width="1" fill="none" fill-rule="evenodd">
        <g id="Group" transform="translate(278.000000, 87.000000)">
            <g id="Group-56" transform="translate(55.000000, 179.000000) scale(-1, 1) translate(-55.000000, -179.000000) ">
                <g id="Group-45">
                    <path d="M48.0500539,1.34712916 C50.6577017,0.00503467751 53.7222948,1.87252685 56.4460257,1.95832768 C61.1853808,2.03141728 65.6894039,-1.75970835 70.2831276,1.01981488 C73.4711908,2.79726914 75.9933593,5.99520383 79.2911738,7.60423424 C85.9585631,10.8561917 90.8773194,12.7406322 89.0537599,22.7433143 C88.5757087,25.3650063 89.7850832,28.1201664 90.4541438,29.3139631 C91.0187297,30.3170914 91.8619149,31.1750997 92.8570634,32.7099812 C96.9368556,38.9978051 85.9680608,41.1608335 90.3570562,48.0005368 C91.0071214,48.8352412 91.8513619,49.4729214 92.7768605,50.1603874 C103.614798,57.642008 81.6487154,60.1895512 94.0189494,68.8098866 C95.3802872,69.8585634 96.654035,70.9316034 97.1521369,72.494026 C99.5687754,79.0466673 89.8283506,78.3030601 91.448237,85.1756007 C92.3716251,89.0959572 98.6865441,91.5534625 97.8644649,95.9716757 C96.678307,102.352715 83.3846849,99.9312252 85.9564525,105.326085 C87.0750712,107.670248 90.1491619,108.202002 91.4239651,110.363971 C95.4087803,118.763978 86.9368268,125.976544 75.6704373,124.32938 C71.6761244,124.196971 66.0365978,121.837978 67.3599448,117.007709 C68.2611716,114.235601 70.9331928,111.397818 69.3607948,108.58122 C68.171471,106.126893 65.5416618,104.81128 63.7930287,102.638718 C58.8436687,96.542622 67.3293411,95.8837563 66.2381602,90.466652 C64.4736976,86.5547697 60.6376798,85.0622589 64.8873754,79.9173868 C66.2107224,78.1897182 67.7651803,76.3624783 67.5055763,74.313851 C67.2596913,70.4252726 58.6241662,65.9954075 64.1180613,62.0506878 C65.9616715,60.9299806 68.1429779,60.7562604 69.291145,58.8622865 C72.1805581,55.429194 55.7062599,45.3089329 69.7111546,44.6278226 C71.2846079,44.4435097 72.1161848,42.7285524 71.6856221,41.2985385 C71.3827508,39.9352586 70.7685659,38.8802262 69.968648,37.727741 C68.5397709,35.762796 66.3500221,33.0817848 67.5973875,30.268365 C67.8432725,28.6985275 71.9336178,27.7812001 71.9779404,25.343821 C72.0180418,23.1331255 70.6936395,23.1405403 67.1035068,21.3789751 C65.3358782,19.8186711 67.2037603,16.501039 62.523502,16.2171547 C60.8339657,16.1144056 59.8947482,17.208631 58.693816,18.033802 C55.4308265,19.5750391 53.0658978,18.3717089 50.0329638,18.1820997 C47.6543161,17.6630576 40.4065114,21.9488621 38.5048597,20.6872721 C35.4740362,18.8399061 43.3771827,3.75167098 48.0500539,1.34712916" id="Fill-1" fill="#192529"></path>
                    <path d="M86.7969995,201.341876 L67.2486106,338.061793 L59.0341505,338.061793 C59.0341505,338.061793 53.2553242,225.733675 53.2553242,195.157861 L86.7969995,201.341876 Z" id="Fill-3" fill="#E2B38C"></path>
                    <polygon id="Fill-5" fill="#E2B38C" points="50.5172412 196.188636 40.477111 336.196526 31.5788161 336.196526 14.5800335 195.157966"></polygon>
                    <path d="M78.36367,275.20474 L54.4051798,275.20474 L55.6620429,338.991832 C55.6620429,338.991832 69.9233756,355.251619 93.8818658,355.251619 C93.8818658,339.105174 71.2931558,333.264362 71.2931558,333.264362 L78.36367,275.20474 Z" id="Fill-7" fill="#50001E"></path>
                    <g id="Group-11" transform="translate(4.209911, 275.204740)">
                        <mask id="mask-2" fill="white">
                            <use xlink:href="#path-1"></use>
                        </mask>
                        <g id="Clip-10"></g>
                        <path d="M17.5665343,0 L41.9809144,0 L40.1562996,65.2743066 C40.1562996,65.2743066 23.9574349,82.7956838 0,82.7956838 C0,65.6175099 23.9574349,58.4028252 23.9574349,58.4028252 L17.5665343,0 Z" id="Fill-9" fill="#50001E" mask="url(#mask-2)"></path>
                    </g>
                    <path d="M41.3540658,74.0515759 C44.2635297,71.1311698 51.8374223,92.1322474 51.8374223,66.513814 C68.4362459,66.513814 67.4347656,60.398651 67.4347656,60.398651 C67.4347656,60.398651 67.8843237,71.2709934 67.8843237,76.3311239 C67.8843237,81.2344825 76.7783974,77.8310496 81.740421,77.8310496 L77.222679,88.0794822 L54.1221482,88.3231142 C54.1221482,88.3231142 38.444602,76.971982 41.3540658,74.0515759" id="Fill-12" fill="#E2B38C"></path>
                    <g id="Group-16" transform="translate(0.000000, 73.078107)">
                        <mask id="mask-4" fill="white">
                            <use xlink:href="#path-3"></use>
                        </mask>
                        <g id="Clip-15"></g>
                        <path d="M44.9101124,0 C44.9101124,0 49.7782142,14.3509835 65.1623868,14.3509835 C75.1476414,14.3509835 79.7571945,4.69044545 79.7571945,4.69044545 C84.118752,4.72857915 86.4984549,4.95314429 88.2270374,5.04636001 C93.7061583,5.33977767 103.795888,11.4920151 107.562256,30.2082483 C109.155759,38.1273472 110,45.3473283 110,45.3473283 L87.7722028,50.2697538 C87.7722028,50.2697538 87.5157648,41.9576658 85.5370761,35.4209136 C85.5370761,35.4209136 83.3283318,38.8381171 83.3283318,62.053068 C83.3283318,87.5337964 98.4138544,176.62366 98.1605822,174.165095 C98.1605822,174.165095 82.2455934,182.237788 48.1899867,182.237788 C14.1354354,182.237788 -0.000316590189,169.526554 -0.000316590189,169.526554 C-0.000316590189,169.526554 27.0470386,76.7207731 28.3387266,56.4537693 C29.3264879,40.9619525 29.3264879,32.3733952 29.3264879,32.3733952 C25.3152903,40.3157981 23.3471546,46.4097756 23.3471546,46.4097756 L4.326416,42.8516893 C4.326416,30.7114013 14.9754547,0.630265367 30.3385213,0.630265367 C33.4010037,0.630265367 38.7397696,0.308247431 44.9101124,0" id="Fill-14" fill="#39A891" mask="url(#mask-4)"></path>
                    </g>
                    <path d="M90.742452,122.689949 C92.3739467,137.804666 96.3830338,152.511564 72.9627469,152.511564 L72.949028,161.953892 C91.9275546,161.953892 107.779225,161.242063 107.779225,137.49324 C107.779225,127.872954 106.771413,119.140337 106.771413,119.140337 L90.742452,122.689949 Z" id="Fill-17" fill="#E2B38C"></path>
                    <path d="M46.176051,25.9448505 C46.176051,25.9448505 49.3968285,63.9980489 49.3503953,71.2508673 C49.3039621,78.504745 66.5359661,77.8554128 67.6725249,70.1714716 C68.2634932,66.1769663 67.4340269,60.398651 67.4340269,60.398651 L54.2037229,44.2765689 L46.176051,25.9448505 Z" id="Fill-19" fill="#E2B38C"></path>
                    <path d="M46.4357605,50.4504154 C46.4357605,50.4504154 50.7688249,64.0419026 65.7498726,62.0917874 C85.8026952,59.4796288 75.8459338,12.5719965 75.8459338,12.5719965 L40.7951786,11.5042528 L35.092334,25.7959172 L46.4357605,50.4504154 Z" id="Fill-21" fill="#E2B38C"></path>
                    <path d="M63.8903274,39.232857 C66.7818511,38.8822388 69.2312039,39.106804 69.2312039,39.106804 C69.2312039,39.106804 68.8755676,31.7173398 68.6106871,24.2240671" id="Stroke-23" stroke="#021014" stroke-width="0.5"></path>
                    <path d="M72.7831348,31.1367647 L72.7831348,31.1367647 C72.3916182,31.1346356 72.075028,30.8126177 72.0781939,30.4196287 L72.0961341,27.7195506 C72.0982447,27.3255024 72.4180007,27.0087808 72.8105726,27.0119349 C73.2020891,27.0140771 73.517624,27.3350358 73.5155239,27.7290841 L73.4975733,30.4291621 C73.4954627,30.8221511 73.1746513,31.1388727 72.7831348,31.1367647" id="Fill-25" fill="#021014"></path>
                    <path d="M59.4926786,31.6510295 L59.4926786,31.6510295 C59.104328,31.7018744 58.7476364,31.4264643 58.6969819,31.0355939 L58.3508433,28.3588198 C58.3012442,27.9679493 58.5756224,27.6109755 58.963973,27.5601306 L58.963973,27.5601306 C59.3523236,27.5092856 59.7090152,27.7846957 59.7596697,28.1755662 L60.1058083,30.8523403 C60.1554074,31.2432107 59.8810292,31.6001845 59.4926786,31.6510295" id="Fill-27" fill="#021014"></path>
                    <path d="M71.6716921,2.42196995 C69.0640443,1.07987546 65.9994512,2.94736763 63.2757203,3.03316847 C58.5363652,3.10625806 54.0323421,-0.684867563 49.4386184,2.09465567 C46.2505552,3.87210993 43.7283867,7.07004462 40.4305723,8.67907503 C33.7631829,11.9310325 28.8444266,13.8154729 30.6679861,23.8181551 C31.1460373,26.4398471 29.9366628,29.1950072 29.2676022,30.3888039 C28.7030163,31.3919322 27.8598311,32.2499405 26.8646826,33.784822 C22.7848904,40.0726459 33.7536852,42.2356743 29.3646898,49.0753776 C28.7146246,49.910082 27.8703841,50.5477622 26.9448855,51.2352281 C16.106948,58.7168488 38.0730306,61.264392 25.7027966,69.8847274 C24.3414588,70.9334042 23.067711,72.0064442 22.5696091,73.5688668 C20.1529706,80.1215081 29.8933954,79.3779008 28.273509,86.2504415 C27.3501209,90.170798 21.035202,92.6283033 21.8572811,97.0465165 C23.0434391,103.427556 36.3370611,101.006066 33.7652935,106.400926 C32.6466748,108.745089 29.5725841,109.276842 28.2977809,111.438812 C24.3129657,119.838819 32.7849192,127.051385 44.0513087,125.404221 C48.0456216,125.271812 53.6851482,122.912819 52.3618012,118.08255 C51.4605744,115.310442 48.7885532,112.472659 50.3609512,109.656061 C51.550275,107.201733 54.1800842,105.886121 55.9287173,103.713559 C60.8780773,97.6174628 52.3924049,96.9585971 53.4835858,91.5414928 C55.2480484,87.6296104 59.0840662,86.1370997 54.8343706,80.9922276 C53.5110236,79.264559 51.9565657,77.4373191 52.2161697,75.3886918 C52.4620547,71.5001134 61.0975798,67.0702483 55.6036847,63.1265878 C53.7590192,62.0048214 51.5787681,61.8311012 50.430601,59.9371273 C47.5411879,56.5040348 64.0154861,46.3837737 50.0105914,45.7026634 C48.4371381,45.5183505 47.6055612,43.8033932 48.0361239,42.3733793 C48.3389952,41.0100994 48.9531801,39.955067 49.753098,38.8025817 C51.1819751,36.8376368 53.3717239,34.1566256 52.1243585,31.3432058 C51.8784735,29.7733683 47.7881283,28.8560409 47.7438056,26.4186617 C47.7037042,24.2079662 49.0281065,24.2153811 52.6182392,22.4538159 C54.3858678,20.8935119 52.5179857,17.5758798 57.198244,17.2919955 C58.8877803,17.1892464 59.8269979,18.2834718 61.02793,19.1086428 C64.2909195,20.6498799 66.6558482,19.4465497 69.6887823,19.2569405 C72.0674299,18.7378984 79.3152346,23.0237029 81.2168863,21.7621129 C84.2477098,19.9147469 76.3445633,4.82651177 71.6716921,2.42196995" id="Fill-29" fill="#192529"></path>
                    <path d="M69.03133,50.12755 C69.03133,50.12755 68.8149933,52.1274509 68.2852324,52.4611208 C67.7554715,52.7937314 64.2022743,51.5692158 64.0904124,49.8224804" id="Fill-31" fill="#021014"></path>
                    <path d="M60.9904668,144.48283 C60.9904668,144.48283 73.944282,152.247276 79.5204906,154.268362 C81.0886673,159.147358 78.8007756,161.953363 78.8007756,161.953363 C78.8007756,161.953363 69.2291988,162.006326 64.7568348,161.077347 C56.8800708,159.661103 54.777912,158.438706 51.7629181,156.40279 L53.3395372,146.776149 C61.5708821,149.909468 66.3788318,152.112749 67.7285613,151.645611 C62.6652289,148.768635 59.6565668,146.423412 59.6565668,146.423412 C59.6565668,146.423412 60.6422176,144.766714 60.6422176,144.766714" id="Fill-33" fill="#E2B38C"></path>
                    <line x1="51.7491992" y1="154.052271" x2="59.2333912" y2="156.282033" id="Stroke-35" stroke="#021014" stroke-width="0.5"></line>
                    <line x1="52.1814503" y1="151.712557" x2="59.7426793" y2="153.980453" id="Stroke-37" stroke="#021014" stroke-width="0.5"></line>
                    <line x1="52.4844271" y1="149.144781" x2="60.2261126" y2="151.491063" id="Stroke-39" stroke="#021014" stroke-width="0.5"></line>
                    <path d="M4.74927496,114.792035 C3.97046309,118.69968 4.00950922,119.14987 3.67286832,123.621047 C2.96476159,133.011471 3.84171642,146.776678 5.73175985,155.995501 C7.67984481,165.492912 12.4107575,184.836232 14.364119,194.086833 C17.2619745,193.974551 20.0817378,193.546606 22.711547,194.200175 C22.5521966,189.479011 17.1290067,157.596057 16.6688956,151.756304 C16.1496877,145.168707 16.0051115,139.323658 17.6724865,132.79538 C18.8058794,128.359159 20.4637567,123.845612 22.3263623,119.608534 C23.7552393,116.357635 5.12390668,112.909713 4.74927496,114.792035" id="Fill-41" fill="#E2B38C"></path>
                    <path d="M30.5069472,206.86925 C30.5069472,206.86925 23.1673313,194.767096 21.2392971,189.547016 C16.6793431,188.113824 14.0833035,190.285327 14.0833035,190.285327 C14.0833035,190.285327 14.1107413,199.273229 15.0109128,203.464758 C16.3944119,210.849985 17.5499661,212.813871 19.4716685,215.629409 L28.4301156,214.072283 C25.4446701,206.368216 23.3530643,201.870557 23.7772951,200.599434 C26.4989154,205.331191 28.708715,208.137196 28.708715,208.137196 C28.708715,208.137196 30.2452327,207.198683 30.2452327,207.198683" id="Fill-43" fill="#E2B38C"></path>
                </g>
                <g id="Group-55" transform="translate(14.082987, 189.058163)">
                    <g id="Group-48">
                        <mask id="mask-6" fill="white">
                            <use xlink:href="#path-5"></use>
                        </mask>
                        <g id="Clip-47"></g>
                        <line x1="6.86420296" y1="26.7322553" x2="4.57842179" y2="19.2389827" id="Stroke-46" stroke="#021014" stroke-width="0.5" mask="url(#mask-6)"></line>
                    </g>
                    <g id="Group-51">
                        <mask id="mask-8" fill="white">
                            <use xlink:href="#path-7"></use>
                        </mask>
                        <g id="Clip-50"></g>
                        <line x1="9.19124638" y1="26.2784643" x2="6.86747439" y2="18.7089243" id="Stroke-49" stroke="#021014" stroke-width="0.5" mask="url(#mask-8)"></line>
                    </g>
                    <g id="Group-54">
                        <mask id="mask-10" fill="white">
                            <use xlink:href="#path-9"></use>
                        </mask>
                        <g id="Clip-53"></g>
                        <line x1="11.7467624" y1="25.9524211" x2="9.34278755" y2="18.201746" id="Stroke-52" stroke="#021014" stroke-width="0.5" mask="url(#mask-10)"></line>
                    </g>
                </g>
            </g>
        </g>
    </g>
</svg>