<?xml version="1.0" encoding="UTF-8"?>
<svg width="550px" height="520px" viewBox="0 0 550 520" version="1.1" xmlns="http://www.w3.org/2000/svg" xmlns:xlink="http://www.w3.org/1999/xlink">
    <title>family-picture-LRG</title>
    <defs>
        <polygon id="path-1" points="0 3.55271368e-15 29.6879402 3.55271368e-15 29.6879402 27.221596 0 27.221596"></polygon>
    </defs>
    <g id="family-picture-LRG" stroke="none" stroke-width="1" fill="none" fill-rule="evenodd">
        <g id="Group-13" transform="translate(217.000000, 126.000000)">
            <path d="M11.7295,23.5816 C11.5925,23.5816 11.4535,23.5626 11.3145,23.5226 C10.5195,23.2946 10.0585,22.4636 10.2875,21.6666 C10.5615,20.7136 10.7505,20.1626 10.7505,20.1626 C11.0205,19.3796 11.8735,18.9616 12.6565,19.2326 C13.4395,19.5016 13.8565,20.3536 13.5885,21.1366 C13.5815,21.1566 13.4135,21.6516 13.1705,22.4956 C12.9815,23.1526 12.3815,23.5816 11.7295,23.5816" id="Fill-6" fill="#FDC50E"></path>
            <g id="Group-10" transform="translate(8.340560, 23.552404)">
                <mask id="mask-2" fill="white">
                    <use xlink:href="#path-1"></use>
                </mask>
                <g id="Clip-9"></g>
                <path d="M2.04904016,6.01459601 C1.96904016,6.01459601 1.88804016,6.00859601 1.80704016,5.99459601 C0.989040164,5.86259601 0.434040164,5.09259601 0.567040164,4.27459601 C0.732040164,3.25659601 0.934040164,2.21259601 1.16804016,1.17159601 C1.34904016,0.363596011 2.15204016,-0.144403989 2.96004016,0.0365960106 C3.76804016,0.217596011 4.27604016,1.01959601 4.09404016,1.82859601 C3.87404016,2.81159601 3.68304016,3.79659601 3.52804016,4.75459601 C3.40804016,5.49159601 2.77204016,6.01459601 2.04904016,6.01459601 M27.7090402,6.07159601 C26.9800402,6.07159601 26.3400402,5.53859601 26.2280402,4.79559601 C26.0810402,3.82959601 25.9010402,2.84359601 25.6920402,1.86259601 C25.5190402,1.05259601 26.0350402,0.255596011 26.8460402,0.0825960106 C27.6570402,-0.0924039894 28.4520402,0.426596011 28.6260402,1.23659601 C28.8480402,2.27559601 29.0390402,3.32259601 29.1940402,4.34659601 C29.3180402,5.16559601 28.7540402,5.93059601 27.9350402,6.05459601 C27.8590402,6.06559601 27.7830402,6.07159601 27.7090402,6.07159601 M1.50004016,12.126596 L1.49004016,12.126596 C0.661040164,12.120596 -0.00595983575,11.444596 4.01642486e-05,10.616596 C0.00704016425,9.59459601 0.0610401642,8.51959601 0.162040164,7.42259601 C0.238040164,6.59759601 0.976040164,5.99059601 1.79404016,6.06659601 C2.61804016,6.14259601 3.22604016,6.87259601 3.15004016,7.69759601 C3.05604016,8.71059601 3.00604016,9.69959601 3.00004016,10.636596 C2.99404016,11.461596 2.32404016,12.126596 1.50004016,12.126596 M28.1880402,12.189596 L28.1750402,12.189596 C27.3470402,12.182596 26.6810402,11.505596 26.6880402,10.677596 L26.6880402,10.511596 C26.6880402,9.62659601 26.6490402,8.69559601 26.5720402,7.74259601 C26.5060402,6.91659601 27.1210402,6.19259601 27.9470402,6.12659601 C28.7780402,6.06159601 29.4960402,6.67559601 29.5630402,7.50059601 C29.6460402,8.53459601 29.6880402,9.54659601 29.6880402,10.511596 L29.6880402,10.701596 C29.6810402,11.525596 29.0100402,12.189596 28.1880402,12.189596 M2.18604016,18.213596 C1.52204016,18.213596 0.914040164,17.768596 0.737040164,17.096596 C0.470040164,16.089596 0.274040164,14.997596 0.152040164,13.851596 C0.0650401642,13.027596 0.662040164,12.288596 1.48604016,12.201596 C2.30304016,12.112596 3.04804016,12.710596 3.13504016,13.535596 C3.24104016,14.530596 3.41004016,15.470596 3.63704016,16.329596 C3.84904016,17.130596 3.37104016,17.952596 2.57004016,18.163596 C2.44204016,18.197596 2.31304016,18.213596 2.18604016,18.213596 M27.4270402,18.266596 C27.2950402,18.266596 27.1590402,18.248596 27.0250402,18.211596 C26.2270402,17.990596 25.7590402,17.163596 25.9810402,16.365596 C26.2190402,15.506596 26.4000402,14.568596 26.5170402,13.577596 C26.6140402,12.755596 27.3580402,12.167596 28.1830402,12.264596 C29.0060402,12.361596 29.5930402,13.107596 29.4960402,13.930596 C29.3610402,15.072596 29.1510402,16.161596 28.8720402,17.167596 C28.6880402,17.831596 28.0840402,18.266596 27.4270402,18.266596 M5.00104016,23.600596 C4.59704016,23.600596 4.19504016,23.439596 3.90004016,23.119596 C3.13204016,22.291596 2.46804016,21.330596 1.92604016,20.263596 C1.55104016,19.524596 1.84504016,18.621596 2.58404016,18.245596 C3.32204016,17.872596 4.22504016,18.164596 4.60104016,18.903596 C5.01704016,19.723596 5.52204016,20.456596 6.10104016,21.081596 C6.66404016,21.689596 6.62704016,22.639596 6.01904016,23.201596 C5.73104016,23.468596 5.36504016,23.600596 5.00104016,23.600596 M24.5550402,23.622596 C24.1870402,23.622596 23.8190402,23.487596 23.5290402,23.215596 C22.9250402,22.648596 22.8950402,21.699596 23.4630402,21.095596 C24.0480402,20.472596 24.5610402,19.743596 24.9860402,18.927596 C25.3710402,18.194596 26.2750402,17.910596 27.0110402,18.292596 C27.7450402,18.676596 28.0290402,19.582596 27.6460402,20.317596 C27.0930402,21.374596 26.4210402,22.327596 25.6490402,23.149596 C25.3540402,23.463596 24.9550402,23.622596 24.5550402,23.622596 M10.2180402,26.666596 C10.0880402,26.666596 9.95604016,26.649596 9.82404016,26.613596 C8.67104016,26.300596 7.59904016,25.859596 6.63804016,25.304596 C5.92104016,24.889596 5.67504016,23.972596 6.09004016,23.255596 C6.50404016,22.537596 7.42104016,22.291596 8.13904016,22.706596 C8.87604016,23.132596 9.70704016,23.472596 10.6110402,23.718596 C11.4100402,23.935596 11.8820402,24.759596 11.6650402,25.558596 C11.4840402,26.226596 10.8790402,26.666596 10.2180402,26.666596 M19.3230402,26.667596 C18.6630402,26.667596 18.0570402,26.227596 17.8770402,25.558596 C17.6600402,24.759596 18.1330402,23.935596 18.9330402,23.719596 C19.8370402,23.474596 20.6700402,23.135596 21.4100402,22.711596 C22.1290402,22.299596 23.0450402,22.548596 23.4570402,23.266596 C23.8690402,23.985596 23.6210402,24.902596 22.9020402,25.314596 C21.9400402,25.866596 20.8670402,26.303596 19.7160402,26.615596 C19.5850402,26.650596 19.4530402,26.667596 19.3230402,26.667596 M14.7720402,27.221596 C14.2020402,27.221596 13.6540402,27.201596 13.1270402,27.162596 C12.3000402,27.100596 11.6800402,26.381596 11.7420402,25.555596 C11.8040402,24.729596 12.5290402,24.122596 13.3490402,24.170596 C14.2600402,24.238596 15.2800402,24.238596 16.1940402,24.170596 C17.0180402,24.117596 17.7380402,24.730596 17.7990402,25.556596 C17.8600402,26.383596 17.2390402,27.101596 16.4130402,27.162596 C15.8870402,27.201596 15.3400402,27.221596 14.7720402,27.221596" id="Fill-8" fill="#FDC50E" mask="url(#mask-2)"></path>
            </g>
            <path d="M34.7544,23.5543 C34.0974,23.5543 33.4944,23.1183 33.3104,22.4543 C33.0754,21.6103 32.9114,21.1143 32.9044,21.0943 C32.6434,20.3093 33.0674,19.4603 33.8524,19.1983 C34.6354,18.9343 35.4864,19.3583 35.7504,20.1433 C35.7504,20.1433 35.9354,20.6963 36.2004,21.6533 C36.4224,22.4513 35.9544,23.2783 35.1554,23.4993 C35.0224,23.5363 34.8874,23.5543 34.7544,23.5543" id="Fill-11" fill="#FDC50E"></path>
        </g>
    </g>
</svg>